<svg xmlns="http://www.w3.org/2000/svg" xmlns:xlink="http://www.w3.org/1999/xlink" width="285" zoomAndPan="magnify" viewBox="0 0 213.75 67.499998" height="90" preserveAspectRatio="xMidYMid meet" version="1.0"><defs><g/><clipPath id="cdb6f1af09"><path d="M 3.75 3.984375 L 209.753906 3.984375 L 209.753906 54.773438 L 3.75 54.773438 Z M 3.75 3.984375 " clip-rule="nonzero"/></clipPath><clipPath id="187ab25d73"><path d="M 3.761719 3.984375 L 209.742188 3.984375 L 209.742188 54.769531 L 3.761719 54.769531 Z M 3.761719 3.984375 " clip-rule="nonzero"/></clipPath><clipPath id="b64b850abe"><path d="M 141 10 L 212.839844 10 L 212.839844 48 L 141 48 Z M 141 10 " clip-rule="nonzero"/></clipPath></defs><g clip-path="url(#cdb6f1af09)"><path fill="#000000" d="M 3.75 3.984375 L 209.6875 3.984375 L 209.6875 54.773438 L 3.75 54.773438 Z M 3.75 3.984375 " fill-opacity="1" fill-rule="nonzero"/></g><g clip-path="url(#187ab25d73)"><path stroke-linecap="butt" transform="matrix(0.515009, 0, 0, 0.515009, 3.760683, 3.983082)" fill="none" stroke-linejoin="miter" d="M 0.0020109 0.0025099 L 399.956843 0.0025099 L 399.956843 98.612678 L 0.0020109 98.612678 Z M 0.0020109 0.0025099 " stroke="#ffffff" stroke-width="8.673457" stroke-opacity="1" stroke-miterlimit="4"/></g><g fill="#ffffff" fill-opacity="1"><g transform="translate(3.494291, 61.498452)"><g><path d="M 2.265625 -2.390625 C 2.265625 -2.503906 2.242188 -2.601562 2.203125 -2.6875 C 2.160156 -2.769531 2.101562 -2.835938 2.03125 -2.890625 C 1.957031 -2.941406 1.867188 -2.984375 1.765625 -3.015625 C 1.671875 -3.046875 1.570312 -3.0625 1.46875 -3.0625 C 1.375 -3.0625 1.285156 -3.046875 1.203125 -3.015625 C 1.117188 -2.992188 1.039062 -2.960938 0.96875 -2.921875 C 0.90625 -2.878906 0.851562 -2.820312 0.8125 -2.75 C 0.78125 -2.6875 0.765625 -2.613281 0.765625 -2.53125 L 0.765625 -2.5 C 0.765625 -2.40625 0.78125 -2.320312 0.8125 -2.25 C 0.851562 -2.1875 0.910156 -2.128906 0.984375 -2.078125 C 1.066406 -2.035156 1.160156 -2 1.265625 -1.96875 C 1.378906 -1.945312 1.515625 -1.921875 1.671875 -1.890625 C 2.023438 -1.835938 2.285156 -1.734375 2.453125 -1.578125 C 2.617188 -1.429688 2.703125 -1.226562 2.703125 -0.96875 L 2.703125 -0.921875 C 2.703125 -0.773438 2.675781 -0.640625 2.625 -0.515625 C 2.570312 -0.398438 2.492188 -0.296875 2.390625 -0.203125 C 2.296875 -0.117188 2.175781 -0.0507812 2.03125 0 C 1.894531 0.0390625 1.734375 0.0625 1.546875 0.0625 C 1.328125 0.0625 1.132812 0.03125 0.96875 -0.03125 C 0.800781 -0.09375 0.660156 -0.175781 0.546875 -0.28125 C 0.441406 -0.394531 0.359375 -0.523438 0.296875 -0.671875 C 0.242188 -0.828125 0.21875 -0.992188 0.21875 -1.171875 L 0.21875 -1.3125 L 0.625 -1.3125 L 0.625 -1.1875 C 0.625 -0.894531 0.703125 -0.675781 0.859375 -0.53125 C 1.023438 -0.382812 1.253906 -0.3125 1.546875 -0.3125 C 1.796875 -0.3125 1.984375 -0.363281 2.109375 -0.46875 C 2.234375 -0.582031 2.296875 -0.734375 2.296875 -0.921875 L 2.296875 -0.9375 C 2.296875 -1.113281 2.226562 -1.25 2.09375 -1.34375 C 1.96875 -1.4375 1.757812 -1.503906 1.46875 -1.546875 C 1.300781 -1.566406 1.144531 -1.597656 1 -1.640625 C 0.863281 -1.691406 0.75 -1.753906 0.65625 -1.828125 C 0.5625 -1.910156 0.488281 -2.003906 0.4375 -2.109375 C 0.382812 -2.210938 0.359375 -2.335938 0.359375 -2.484375 L 0.359375 -2.546875 C 0.359375 -2.671875 0.382812 -2.785156 0.4375 -2.890625 C 0.5 -3.003906 0.578125 -3.101562 0.671875 -3.1875 C 0.765625 -3.269531 0.878906 -3.332031 1.015625 -3.375 C 1.160156 -3.414062 1.3125 -3.4375 1.46875 -3.4375 C 1.65625 -3.4375 1.820312 -3.40625 1.96875 -3.34375 C 2.125 -3.289062 2.253906 -3.21875 2.359375 -3.125 C 2.460938 -3.039062 2.539062 -2.9375 2.59375 -2.8125 C 2.644531 -2.6875 2.671875 -2.554688 2.671875 -2.421875 L 2.671875 -2.21875 L 2.265625 -2.21875 Z M 2.265625 -2.390625 "/></g></g></g><g fill="#ffffff" fill-opacity="1"><g transform="translate(5.926526, 61.498452)"><g><path d="M 0.8125 -1.390625 L 0.8125 0 L 0.40625 0 L 0.40625 -3.375 L 1.609375 -3.375 C 1.785156 -3.375 1.9375 -3.347656 2.0625 -3.296875 C 2.1875 -3.242188 2.289062 -3.175781 2.375 -3.09375 C 2.46875 -3.007812 2.535156 -2.910156 2.578125 -2.796875 C 2.617188 -2.691406 2.640625 -2.578125 2.640625 -2.453125 L 2.640625 -2.3125 C 2.640625 -2.1875 2.617188 -2.066406 2.578125 -1.953125 C 2.535156 -1.847656 2.46875 -1.75 2.375 -1.65625 C 2.289062 -1.570312 2.1875 -1.503906 2.0625 -1.453125 C 1.9375 -1.410156 1.785156 -1.390625 1.609375 -1.390625 Z M 0.8125 -1.765625 L 1.5625 -1.765625 C 2.007812 -1.765625 2.234375 -1.957031 2.234375 -2.34375 L 2.234375 -2.421875 C 2.234375 -2.597656 2.175781 -2.738281 2.0625 -2.84375 C 1.957031 -2.945312 1.789062 -3 1.5625 -3 L 0.8125 -3 Z M 0.8125 -1.765625 "/></g></g></g><g fill="#ffffff" fill-opacity="1"><g transform="translate(8.358761, 61.498452)"><g><path d="M 0.28125 -2.0625 C 0.28125 -2.5 0.382812 -2.835938 0.59375 -3.078125 C 0.8125 -3.316406 1.101562 -3.4375 1.46875 -3.4375 C 1.84375 -3.4375 2.132812 -3.316406 2.34375 -3.078125 C 2.550781 -2.835938 2.65625 -2.5 2.65625 -2.0625 L 2.65625 -1.3125 C 2.65625 -0.863281 2.550781 -0.519531 2.34375 -0.28125 C 2.132812 -0.0507812 1.84375 0.0625 1.46875 0.0625 C 1.101562 0.0625 0.8125 -0.0507812 0.59375 -0.28125 C 0.382812 -0.519531 0.28125 -0.863281 0.28125 -1.3125 Z M 1.46875 -0.3125 C 1.726562 -0.3125 1.921875 -0.398438 2.046875 -0.578125 C 2.179688 -0.753906 2.25 -1.007812 2.25 -1.34375 L 2.25 -2.03125 C 2.25 -2.34375 2.179688 -2.59375 2.046875 -2.78125 C 1.921875 -2.96875 1.726562 -3.0625 1.46875 -3.0625 C 1.207031 -3.0625 1.007812 -2.96875 0.875 -2.78125 C 0.75 -2.59375 0.6875 -2.34375 0.6875 -2.03125 L 0.6875 -1.34375 C 0.6875 -1.007812 0.75 -0.753906 0.875 -0.578125 C 1.007812 -0.398438 1.207031 -0.3125 1.46875 -0.3125 Z M 1.46875 -0.3125 "/></g></g></g><g fill="#ffffff" fill-opacity="1"><g transform="translate(10.790996, 61.498452)"><g><path d="M 2.53125 0 L 2.125 0 L 2.125 -1.125 C 2.125 -1.207031 2.101562 -1.269531 2.0625 -1.3125 C 2.019531 -1.363281 1.953125 -1.390625 1.859375 -1.390625 L 0.8125 -1.390625 L 0.8125 0 L 0.40625 0 L 0.40625 -3.375 L 1.609375 -3.375 C 1.785156 -3.375 1.9375 -3.347656 2.0625 -3.296875 C 2.1875 -3.242188 2.289062 -3.175781 2.375 -3.09375 C 2.46875 -3.007812 2.535156 -2.910156 2.578125 -2.796875 C 2.617188 -2.691406 2.640625 -2.578125 2.640625 -2.453125 L 2.640625 -2.3125 C 2.640625 -2.1875 2.601562 -2.0625 2.53125 -1.9375 C 2.46875 -1.8125 2.363281 -1.710938 2.21875 -1.640625 L 2.21875 -1.59375 C 2.3125 -1.570312 2.382812 -1.53125 2.4375 -1.46875 C 2.5 -1.40625 2.53125 -1.320312 2.53125 -1.21875 Z M 0.8125 -1.765625 L 1.5625 -1.765625 C 1.789062 -1.765625 1.957031 -1.8125 2.0625 -1.90625 C 2.175781 -2.007812 2.234375 -2.15625 2.234375 -2.34375 L 2.234375 -2.421875 C 2.234375 -2.597656 2.175781 -2.738281 2.0625 -2.84375 C 1.957031 -2.945312 1.789062 -3 1.5625 -3 L 0.8125 -3 Z M 0.8125 -1.765625 "/></g></g></g><g fill="#ffffff" fill-opacity="1"><g transform="translate(13.223231, 61.498452)"><g><path d="M 0.28125 -3.375 L 2.65625 -3.375 L 2.65625 -3 L 1.671875 -3 L 1.671875 0 L 1.265625 0 L 1.265625 -3 L 0.28125 -3 Z M 0.28125 -3.375 "/></g></g></g><g fill="#ffffff" fill-opacity="1"><g transform="translate(15.655466, 61.498452)"><g><path d="M 2.265625 -2.390625 C 2.265625 -2.503906 2.242188 -2.601562 2.203125 -2.6875 C 2.160156 -2.769531 2.101562 -2.835938 2.03125 -2.890625 C 1.957031 -2.941406 1.867188 -2.984375 1.765625 -3.015625 C 1.671875 -3.046875 1.570312 -3.0625 1.46875 -3.0625 C 1.375 -3.0625 1.285156 -3.046875 1.203125 -3.015625 C 1.117188 -2.992188 1.039062 -2.960938 0.96875 -2.921875 C 0.90625 -2.878906 0.851562 -2.820312 0.8125 -2.75 C 0.78125 -2.6875 0.765625 -2.613281 0.765625 -2.53125 L 0.765625 -2.5 C 0.765625 -2.40625 0.78125 -2.320312 0.8125 -2.25 C 0.851562 -2.1875 0.910156 -2.128906 0.984375 -2.078125 C 1.066406 -2.035156 1.160156 -2 1.265625 -1.96875 C 1.378906 -1.945312 1.515625 -1.921875 1.671875 -1.890625 C 2.023438 -1.835938 2.285156 -1.734375 2.453125 -1.578125 C 2.617188 -1.429688 2.703125 -1.226562 2.703125 -0.96875 L 2.703125 -0.921875 C 2.703125 -0.773438 2.675781 -0.640625 2.625 -0.515625 C 2.570312 -0.398438 2.492188 -0.296875 2.390625 -0.203125 C 2.296875 -0.117188 2.175781 -0.0507812 2.03125 0 C 1.894531 0.0390625 1.734375 0.0625 1.546875 0.0625 C 1.328125 0.0625 1.132812 0.03125 0.96875 -0.03125 C 0.800781 -0.09375 0.660156 -0.175781 0.546875 -0.28125 C 0.441406 -0.394531 0.359375 -0.523438 0.296875 -0.671875 C 0.242188 -0.828125 0.21875 -0.992188 0.21875 -1.171875 L 0.21875 -1.3125 L 0.625 -1.3125 L 0.625 -1.1875 C 0.625 -0.894531 0.703125 -0.675781 0.859375 -0.53125 C 1.023438 -0.382812 1.253906 -0.3125 1.546875 -0.3125 C 1.796875 -0.3125 1.984375 -0.363281 2.109375 -0.46875 C 2.234375 -0.582031 2.296875 -0.734375 2.296875 -0.921875 L 2.296875 -0.9375 C 2.296875 -1.113281 2.226562 -1.25 2.09375 -1.34375 C 1.96875 -1.4375 1.757812 -1.503906 1.46875 -1.546875 C 1.300781 -1.566406 1.144531 -1.597656 1 -1.640625 C 0.863281 -1.691406 0.75 -1.753906 0.65625 -1.828125 C 0.5625 -1.910156 0.488281 -2.003906 0.4375 -2.109375 C 0.382812 -2.210938 0.359375 -2.335938 0.359375 -2.484375 L 0.359375 -2.546875 C 0.359375 -2.671875 0.382812 -2.785156 0.4375 -2.890625 C 0.5 -3.003906 0.578125 -3.101562 0.671875 -3.1875 C 0.765625 -3.269531 0.878906 -3.332031 1.015625 -3.375 C 1.160156 -3.414062 1.3125 -3.4375 1.46875 -3.4375 C 1.65625 -3.4375 1.820312 -3.40625 1.96875 -3.34375 C 2.125 -3.289062 2.253906 -3.21875 2.359375 -3.125 C 2.460938 -3.039062 2.539062 -2.9375 2.59375 -2.8125 C 2.644531 -2.6875 2.671875 -2.554688 2.671875 -2.421875 L 2.671875 -2.21875 L 2.265625 -2.21875 Z M 2.265625 -2.390625 "/></g></g></g><g fill="#ffffff" fill-opacity="1"><g transform="translate(18.087701, 61.498452)"><g/></g></g><g fill="#ffffff" fill-opacity="1"><g transform="translate(20.519936, 61.498452)"><g><path d="M 0.34375 -3.375 L 1.453125 -3.375 C 1.867188 -3.375 2.171875 -3.269531 2.359375 -3.0625 C 2.554688 -2.863281 2.65625 -2.550781 2.65625 -2.125 L 2.65625 -1.25 C 2.65625 -0.8125 2.554688 -0.492188 2.359375 -0.296875 C 2.171875 -0.0976562 1.867188 0 1.453125 0 L 0.34375 0 L 0.34375 -0.375 L 0.640625 -0.375 L 0.640625 -3 L 0.34375 -3 Z M 1.40625 -0.375 C 1.550781 -0.375 1.675781 -0.390625 1.78125 -0.421875 C 1.882812 -0.453125 1.972656 -0.5 2.046875 -0.5625 C 2.117188 -0.632812 2.171875 -0.726562 2.203125 -0.84375 C 2.234375 -0.957031 2.25 -1.101562 2.25 -1.28125 L 2.25 -2.09375 C 2.25 -2.269531 2.234375 -2.414062 2.203125 -2.53125 C 2.171875 -2.644531 2.117188 -2.734375 2.046875 -2.796875 C 1.972656 -2.867188 1.882812 -2.921875 1.78125 -2.953125 C 1.675781 -2.984375 1.550781 -3 1.40625 -3 L 1.046875 -3 L 1.046875 -0.375 Z M 1.40625 -0.375 "/></g></g></g><g fill="#ffffff" fill-opacity="1"><g transform="translate(22.952171, 61.498452)"><g><path d="M 2.1875 -0.84375 L 0.75 -0.84375 L 0.5 0 L 0.078125 0 L 1.09375 -3.375 L 1.859375 -3.375 L 2.875 0 L 2.4375 0 Z M 1.4375 -3.203125 L 0.859375 -1.21875 L 2.078125 -1.21875 L 1.5 -3.203125 Z M 1.4375 -3.203125 "/></g></g></g><g fill="#ffffff" fill-opacity="1"><g transform="translate(25.384407, 61.498452)"><g><path d="M 0.28125 -3.375 L 2.65625 -3.375 L 2.65625 -3 L 1.671875 -3 L 1.671875 0 L 1.265625 0 L 1.265625 -3 L 0.28125 -3 Z M 0.28125 -3.375 "/></g></g></g><g fill="#ffffff" fill-opacity="1"><g transform="translate(27.816642, 61.498452)"><g><path d="M 2.1875 -0.84375 L 0.75 -0.84375 L 0.5 0 L 0.078125 0 L 1.09375 -3.375 L 1.859375 -3.375 L 2.875 0 L 2.4375 0 Z M 1.4375 -3.203125 L 0.859375 -1.21875 L 2.078125 -1.21875 L 1.5 -3.203125 Z M 1.4375 -3.203125 "/></g></g></g><g fill="#ffffff" fill-opacity="1"><g transform="translate(30.248877, 61.498452)"><g/></g></g><g fill="#ffffff" fill-opacity="1"><g transform="translate(32.681111, 61.498452)"><g><path d="M 0.421875 -3.375 L 0.828125 -3.375 L 0.828125 -0.375 L 2.578125 -0.375 L 2.578125 0 L 0.421875 0 Z M 0.421875 -3.375 "/></g></g></g><g fill="#ffffff" fill-opacity="1"><g transform="translate(35.113345, 61.498452)"><g><path d="M 2.1875 -0.84375 L 0.75 -0.84375 L 0.5 0 L 0.078125 0 L 1.09375 -3.375 L 1.859375 -3.375 L 2.875 0 L 2.4375 0 Z M 1.4375 -3.203125 L 0.859375 -1.21875 L 2.078125 -1.21875 L 1.5 -3.203125 Z M 1.4375 -3.203125 "/></g></g></g><g fill="#ffffff" fill-opacity="1"><g transform="translate(37.545578, 61.498452)"><g><path d="M 0.28125 -0.375 L 0.5625 -0.375 L 0.5625 -3 L 0.28125 -3 L 0.28125 -3.375 L 1.640625 -3.375 C 1.796875 -3.375 1.9375 -3.347656 2.0625 -3.296875 C 2.1875 -3.253906 2.289062 -3.191406 2.375 -3.109375 C 2.457031 -3.035156 2.519531 -2.945312 2.5625 -2.84375 C 2.601562 -2.738281 2.625 -2.625 2.625 -2.5 L 2.625 -2.4375 C 2.625 -2.34375 2.609375 -2.253906 2.578125 -2.171875 C 2.554688 -2.097656 2.519531 -2.03125 2.46875 -1.96875 C 2.414062 -1.90625 2.351562 -1.851562 2.28125 -1.8125 C 2.21875 -1.769531 2.144531 -1.738281 2.0625 -1.71875 L 2.0625 -1.65625 C 2.226562 -1.613281 2.363281 -1.53125 2.46875 -1.40625 C 2.570312 -1.28125 2.625 -1.125 2.625 -0.9375 L 2.625 -0.875 C 2.625 -0.75 2.601562 -0.632812 2.5625 -0.53125 C 2.519531 -0.425781 2.457031 -0.332031 2.375 -0.25 C 2.289062 -0.175781 2.1875 -0.113281 2.0625 -0.0625 C 1.9375 -0.0195312 1.796875 0 1.640625 0 L 0.28125 0 Z M 0.96875 -0.375 L 1.609375 -0.375 C 1.796875 -0.375 1.945312 -0.421875 2.0625 -0.515625 C 2.1875 -0.609375 2.25 -0.738281 2.25 -0.90625 L 2.25 -0.9375 C 2.25 -1.113281 2.191406 -1.25 2.078125 -1.34375 C 1.960938 -1.445312 1.8125 -1.5 1.625 -1.5 L 0.96875 -1.5 Z M 0.96875 -1.875 L 1.625 -1.875 C 1.8125 -1.875 1.960938 -1.921875 2.078125 -2.015625 C 2.191406 -2.117188 2.25 -2.257812 2.25 -2.4375 L 2.25 -2.46875 C 2.25 -2.625 2.1875 -2.75 2.0625 -2.84375 C 1.945312 -2.945312 1.796875 -3 1.609375 -3 L 0.96875 -3 Z M 0.96875 -1.875 "/></g></g></g><g fill="#ffffff" fill-opacity="1"><g transform="translate(39.982992, 61.498452)"><g/></g></g><g fill="#ffffff" fill-opacity="1"><g transform="translate(42.415227, 61.498452)"><g/></g></g><g fill="#ffffff" fill-opacity="1"><g transform="translate(44.852325, 61.498452)"><g><path d="M 0.90625 -1.6875 C 0.90625 -1.757812 0.921875 -1.828125 0.953125 -1.890625 C 0.984375 -1.960938 1.023438 -2.023438 1.078125 -2.078125 C 1.128906 -2.128906 1.1875 -2.171875 1.25 -2.203125 C 1.320312 -2.234375 1.394531 -2.25 1.46875 -2.25 C 1.550781 -2.25 1.625 -2.234375 1.6875 -2.203125 C 1.757812 -2.171875 1.820312 -2.128906 1.875 -2.078125 C 1.925781 -2.023438 1.96875 -1.960938 2 -1.890625 C 2.03125 -1.828125 2.046875 -1.757812 2.046875 -1.6875 C 2.046875 -1.601562 2.03125 -1.523438 2 -1.453125 C 1.96875 -1.390625 1.925781 -1.332031 1.875 -1.28125 C 1.820312 -1.226562 1.757812 -1.1875 1.6875 -1.15625 C 1.625 -1.125 1.550781 -1.109375 1.46875 -1.109375 C 1.394531 -1.109375 1.320312 -1.125 1.25 -1.15625 C 1.1875 -1.1875 1.128906 -1.226562 1.078125 -1.28125 C 1.023438 -1.332031 0.984375 -1.390625 0.953125 -1.453125 C 0.921875 -1.523438 0.90625 -1.601562 0.90625 -1.6875 Z M 0.90625 -1.6875 "/></g></g></g><g fill="#ffffff" fill-opacity="1"><g transform="translate(47.286991, 61.498452)"><g/></g></g><g fill="#ffffff" fill-opacity="1"><g transform="translate(49.719227, 61.498452)"><g/></g></g><g fill="#ffffff" fill-opacity="1"><g transform="translate(52.156324, 61.498452)"><g><path d="M 0.34375 -3.375 L 1.453125 -3.375 C 1.867188 -3.375 2.171875 -3.269531 2.359375 -3.0625 C 2.554688 -2.863281 2.65625 -2.550781 2.65625 -2.125 L 2.65625 -1.25 C 2.65625 -0.8125 2.554688 -0.492188 2.359375 -0.296875 C 2.171875 -0.0976562 1.867188 0 1.453125 0 L 0.34375 0 L 0.34375 -0.375 L 0.640625 -0.375 L 0.640625 -3 L 0.34375 -3 Z M 1.40625 -0.375 C 1.550781 -0.375 1.675781 -0.390625 1.78125 -0.421875 C 1.882812 -0.453125 1.972656 -0.5 2.046875 -0.5625 C 2.117188 -0.632812 2.171875 -0.726562 2.203125 -0.84375 C 2.234375 -0.957031 2.25 -1.101562 2.25 -1.28125 L 2.25 -2.09375 C 2.25 -2.269531 2.234375 -2.414062 2.203125 -2.53125 C 2.171875 -2.644531 2.117188 -2.734375 2.046875 -2.796875 C 1.972656 -2.867188 1.882812 -2.921875 1.78125 -2.953125 C 1.675781 -2.984375 1.550781 -3 1.40625 -3 L 1.046875 -3 L 1.046875 -0.375 Z M 1.40625 -0.375 "/></g></g></g><g fill="#ffffff" fill-opacity="1"><g transform="translate(54.588559, 61.498452)"><g><path d="M 0.453125 -3.375 L 2.5 -3.375 L 2.5 -3 L 0.859375 -3 L 0.859375 -1.875 L 2.46875 -1.875 L 2.46875 -1.5 L 0.859375 -1.5 L 0.859375 -0.375 L 2.515625 -0.375 L 2.515625 0 L 0.453125 0 Z M 0.453125 -3.375 "/></g></g></g><g fill="#ffffff" fill-opacity="1"><g transform="translate(57.020794, 61.498452)"><g><path d="M 0.8125 -1.390625 L 0.8125 0 L 0.40625 0 L 0.40625 -3.375 L 1.609375 -3.375 C 1.785156 -3.375 1.9375 -3.347656 2.0625 -3.296875 C 2.1875 -3.242188 2.289062 -3.175781 2.375 -3.09375 C 2.46875 -3.007812 2.535156 -2.910156 2.578125 -2.796875 C 2.617188 -2.691406 2.640625 -2.578125 2.640625 -2.453125 L 2.640625 -2.3125 C 2.640625 -2.1875 2.617188 -2.066406 2.578125 -1.953125 C 2.535156 -1.847656 2.46875 -1.75 2.375 -1.65625 C 2.289062 -1.570312 2.1875 -1.503906 2.0625 -1.453125 C 1.9375 -1.410156 1.785156 -1.390625 1.609375 -1.390625 Z M 0.8125 -1.765625 L 1.5625 -1.765625 C 2.007812 -1.765625 2.234375 -1.957031 2.234375 -2.34375 L 2.234375 -2.421875 C 2.234375 -2.597656 2.175781 -2.738281 2.0625 -2.84375 C 1.957031 -2.945312 1.789062 -3 1.5625 -3 L 0.8125 -3 Z M 0.8125 -1.765625 "/></g></g></g><g fill="#ffffff" fill-opacity="1"><g transform="translate(59.453029, 61.498452)"><g><path d="M 0.28125 -3.375 L 2.65625 -3.375 L 2.65625 -3 L 1.671875 -3 L 1.671875 0 L 1.265625 0 L 1.265625 -3 L 0.28125 -3 Z M 0.28125 -3.375 "/></g></g></g><g fill="#ffffff" fill-opacity="1"><g transform="translate(61.885265, 61.498452)"><g><path d="M 1.140625 -0.265625 C 1.140625 -0.359375 1.171875 -0.4375 1.234375 -0.5 C 1.296875 -0.570312 1.375 -0.609375 1.46875 -0.609375 C 1.5625 -0.609375 1.640625 -0.570312 1.703125 -0.5 C 1.773438 -0.4375 1.8125 -0.359375 1.8125 -0.265625 C 1.8125 -0.171875 1.773438 -0.09375 1.703125 -0.03125 C 1.640625 0.03125 1.5625 0.0625 1.46875 0.0625 C 1.375 0.0625 1.296875 0.03125 1.234375 -0.03125 C 1.171875 -0.09375 1.140625 -0.171875 1.140625 -0.265625 Z M 1.140625 -0.265625 "/></g></g></g><g fill="#ffffff" fill-opacity="1"><g transform="translate(64.323397, 61.498452)"><g/></g></g><g fill="#ffffff" fill-opacity="1"><g transform="translate(66.755632, 61.498452)"><g/></g></g><g fill="#ffffff" fill-opacity="1"><g transform="translate(69.19273, 61.498452)"><g><path d="M 0.453125 -3.375 L 2.5 -3.375 L 2.5 -3 L 0.859375 -3 L 0.859375 -1.875 L 2.46875 -1.875 L 2.46875 -1.5 L 0.859375 -1.5 L 0.859375 -0.375 L 2.515625 -0.375 L 2.515625 0 L 0.453125 0 Z M 0.453125 -3.375 "/></g></g></g><g fill="#ffffff" fill-opacity="1"><g transform="translate(71.624965, 61.498452)"><g><path d="M 0.671875 -3.375 L 1.421875 -1.875 L 1.515625 -1.875 L 2.265625 -3.375 L 2.71875 -3.375 L 1.875 -1.71875 L 1.875 -1.65625 L 2.71875 0 L 2.265625 0 L 1.515625 -1.5 L 1.421875 -1.5 L 0.671875 0 L 0.234375 0 L 1.078125 -1.65625 L 1.078125 -1.71875 L 0.234375 -3.375 Z M 0.671875 -3.375 "/></g></g></g><g fill="#ffffff" fill-opacity="1"><g transform="translate(74.0572, 61.498452)"><g><path d="M 0.453125 -3.375 L 2.5 -3.375 L 2.5 -3 L 0.859375 -3 L 0.859375 -1.875 L 2.46875 -1.875 L 2.46875 -1.5 L 0.859375 -1.5 L 0.859375 -0.375 L 2.515625 -0.375 L 2.515625 0 L 0.453125 0 Z M 0.453125 -3.375 "/></g></g></g><g fill="#ffffff" fill-opacity="1"><g transform="translate(76.489435, 61.498452)"><g><path d="M 2.53125 0 L 2.125 0 L 2.125 -1.125 C 2.125 -1.207031 2.101562 -1.269531 2.0625 -1.3125 C 2.019531 -1.363281 1.953125 -1.390625 1.859375 -1.390625 L 0.8125 -1.390625 L 0.8125 0 L 0.40625 0 L 0.40625 -3.375 L 1.609375 -3.375 C 1.785156 -3.375 1.9375 -3.347656 2.0625 -3.296875 C 2.1875 -3.242188 2.289062 -3.175781 2.375 -3.09375 C 2.46875 -3.007812 2.535156 -2.910156 2.578125 -2.796875 C 2.617188 -2.691406 2.640625 -2.578125 2.640625 -2.453125 L 2.640625 -2.3125 C 2.640625 -2.1875 2.601562 -2.0625 2.53125 -1.9375 C 2.46875 -1.8125 2.363281 -1.710938 2.21875 -1.640625 L 2.21875 -1.59375 C 2.3125 -1.570312 2.382812 -1.53125 2.4375 -1.46875 C 2.5 -1.40625 2.53125 -1.320312 2.53125 -1.21875 Z M 0.8125 -1.765625 L 1.5625 -1.765625 C 1.789062 -1.765625 1.957031 -1.8125 2.0625 -1.90625 C 2.175781 -2.007812 2.234375 -2.15625 2.234375 -2.34375 L 2.234375 -2.421875 C 2.234375 -2.597656 2.175781 -2.738281 2.0625 -2.84375 C 1.957031 -2.945312 1.789062 -3 1.5625 -3 L 0.8125 -3 Z M 0.8125 -1.765625 "/></g></g></g><g fill="#ffffff" fill-opacity="1"><g transform="translate(78.92167, 61.498452)"><g><path d="M 1.484375 -0.3125 C 1.628906 -0.3125 1.75 -0.332031 1.84375 -0.375 C 1.945312 -0.425781 2.03125 -0.488281 2.09375 -0.5625 C 2.15625 -0.644531 2.195312 -0.734375 2.21875 -0.828125 C 2.25 -0.929688 2.265625 -1.039062 2.265625 -1.15625 L 2.265625 -1.21875 L 2.671875 -1.21875 L 2.671875 -1.15625 C 2.671875 -0.988281 2.644531 -0.828125 2.59375 -0.671875 C 2.539062 -0.523438 2.460938 -0.394531 2.359375 -0.28125 C 2.265625 -0.175781 2.144531 -0.09375 2 -0.03125 C 1.851562 0.03125 1.679688 0.0625 1.484375 0.0625 C 1.117188 0.0625 0.832031 -0.0507812 0.625 -0.28125 C 0.414062 -0.519531 0.3125 -0.863281 0.3125 -1.3125 L 0.3125 -2.0625 C 0.3125 -2.5 0.414062 -2.835938 0.625 -3.078125 C 0.832031 -3.316406 1.117188 -3.4375 1.484375 -3.4375 C 1.679688 -3.4375 1.851562 -3.40625 2 -3.34375 C 2.144531 -3.28125 2.265625 -3.191406 2.359375 -3.078125 C 2.460938 -2.972656 2.539062 -2.84375 2.59375 -2.6875 C 2.644531 -2.539062 2.671875 -2.382812 2.671875 -2.21875 L 2.671875 -2.15625 L 2.265625 -2.15625 L 2.265625 -2.21875 C 2.265625 -2.320312 2.25 -2.425781 2.21875 -2.53125 C 2.1875 -2.632812 2.140625 -2.722656 2.078125 -2.796875 C 2.015625 -2.878906 1.9375 -2.941406 1.84375 -2.984375 C 1.75 -3.035156 1.628906 -3.0625 1.484375 -3.0625 C 1.234375 -3.0625 1.039062 -2.96875 0.90625 -2.78125 C 0.78125 -2.59375 0.71875 -2.34375 0.71875 -2.03125 L 0.71875 -1.34375 C 0.71875 -1.007812 0.78125 -0.753906 0.90625 -0.578125 C 1.039062 -0.398438 1.234375 -0.3125 1.484375 -0.3125 Z M 1.484375 -0.3125 "/></g></g></g><g fill="#ffffff" fill-opacity="1"><g transform="translate(81.353906, 61.498452)"><g><path d="M 0.40625 -3.375 L 2.546875 -3.375 L 2.546875 -3 L 1.671875 -3 L 1.671875 -0.375 L 2.546875 -0.375 L 2.546875 0 L 0.40625 0 L 0.40625 -0.375 L 1.265625 -0.375 L 1.265625 -3 L 0.40625 -3 Z M 0.40625 -3.375 "/></g></g></g><g fill="#ffffff" fill-opacity="1"><g transform="translate(83.78614, 61.498452)"><g><path d="M 2.265625 -2.390625 C 2.265625 -2.503906 2.242188 -2.601562 2.203125 -2.6875 C 2.160156 -2.769531 2.101562 -2.835938 2.03125 -2.890625 C 1.957031 -2.941406 1.867188 -2.984375 1.765625 -3.015625 C 1.671875 -3.046875 1.570312 -3.0625 1.46875 -3.0625 C 1.375 -3.0625 1.285156 -3.046875 1.203125 -3.015625 C 1.117188 -2.992188 1.039062 -2.960938 0.96875 -2.921875 C 0.90625 -2.878906 0.851562 -2.820312 0.8125 -2.75 C 0.78125 -2.6875 0.765625 -2.613281 0.765625 -2.53125 L 0.765625 -2.5 C 0.765625 -2.40625 0.78125 -2.320312 0.8125 -2.25 C 0.851562 -2.1875 0.910156 -2.128906 0.984375 -2.078125 C 1.066406 -2.035156 1.160156 -2 1.265625 -1.96875 C 1.378906 -1.945312 1.515625 -1.921875 1.671875 -1.890625 C 2.023438 -1.835938 2.285156 -1.734375 2.453125 -1.578125 C 2.617188 -1.429688 2.703125 -1.226562 2.703125 -0.96875 L 2.703125 -0.921875 C 2.703125 -0.773438 2.675781 -0.640625 2.625 -0.515625 C 2.570312 -0.398438 2.492188 -0.296875 2.390625 -0.203125 C 2.296875 -0.117188 2.175781 -0.0507812 2.03125 0 C 1.894531 0.0390625 1.734375 0.0625 1.546875 0.0625 C 1.328125 0.0625 1.132812 0.03125 0.96875 -0.03125 C 0.800781 -0.09375 0.660156 -0.175781 0.546875 -0.28125 C 0.441406 -0.394531 0.359375 -0.523438 0.296875 -0.671875 C 0.242188 -0.828125 0.21875 -0.992188 0.21875 -1.171875 L 0.21875 -1.3125 L 0.625 -1.3125 L 0.625 -1.1875 C 0.625 -0.894531 0.703125 -0.675781 0.859375 -0.53125 C 1.023438 -0.382812 1.253906 -0.3125 1.546875 -0.3125 C 1.796875 -0.3125 1.984375 -0.363281 2.109375 -0.46875 C 2.234375 -0.582031 2.296875 -0.734375 2.296875 -0.921875 L 2.296875 -0.9375 C 2.296875 -1.113281 2.226562 -1.25 2.09375 -1.34375 C 1.96875 -1.4375 1.757812 -1.503906 1.46875 -1.546875 C 1.300781 -1.566406 1.144531 -1.597656 1 -1.640625 C 0.863281 -1.691406 0.75 -1.753906 0.65625 -1.828125 C 0.5625 -1.910156 0.488281 -2.003906 0.4375 -2.109375 C 0.382812 -2.210938 0.359375 -2.335938 0.359375 -2.484375 L 0.359375 -2.546875 C 0.359375 -2.671875 0.382812 -2.785156 0.4375 -2.890625 C 0.5 -3.003906 0.578125 -3.101562 0.671875 -3.1875 C 0.765625 -3.269531 0.878906 -3.332031 1.015625 -3.375 C 1.160156 -3.414062 1.3125 -3.4375 1.46875 -3.4375 C 1.65625 -3.4375 1.820312 -3.40625 1.96875 -3.34375 C 2.125 -3.289062 2.253906 -3.21875 2.359375 -3.125 C 2.460938 -3.039062 2.539062 -2.9375 2.59375 -2.8125 C 2.644531 -2.6875 2.671875 -2.554688 2.671875 -2.421875 L 2.671875 -2.21875 L 2.265625 -2.21875 Z M 2.265625 -2.390625 "/></g></g></g><g fill="#ffffff" fill-opacity="1"><g transform="translate(86.218375, 61.498452)"><g><path d="M 0.453125 -3.375 L 2.5 -3.375 L 2.5 -3 L 0.859375 -3 L 0.859375 -1.875 L 2.46875 -1.875 L 2.46875 -1.5 L 0.859375 -1.5 L 0.859375 -0.375 L 2.515625 -0.375 L 2.515625 0 L 0.453125 0 Z M 0.453125 -3.375 "/></g></g></g><g fill="#ffffff" fill-opacity="1"><g transform="translate(88.650611, 61.498452)"><g/></g></g><g fill="#ffffff" fill-opacity="1"><g transform="translate(91.082846, 61.498452)"><g><path d="M 0.8125 -1.390625 L 0.8125 0 L 0.40625 0 L 0.40625 -3.375 L 1.609375 -3.375 C 1.785156 -3.375 1.9375 -3.347656 2.0625 -3.296875 C 2.1875 -3.242188 2.289062 -3.175781 2.375 -3.09375 C 2.46875 -3.007812 2.535156 -2.910156 2.578125 -2.796875 C 2.617188 -2.691406 2.640625 -2.578125 2.640625 -2.453125 L 2.640625 -2.3125 C 2.640625 -2.1875 2.617188 -2.066406 2.578125 -1.953125 C 2.535156 -1.847656 2.46875 -1.75 2.375 -1.65625 C 2.289062 -1.570312 2.1875 -1.503906 2.0625 -1.453125 C 1.9375 -1.410156 1.785156 -1.390625 1.609375 -1.390625 Z M 0.8125 -1.765625 L 1.5625 -1.765625 C 2.007812 -1.765625 2.234375 -1.957031 2.234375 -2.34375 L 2.234375 -2.421875 C 2.234375 -2.597656 2.175781 -2.738281 2.0625 -2.84375 C 1.957031 -2.945312 1.789062 -3 1.5625 -3 L 0.8125 -3 Z M 0.8125 -1.765625 "/></g></g></g><g fill="#ffffff" fill-opacity="1"><g transform="translate(93.515081, 61.498452)"><g><path d="M 0.34375 -3.375 L 0.75 -3.375 L 0.75 -1.875 L 2.1875 -1.875 L 2.1875 -3.375 L 2.59375 -3.375 L 2.59375 0 L 2.1875 0 L 2.1875 -1.5 L 0.75 -1.5 L 0.75 0 L 0.34375 0 Z M 0.34375 -3.375 "/></g></g></g><g fill="#ffffff" fill-opacity="1"><g transform="translate(95.947317, 61.498452)"><g><path d="M 1.265625 -1.1875 L 1.1875 -1.1875 L 0.125 -3.375 L 0.578125 -3.375 L 1.4375 -1.53125 L 1.5 -1.53125 L 2.359375 -3.375 L 2.8125 -3.375 L 1.765625 -1.1875 L 1.671875 -1.1875 L 1.671875 0 L 1.265625 0 Z M 1.265625 -1.1875 "/></g></g></g><g fill="#ffffff" fill-opacity="1"><g transform="translate(98.37955, 61.498452)"><g><path d="M 2.265625 -2.390625 C 2.265625 -2.503906 2.242188 -2.601562 2.203125 -2.6875 C 2.160156 -2.769531 2.101562 -2.835938 2.03125 -2.890625 C 1.957031 -2.941406 1.867188 -2.984375 1.765625 -3.015625 C 1.671875 -3.046875 1.570312 -3.0625 1.46875 -3.0625 C 1.375 -3.0625 1.285156 -3.046875 1.203125 -3.015625 C 1.117188 -2.992188 1.039062 -2.960938 0.96875 -2.921875 C 0.90625 -2.878906 0.851562 -2.820312 0.8125 -2.75 C 0.78125 -2.6875 0.765625 -2.613281 0.765625 -2.53125 L 0.765625 -2.5 C 0.765625 -2.40625 0.78125 -2.320312 0.8125 -2.25 C 0.851562 -2.1875 0.910156 -2.128906 0.984375 -2.078125 C 1.066406 -2.035156 1.160156 -2 1.265625 -1.96875 C 1.378906 -1.945312 1.515625 -1.921875 1.671875 -1.890625 C 2.023438 -1.835938 2.285156 -1.734375 2.453125 -1.578125 C 2.617188 -1.429688 2.703125 -1.226562 2.703125 -0.96875 L 2.703125 -0.921875 C 2.703125 -0.773438 2.675781 -0.640625 2.625 -0.515625 C 2.570312 -0.398438 2.492188 -0.296875 2.390625 -0.203125 C 2.296875 -0.117188 2.175781 -0.0507812 2.03125 0 C 1.894531 0.0390625 1.734375 0.0625 1.546875 0.0625 C 1.328125 0.0625 1.132812 0.03125 0.96875 -0.03125 C 0.800781 -0.09375 0.660156 -0.175781 0.546875 -0.28125 C 0.441406 -0.394531 0.359375 -0.523438 0.296875 -0.671875 C 0.242188 -0.828125 0.21875 -0.992188 0.21875 -1.171875 L 0.21875 -1.3125 L 0.625 -1.3125 L 0.625 -1.1875 C 0.625 -0.894531 0.703125 -0.675781 0.859375 -0.53125 C 1.023438 -0.382812 1.253906 -0.3125 1.546875 -0.3125 C 1.796875 -0.3125 1.984375 -0.363281 2.109375 -0.46875 C 2.234375 -0.582031 2.296875 -0.734375 2.296875 -0.921875 L 2.296875 -0.9375 C 2.296875 -1.113281 2.226562 -1.25 2.09375 -1.34375 C 1.96875 -1.4375 1.757812 -1.503906 1.46875 -1.546875 C 1.300781 -1.566406 1.144531 -1.597656 1 -1.640625 C 0.863281 -1.691406 0.75 -1.753906 0.65625 -1.828125 C 0.5625 -1.910156 0.488281 -2.003906 0.4375 -2.109375 C 0.382812 -2.210938 0.359375 -2.335938 0.359375 -2.484375 L 0.359375 -2.546875 C 0.359375 -2.671875 0.382812 -2.785156 0.4375 -2.890625 C 0.5 -3.003906 0.578125 -3.101562 0.671875 -3.1875 C 0.765625 -3.269531 0.878906 -3.332031 1.015625 -3.375 C 1.160156 -3.414062 1.3125 -3.4375 1.46875 -3.4375 C 1.65625 -3.4375 1.820312 -3.40625 1.96875 -3.34375 C 2.125 -3.289062 2.253906 -3.21875 2.359375 -3.125 C 2.460938 -3.039062 2.539062 -2.9375 2.59375 -2.8125 C 2.644531 -2.6875 2.671875 -2.554688 2.671875 -2.421875 L 2.671875 -2.21875 L 2.265625 -2.21875 Z M 2.265625 -2.390625 "/></g></g></g><g fill="#ffffff" fill-opacity="1"><g transform="translate(100.811784, 61.498452)"><g><path d="M 0.40625 -3.375 L 2.546875 -3.375 L 2.546875 -3 L 1.671875 -3 L 1.671875 -0.375 L 2.546875 -0.375 L 2.546875 0 L 0.40625 0 L 0.40625 -0.375 L 1.265625 -0.375 L 1.265625 -3 L 0.40625 -3 Z M 0.40625 -3.375 "/></g></g></g><g fill="#ffffff" fill-opacity="1"><g transform="translate(103.244018, 61.498452)"><g><path d="M 0.28125 -2.0625 C 0.28125 -2.5 0.382812 -2.835938 0.59375 -3.078125 C 0.8125 -3.316406 1.101562 -3.4375 1.46875 -3.4375 C 1.84375 -3.4375 2.132812 -3.316406 2.34375 -3.078125 C 2.550781 -2.835938 2.65625 -2.5 2.65625 -2.0625 L 2.65625 -1.3125 C 2.65625 -0.863281 2.550781 -0.519531 2.34375 -0.28125 C 2.132812 -0.0507812 1.84375 0.0625 1.46875 0.0625 C 1.101562 0.0625 0.8125 -0.0507812 0.59375 -0.28125 C 0.382812 -0.519531 0.28125 -0.863281 0.28125 -1.3125 Z M 1.46875 -0.3125 C 1.726562 -0.3125 1.921875 -0.398438 2.046875 -0.578125 C 2.179688 -0.753906 2.25 -1.007812 2.25 -1.34375 L 2.25 -2.03125 C 2.25 -2.34375 2.179688 -2.59375 2.046875 -2.78125 C 1.921875 -2.96875 1.726562 -3.0625 1.46875 -3.0625 C 1.207031 -3.0625 1.007812 -2.96875 0.875 -2.78125 C 0.75 -2.59375 0.6875 -2.34375 0.6875 -2.03125 L 0.6875 -1.34375 C 0.6875 -1.007812 0.75 -0.753906 0.875 -0.578125 C 1.007812 -0.398438 1.207031 -0.3125 1.46875 -0.3125 Z M 1.46875 -0.3125 "/></g></g></g><g fill="#ffffff" fill-opacity="1"><g transform="translate(105.676252, 61.498452)"><g><path d="M 0.421875 -3.375 L 0.828125 -3.375 L 0.828125 -0.375 L 2.578125 -0.375 L 2.578125 0 L 0.421875 0 Z M 0.421875 -3.375 "/></g></g></g><g fill="#ffffff" fill-opacity="1"><g transform="translate(108.108485, 61.498452)"><g><path d="M 0.28125 -2.0625 C 0.28125 -2.5 0.382812 -2.835938 0.59375 -3.078125 C 0.8125 -3.316406 1.101562 -3.4375 1.46875 -3.4375 C 1.84375 -3.4375 2.132812 -3.316406 2.34375 -3.078125 C 2.550781 -2.835938 2.65625 -2.5 2.65625 -2.0625 L 2.65625 -1.3125 C 2.65625 -0.863281 2.550781 -0.519531 2.34375 -0.28125 C 2.132812 -0.0507812 1.84375 0.0625 1.46875 0.0625 C 1.101562 0.0625 0.8125 -0.0507812 0.59375 -0.28125 C 0.382812 -0.519531 0.28125 -0.863281 0.28125 -1.3125 Z M 1.46875 -0.3125 C 1.726562 -0.3125 1.921875 -0.398438 2.046875 -0.578125 C 2.179688 -0.753906 2.25 -1.007812 2.25 -1.34375 L 2.25 -2.03125 C 2.25 -2.34375 2.179688 -2.59375 2.046875 -2.78125 C 1.921875 -2.96875 1.726562 -3.0625 1.46875 -3.0625 C 1.207031 -3.0625 1.007812 -2.96875 0.875 -2.78125 C 0.75 -2.59375 0.6875 -2.34375 0.6875 -2.03125 L 0.6875 -1.34375 C 0.6875 -1.007812 0.75 -0.753906 0.875 -0.578125 C 1.007812 -0.398438 1.207031 -0.3125 1.46875 -0.3125 Z M 1.46875 -0.3125 "/></g></g></g><g fill="#ffffff" fill-opacity="1"><g transform="translate(110.540719, 61.498452)"><g><path d="M 1.15625 -1.609375 L 2.65625 -1.609375 L 2.65625 0 L 2.28125 0 L 2.28125 -0.40625 L 2.21875 -0.40625 C 2.164062 -0.257812 2.066406 -0.144531 1.921875 -0.0625 C 1.785156 0.0195312 1.628906 0.0625 1.453125 0.0625 C 1.085938 0.0625 0.800781 -0.0507812 0.59375 -0.28125 C 0.382812 -0.519531 0.28125 -0.863281 0.28125 -1.3125 L 0.28125 -2.0625 C 0.28125 -2.5 0.382812 -2.835938 0.59375 -3.078125 C 0.800781 -3.316406 1.09375 -3.4375 1.46875 -3.4375 C 1.65625 -3.4375 1.820312 -3.40625 1.96875 -3.34375 C 2.125 -3.28125 2.25 -3.191406 2.34375 -3.078125 C 2.445312 -2.972656 2.523438 -2.84375 2.578125 -2.6875 C 2.628906 -2.539062 2.65625 -2.382812 2.65625 -2.21875 L 2.65625 -2.15625 L 2.25 -2.15625 L 2.25 -2.21875 C 2.25 -2.320312 2.234375 -2.425781 2.203125 -2.53125 C 2.171875 -2.632812 2.125 -2.722656 2.0625 -2.796875 C 2 -2.878906 1.914062 -2.941406 1.8125 -2.984375 C 1.71875 -3.035156 1.601562 -3.0625 1.46875 -3.0625 C 1.207031 -3.0625 1.007812 -2.96875 0.875 -2.78125 C 0.75 -2.59375 0.6875 -2.34375 0.6875 -2.03125 L 0.6875 -1.34375 C 0.6875 -1.007812 0.75 -0.753906 0.875 -0.578125 C 1.007812 -0.398438 1.210938 -0.3125 1.484375 -0.3125 C 1.722656 -0.3125 1.910156 -0.382812 2.046875 -0.53125 C 2.179688 -0.6875 2.25 -0.90625 2.25 -1.1875 L 2.25 -1.234375 L 1.15625 -1.234375 Z M 1.15625 -1.609375 "/></g></g></g><g fill="#ffffff" fill-opacity="1"><g transform="translate(112.972953, 61.498452)"><g><path d="M 1.265625 -1.1875 L 1.1875 -1.1875 L 0.125 -3.375 L 0.578125 -3.375 L 1.4375 -1.53125 L 1.5 -1.53125 L 2.359375 -3.375 L 2.8125 -3.375 L 1.765625 -1.1875 L 1.671875 -1.1875 L 1.671875 0 L 1.265625 0 Z M 1.265625 -1.1875 "/></g></g></g><g fill="#ffffff" fill-opacity="1"><g transform="translate(115.407582, 61.498452)"><g/></g></g><g fill="#ffffff" fill-opacity="1"><g transform="translate(117.839817, 61.498452)"><g/></g></g><g fill="#ffffff" fill-opacity="1"><g transform="translate(120.276914, 61.498452)"><g><path d="M 0.90625 -1.6875 C 0.90625 -1.757812 0.921875 -1.828125 0.953125 -1.890625 C 0.984375 -1.960938 1.023438 -2.023438 1.078125 -2.078125 C 1.128906 -2.128906 1.1875 -2.171875 1.25 -2.203125 C 1.320312 -2.234375 1.394531 -2.25 1.46875 -2.25 C 1.550781 -2.25 1.625 -2.234375 1.6875 -2.203125 C 1.757812 -2.171875 1.820312 -2.128906 1.875 -2.078125 C 1.925781 -2.023438 1.96875 -1.960938 2 -1.890625 C 2.03125 -1.828125 2.046875 -1.757812 2.046875 -1.6875 C 2.046875 -1.601562 2.03125 -1.523438 2 -1.453125 C 1.96875 -1.390625 1.925781 -1.332031 1.875 -1.28125 C 1.820312 -1.226562 1.757812 -1.1875 1.6875 -1.15625 C 1.625 -1.125 1.550781 -1.109375 1.46875 -1.109375 C 1.394531 -1.109375 1.320312 -1.125 1.25 -1.15625 C 1.1875 -1.1875 1.128906 -1.226562 1.078125 -1.28125 C 1.023438 -1.332031 0.984375 -1.390625 0.953125 -1.453125 C 0.921875 -1.523438 0.90625 -1.601562 0.90625 -1.6875 Z M 0.90625 -1.6875 "/></g></g></g><g fill="#ffffff" fill-opacity="1"><g transform="translate(122.711579, 61.498452)"><g/></g></g><g fill="#ffffff" fill-opacity="1"><g transform="translate(125.143814, 61.498452)"><g/></g></g><g fill="#ffffff" fill-opacity="1"><g transform="translate(127.580911, 61.498452)"><g><path d="M 2.4375 -1.015625 C 2.4375 -0.660156 2.347656 -0.390625 2.171875 -0.203125 C 2.003906 -0.0234375 1.753906 0.0625 1.421875 0.0625 C 1.085938 0.0625 0.820312 -0.0234375 0.625 -0.203125 C 0.4375 -0.390625 0.34375 -0.660156 0.34375 -1.015625 L 0.34375 -1.265625 L 0.75 -1.265625 L 0.75 -1.015625 C 0.75 -0.796875 0.800781 -0.625 0.90625 -0.5 C 1.019531 -0.375 1.191406 -0.3125 1.421875 -0.3125 C 1.640625 -0.3125 1.796875 -0.375 1.890625 -0.5 C 1.984375 -0.625 2.03125 -0.796875 2.03125 -1.015625 L 2.03125 -3 L 1.671875 -3 L 1.671875 -3.375 L 2.71875 -3.375 L 2.71875 -3 L 2.4375 -3 Z M 2.4375 -1.015625 "/></g></g></g><g fill="#ffffff" fill-opacity="1"><g transform="translate(130.013147, 61.498452)"><g><path d="M 0.71875 -3.375 L 0.71875 -1.140625 C 0.71875 -0.867188 0.78125 -0.660156 0.90625 -0.515625 C 1.039062 -0.378906 1.226562 -0.3125 1.46875 -0.3125 C 1.71875 -0.3125 1.90625 -0.378906 2.03125 -0.515625 C 2.15625 -0.660156 2.21875 -0.867188 2.21875 -1.140625 L 2.21875 -3.375 L 2.625 -3.375 L 2.625 -1.140625 C 2.625 -0.742188 2.519531 -0.441406 2.3125 -0.234375 C 2.113281 -0.0351562 1.832031 0.0625 1.46875 0.0625 C 1.113281 0.0625 0.832031 -0.0351562 0.625 -0.234375 C 0.414062 -0.441406 0.3125 -0.742188 0.3125 -1.140625 L 0.3125 -3.375 Z M 0.71875 -3.375 "/></g></g></g><g fill="#ffffff" fill-opacity="1"><g transform="translate(132.445382, 61.498452)"><g><path d="M 2.265625 -2.390625 C 2.265625 -2.503906 2.242188 -2.601562 2.203125 -2.6875 C 2.160156 -2.769531 2.101562 -2.835938 2.03125 -2.890625 C 1.957031 -2.941406 1.867188 -2.984375 1.765625 -3.015625 C 1.671875 -3.046875 1.570312 -3.0625 1.46875 -3.0625 C 1.375 -3.0625 1.285156 -3.046875 1.203125 -3.015625 C 1.117188 -2.992188 1.039062 -2.960938 0.96875 -2.921875 C 0.90625 -2.878906 0.851562 -2.820312 0.8125 -2.75 C 0.78125 -2.6875 0.765625 -2.613281 0.765625 -2.53125 L 0.765625 -2.5 C 0.765625 -2.40625 0.78125 -2.320312 0.8125 -2.25 C 0.851562 -2.1875 0.910156 -2.128906 0.984375 -2.078125 C 1.066406 -2.035156 1.160156 -2 1.265625 -1.96875 C 1.378906 -1.945312 1.515625 -1.921875 1.671875 -1.890625 C 2.023438 -1.835938 2.285156 -1.734375 2.453125 -1.578125 C 2.617188 -1.429688 2.703125 -1.226562 2.703125 -0.96875 L 2.703125 -0.921875 C 2.703125 -0.773438 2.675781 -0.640625 2.625 -0.515625 C 2.570312 -0.398438 2.492188 -0.296875 2.390625 -0.203125 C 2.296875 -0.117188 2.175781 -0.0507812 2.03125 0 C 1.894531 0.0390625 1.734375 0.0625 1.546875 0.0625 C 1.328125 0.0625 1.132812 0.03125 0.96875 -0.03125 C 0.800781 -0.09375 0.660156 -0.175781 0.546875 -0.28125 C 0.441406 -0.394531 0.359375 -0.523438 0.296875 -0.671875 C 0.242188 -0.828125 0.21875 -0.992188 0.21875 -1.171875 L 0.21875 -1.3125 L 0.625 -1.3125 L 0.625 -1.1875 C 0.625 -0.894531 0.703125 -0.675781 0.859375 -0.53125 C 1.023438 -0.382812 1.253906 -0.3125 1.546875 -0.3125 C 1.796875 -0.3125 1.984375 -0.363281 2.109375 -0.46875 C 2.234375 -0.582031 2.296875 -0.734375 2.296875 -0.921875 L 2.296875 -0.9375 C 2.296875 -1.113281 2.226562 -1.25 2.09375 -1.34375 C 1.96875 -1.4375 1.757812 -1.503906 1.46875 -1.546875 C 1.300781 -1.566406 1.144531 -1.597656 1 -1.640625 C 0.863281 -1.691406 0.75 -1.753906 0.65625 -1.828125 C 0.5625 -1.910156 0.488281 -2.003906 0.4375 -2.109375 C 0.382812 -2.210938 0.359375 -2.335938 0.359375 -2.484375 L 0.359375 -2.546875 C 0.359375 -2.671875 0.382812 -2.785156 0.4375 -2.890625 C 0.5 -3.003906 0.578125 -3.101562 0.671875 -3.1875 C 0.765625 -3.269531 0.878906 -3.332031 1.015625 -3.375 C 1.160156 -3.414062 1.3125 -3.4375 1.46875 -3.4375 C 1.65625 -3.4375 1.820312 -3.40625 1.96875 -3.34375 C 2.125 -3.289062 2.253906 -3.21875 2.359375 -3.125 C 2.460938 -3.039062 2.539062 -2.9375 2.59375 -2.8125 C 2.644531 -2.6875 2.671875 -2.554688 2.671875 -2.421875 L 2.671875 -2.21875 L 2.265625 -2.21875 Z M 2.265625 -2.390625 "/></g></g></g><g fill="#ffffff" fill-opacity="1"><g transform="translate(134.877617, 61.498452)"><g><path d="M 0.28125 -3.375 L 2.65625 -3.375 L 2.65625 -3 L 1.671875 -3 L 1.671875 0 L 1.265625 0 L 1.265625 -3 L 0.28125 -3 Z M 0.28125 -3.375 "/></g></g></g><g fill="#ffffff" fill-opacity="1"><g transform="translate(137.309852, 61.498452)"><g><path d="M 0.71875 -3.375 L 0.71875 -1.140625 C 0.71875 -0.867188 0.78125 -0.660156 0.90625 -0.515625 C 1.039062 -0.378906 1.226562 -0.3125 1.46875 -0.3125 C 1.71875 -0.3125 1.90625 -0.378906 2.03125 -0.515625 C 2.15625 -0.660156 2.21875 -0.867188 2.21875 -1.140625 L 2.21875 -3.375 L 2.625 -3.375 L 2.625 -1.140625 C 2.625 -0.742188 2.519531 -0.441406 2.3125 -0.234375 C 2.113281 -0.0351562 1.832031 0.0625 1.46875 0.0625 C 1.113281 0.0625 0.832031 -0.0351562 0.625 -0.234375 C 0.414062 -0.441406 0.3125 -0.742188 0.3125 -1.140625 L 0.3125 -3.375 Z M 0.71875 -3.375 "/></g></g></g><g fill="#ffffff" fill-opacity="1"><g transform="translate(139.742087, 61.498452)"><g><path d="M 2.265625 -2.390625 C 2.265625 -2.503906 2.242188 -2.601562 2.203125 -2.6875 C 2.160156 -2.769531 2.101562 -2.835938 2.03125 -2.890625 C 1.957031 -2.941406 1.867188 -2.984375 1.765625 -3.015625 C 1.671875 -3.046875 1.570312 -3.0625 1.46875 -3.0625 C 1.375 -3.0625 1.285156 -3.046875 1.203125 -3.015625 C 1.117188 -2.992188 1.039062 -2.960938 0.96875 -2.921875 C 0.90625 -2.878906 0.851562 -2.820312 0.8125 -2.75 C 0.78125 -2.6875 0.765625 -2.613281 0.765625 -2.53125 L 0.765625 -2.5 C 0.765625 -2.40625 0.78125 -2.320312 0.8125 -2.25 C 0.851562 -2.1875 0.910156 -2.128906 0.984375 -2.078125 C 1.066406 -2.035156 1.160156 -2 1.265625 -1.96875 C 1.378906 -1.945312 1.515625 -1.921875 1.671875 -1.890625 C 2.023438 -1.835938 2.285156 -1.734375 2.453125 -1.578125 C 2.617188 -1.429688 2.703125 -1.226562 2.703125 -0.96875 L 2.703125 -0.921875 C 2.703125 -0.773438 2.675781 -0.640625 2.625 -0.515625 C 2.570312 -0.398438 2.492188 -0.296875 2.390625 -0.203125 C 2.296875 -0.117188 2.175781 -0.0507812 2.03125 0 C 1.894531 0.0390625 1.734375 0.0625 1.546875 0.0625 C 1.328125 0.0625 1.132812 0.03125 0.96875 -0.03125 C 0.800781 -0.09375 0.660156 -0.175781 0.546875 -0.28125 C 0.441406 -0.394531 0.359375 -0.523438 0.296875 -0.671875 C 0.242188 -0.828125 0.21875 -0.992188 0.21875 -1.171875 L 0.21875 -1.3125 L 0.625 -1.3125 L 0.625 -1.1875 C 0.625 -0.894531 0.703125 -0.675781 0.859375 -0.53125 C 1.023438 -0.382812 1.253906 -0.3125 1.546875 -0.3125 C 1.796875 -0.3125 1.984375 -0.363281 2.109375 -0.46875 C 2.234375 -0.582031 2.296875 -0.734375 2.296875 -0.921875 L 2.296875 -0.9375 C 2.296875 -1.113281 2.226562 -1.25 2.09375 -1.34375 C 1.96875 -1.4375 1.757812 -1.503906 1.46875 -1.546875 C 1.300781 -1.566406 1.144531 -1.597656 1 -1.640625 C 0.863281 -1.691406 0.75 -1.753906 0.65625 -1.828125 C 0.5625 -1.910156 0.488281 -2.003906 0.4375 -2.109375 C 0.382812 -2.210938 0.359375 -2.335938 0.359375 -2.484375 L 0.359375 -2.546875 C 0.359375 -2.671875 0.382812 -2.785156 0.4375 -2.890625 C 0.5 -3.003906 0.578125 -3.101562 0.671875 -3.1875 C 0.765625 -3.269531 0.878906 -3.332031 1.015625 -3.375 C 1.160156 -3.414062 1.3125 -3.4375 1.46875 -3.4375 C 1.65625 -3.4375 1.820312 -3.40625 1.96875 -3.34375 C 2.125 -3.289062 2.253906 -3.21875 2.359375 -3.125 C 2.460938 -3.039062 2.539062 -2.9375 2.59375 -2.8125 C 2.644531 -2.6875 2.671875 -2.554688 2.671875 -2.421875 L 2.671875 -2.21875 L 2.265625 -2.21875 Z M 2.265625 -2.390625 "/></g></g></g><g fill="#ffffff" fill-opacity="1"><g transform="translate(142.174322, 61.498452)"><g/></g></g><g fill="#ffffff" fill-opacity="1"><g transform="translate(144.606557, 61.498452)"><g><path d="M 0.421875 -3.375 L 0.828125 -3.375 L 0.828125 -0.375 L 2.578125 -0.375 L 2.578125 0 L 0.421875 0 Z M 0.421875 -3.375 "/></g></g></g><g fill="#ffffff" fill-opacity="1"><g transform="translate(147.038792, 61.498452)"><g><path d="M 0.40625 -3.375 L 2.546875 -3.375 L 2.546875 -3 L 1.671875 -3 L 1.671875 -0.375 L 2.546875 -0.375 L 2.546875 0 L 0.40625 0 L 0.40625 -0.375 L 1.265625 -0.375 L 1.265625 -3 L 0.40625 -3 Z M 0.40625 -3.375 "/></g></g></g><g fill="#ffffff" fill-opacity="1"><g transform="translate(149.471027, 61.498452)"><g><path d="M 0.453125 -3.375 L 2.5 -3.375 L 2.5 -3 L 0.859375 -3 L 0.859375 -1.875 L 2.46875 -1.875 L 2.46875 -1.5 L 0.859375 -1.5 L 0.859375 -0.375 L 2.515625 -0.375 L 2.515625 0 L 0.453125 0 Z M 0.453125 -3.375 "/></g></g></g><g fill="#ffffff" fill-opacity="1"><g transform="translate(151.903263, 61.498452)"><g><path d="M 0.28125 -0.375 L 0.5625 -0.375 L 0.5625 -3 L 0.28125 -3 L 0.28125 -3.375 L 1.640625 -3.375 C 1.796875 -3.375 1.9375 -3.347656 2.0625 -3.296875 C 2.1875 -3.253906 2.289062 -3.191406 2.375 -3.109375 C 2.457031 -3.035156 2.519531 -2.945312 2.5625 -2.84375 C 2.601562 -2.738281 2.625 -2.625 2.625 -2.5 L 2.625 -2.4375 C 2.625 -2.34375 2.609375 -2.253906 2.578125 -2.171875 C 2.554688 -2.097656 2.519531 -2.03125 2.46875 -1.96875 C 2.414062 -1.90625 2.351562 -1.851562 2.28125 -1.8125 C 2.21875 -1.769531 2.144531 -1.738281 2.0625 -1.71875 L 2.0625 -1.65625 C 2.226562 -1.613281 2.363281 -1.53125 2.46875 -1.40625 C 2.570312 -1.28125 2.625 -1.125 2.625 -0.9375 L 2.625 -0.875 C 2.625 -0.75 2.601562 -0.632812 2.5625 -0.53125 C 2.519531 -0.425781 2.457031 -0.332031 2.375 -0.25 C 2.289062 -0.175781 2.1875 -0.113281 2.0625 -0.0625 C 1.9375 -0.0195312 1.796875 0 1.640625 0 L 0.28125 0 Z M 0.96875 -0.375 L 1.609375 -0.375 C 1.796875 -0.375 1.945312 -0.421875 2.0625 -0.515625 C 2.1875 -0.609375 2.25 -0.738281 2.25 -0.90625 L 2.25 -0.9375 C 2.25 -1.113281 2.191406 -1.25 2.078125 -1.34375 C 1.960938 -1.445312 1.8125 -1.5 1.625 -1.5 L 0.96875 -1.5 Z M 0.96875 -1.875 L 1.625 -1.875 C 1.8125 -1.875 1.960938 -1.921875 2.078125 -2.015625 C 2.191406 -2.117188 2.25 -2.257812 2.25 -2.4375 L 2.25 -2.46875 C 2.25 -2.625 2.1875 -2.75 2.0625 -2.84375 C 1.945312 -2.945312 1.796875 -3 1.609375 -3 L 0.96875 -3 Z M 0.96875 -1.875 "/></g></g></g><g fill="#ffffff" fill-opacity="1"><g transform="translate(154.335498, 61.498452)"><g><path d="M 0.40625 -3.375 L 2.546875 -3.375 L 2.546875 -3 L 1.671875 -3 L 1.671875 -0.375 L 2.546875 -0.375 L 2.546875 0 L 0.40625 0 L 0.40625 -0.375 L 1.265625 -0.375 L 1.265625 -3 L 0.40625 -3 Z M 0.40625 -3.375 "/></g></g></g><g fill="#ffffff" fill-opacity="1"><g transform="translate(156.767732, 61.498452)"><g><path d="M 1.15625 -1.609375 L 2.65625 -1.609375 L 2.65625 0 L 2.28125 0 L 2.28125 -0.40625 L 2.21875 -0.40625 C 2.164062 -0.257812 2.066406 -0.144531 1.921875 -0.0625 C 1.785156 0.0195312 1.628906 0.0625 1.453125 0.0625 C 1.085938 0.0625 0.800781 -0.0507812 0.59375 -0.28125 C 0.382812 -0.519531 0.28125 -0.863281 0.28125 -1.3125 L 0.28125 -2.0625 C 0.28125 -2.5 0.382812 -2.835938 0.59375 -3.078125 C 0.800781 -3.316406 1.09375 -3.4375 1.46875 -3.4375 C 1.65625 -3.4375 1.820312 -3.40625 1.96875 -3.34375 C 2.125 -3.28125 2.25 -3.191406 2.34375 -3.078125 C 2.445312 -2.972656 2.523438 -2.84375 2.578125 -2.6875 C 2.628906 -2.539062 2.65625 -2.382812 2.65625 -2.21875 L 2.65625 -2.15625 L 2.25 -2.15625 L 2.25 -2.21875 C 2.25 -2.320312 2.234375 -2.425781 2.203125 -2.53125 C 2.171875 -2.632812 2.125 -2.722656 2.0625 -2.796875 C 2 -2.878906 1.914062 -2.941406 1.8125 -2.984375 C 1.71875 -3.035156 1.601562 -3.0625 1.46875 -3.0625 C 1.207031 -3.0625 1.007812 -2.96875 0.875 -2.78125 C 0.75 -2.59375 0.6875 -2.34375 0.6875 -2.03125 L 0.6875 -1.34375 C 0.6875 -1.007812 0.75 -0.753906 0.875 -0.578125 C 1.007812 -0.398438 1.210938 -0.3125 1.484375 -0.3125 C 1.722656 -0.3125 1.910156 -0.382812 2.046875 -0.53125 C 2.179688 -0.6875 2.25 -0.90625 2.25 -1.1875 L 2.25 -1.234375 L 1.15625 -1.234375 Z M 1.15625 -1.609375 "/></g></g></g><g fill="#ffffff" fill-opacity="1"><g transform="translate(159.199966, 61.498452)"><g/></g></g><g fill="#ffffff" fill-opacity="1"><g transform="translate(161.632199, 61.498452)"><g><path d="M 0.71875 -3.375 L 0.71875 -1.140625 C 0.71875 -0.867188 0.78125 -0.660156 0.90625 -0.515625 C 1.039062 -0.378906 1.226562 -0.3125 1.46875 -0.3125 C 1.71875 -0.3125 1.90625 -0.378906 2.03125 -0.515625 C 2.15625 -0.660156 2.21875 -0.867188 2.21875 -1.140625 L 2.21875 -3.375 L 2.625 -3.375 L 2.625 -1.140625 C 2.625 -0.742188 2.519531 -0.441406 2.3125 -0.234375 C 2.113281 -0.0351562 1.832031 0.0625 1.46875 0.0625 C 1.113281 0.0625 0.832031 -0.0351562 0.625 -0.234375 C 0.414062 -0.441406 0.3125 -0.742188 0.3125 -1.140625 L 0.3125 -3.375 Z M 0.71875 -3.375 "/></g></g></g><g fill="#ffffff" fill-opacity="1"><g transform="translate(164.064433, 61.498452)"><g><path d="M 2.125 -0.171875 L 2.1875 -0.171875 L 2.1875 -3.375 L 2.59375 -3.375 L 2.59375 0 L 1.78125 0 L 0.8125 -3.203125 L 0.75 -3.203125 L 0.75 0 L 0.34375 0 L 0.34375 -3.375 L 1.15625 -3.375 Z M 2.125 -0.171875 "/></g></g></g><g fill="#ffffff" fill-opacity="1"><g transform="translate(166.496667, 61.498452)"><g><path d="M 0.40625 -3.375 L 2.546875 -3.375 L 2.546875 -3 L 1.671875 -3 L 1.671875 -0.375 L 2.546875 -0.375 L 2.546875 0 L 0.40625 0 L 0.40625 -0.375 L 1.265625 -0.375 L 1.265625 -3 L 0.40625 -3 Z M 0.40625 -3.375 "/></g></g></g><g fill="#ffffff" fill-opacity="1"><g transform="translate(168.928901, 61.498452)"><g><path d="M 0.125 -3.375 L 0.5625 -3.375 L 1.4375 -0.171875 L 1.5 -0.171875 L 2.375 -3.375 L 2.8125 -3.375 L 1.859375 0 L 1.078125 0 Z M 0.125 -3.375 "/></g></g></g><g fill="#ffffff" fill-opacity="1"><g transform="translate(171.361134, 61.498452)"><g><path d="M 0.453125 -3.375 L 2.5 -3.375 L 2.5 -3 L 0.859375 -3 L 0.859375 -1.875 L 2.46875 -1.875 L 2.46875 -1.5 L 0.859375 -1.5 L 0.859375 -0.375 L 2.515625 -0.375 L 2.515625 0 L 0.453125 0 Z M 0.453125 -3.375 "/></g></g></g><g fill="#ffffff" fill-opacity="1"><g transform="translate(173.793368, 61.498452)"><g><path d="M 2.53125 0 L 2.125 0 L 2.125 -1.125 C 2.125 -1.207031 2.101562 -1.269531 2.0625 -1.3125 C 2.019531 -1.363281 1.953125 -1.390625 1.859375 -1.390625 L 0.8125 -1.390625 L 0.8125 0 L 0.40625 0 L 0.40625 -3.375 L 1.609375 -3.375 C 1.785156 -3.375 1.9375 -3.347656 2.0625 -3.296875 C 2.1875 -3.242188 2.289062 -3.175781 2.375 -3.09375 C 2.46875 -3.007812 2.535156 -2.910156 2.578125 -2.796875 C 2.617188 -2.691406 2.640625 -2.578125 2.640625 -2.453125 L 2.640625 -2.3125 C 2.640625 -2.1875 2.601562 -2.0625 2.53125 -1.9375 C 2.46875 -1.8125 2.363281 -1.710938 2.21875 -1.640625 L 2.21875 -1.59375 C 2.3125 -1.570312 2.382812 -1.53125 2.4375 -1.46875 C 2.5 -1.40625 2.53125 -1.320312 2.53125 -1.21875 Z M 0.8125 -1.765625 L 1.5625 -1.765625 C 1.789062 -1.765625 1.957031 -1.8125 2.0625 -1.90625 C 2.175781 -2.007812 2.234375 -2.15625 2.234375 -2.34375 L 2.234375 -2.421875 C 2.234375 -2.597656 2.175781 -2.738281 2.0625 -2.84375 C 1.957031 -2.945312 1.789062 -3 1.5625 -3 L 0.8125 -3 Z M 0.8125 -1.765625 "/></g></g></g><g fill="#ffffff" fill-opacity="1"><g transform="translate(176.225602, 61.498452)"><g><path d="M 2.265625 -2.390625 C 2.265625 -2.503906 2.242188 -2.601562 2.203125 -2.6875 C 2.160156 -2.769531 2.101562 -2.835938 2.03125 -2.890625 C 1.957031 -2.941406 1.867188 -2.984375 1.765625 -3.015625 C 1.671875 -3.046875 1.570312 -3.0625 1.46875 -3.0625 C 1.375 -3.0625 1.285156 -3.046875 1.203125 -3.015625 C 1.117188 -2.992188 1.039062 -2.960938 0.96875 -2.921875 C 0.90625 -2.878906 0.851562 -2.820312 0.8125 -2.75 C 0.78125 -2.6875 0.765625 -2.613281 0.765625 -2.53125 L 0.765625 -2.5 C 0.765625 -2.40625 0.78125 -2.320312 0.8125 -2.25 C 0.851562 -2.1875 0.910156 -2.128906 0.984375 -2.078125 C 1.066406 -2.035156 1.160156 -2 1.265625 -1.96875 C 1.378906 -1.945312 1.515625 -1.921875 1.671875 -1.890625 C 2.023438 -1.835938 2.285156 -1.734375 2.453125 -1.578125 C 2.617188 -1.429688 2.703125 -1.226562 2.703125 -0.96875 L 2.703125 -0.921875 C 2.703125 -0.773438 2.675781 -0.640625 2.625 -0.515625 C 2.570312 -0.398438 2.492188 -0.296875 2.390625 -0.203125 C 2.296875 -0.117188 2.175781 -0.0507812 2.03125 0 C 1.894531 0.0390625 1.734375 0.0625 1.546875 0.0625 C 1.328125 0.0625 1.132812 0.03125 0.96875 -0.03125 C 0.800781 -0.09375 0.660156 -0.175781 0.546875 -0.28125 C 0.441406 -0.394531 0.359375 -0.523438 0.296875 -0.671875 C 0.242188 -0.828125 0.21875 -0.992188 0.21875 -1.171875 L 0.21875 -1.3125 L 0.625 -1.3125 L 0.625 -1.1875 C 0.625 -0.894531 0.703125 -0.675781 0.859375 -0.53125 C 1.023438 -0.382812 1.253906 -0.3125 1.546875 -0.3125 C 1.796875 -0.3125 1.984375 -0.363281 2.109375 -0.46875 C 2.234375 -0.582031 2.296875 -0.734375 2.296875 -0.921875 L 2.296875 -0.9375 C 2.296875 -1.113281 2.226562 -1.25 2.09375 -1.34375 C 1.96875 -1.4375 1.757812 -1.503906 1.46875 -1.546875 C 1.300781 -1.566406 1.144531 -1.597656 1 -1.640625 C 0.863281 -1.691406 0.75 -1.753906 0.65625 -1.828125 C 0.5625 -1.910156 0.488281 -2.003906 0.4375 -2.109375 C 0.382812 -2.210938 0.359375 -2.335938 0.359375 -2.484375 L 0.359375 -2.546875 C 0.359375 -2.671875 0.382812 -2.785156 0.4375 -2.890625 C 0.5 -3.003906 0.578125 -3.101562 0.671875 -3.1875 C 0.765625 -3.269531 0.878906 -3.332031 1.015625 -3.375 C 1.160156 -3.414062 1.3125 -3.4375 1.46875 -3.4375 C 1.65625 -3.4375 1.820312 -3.40625 1.96875 -3.34375 C 2.125 -3.289062 2.253906 -3.21875 2.359375 -3.125 C 2.460938 -3.039062 2.539062 -2.9375 2.59375 -2.8125 C 2.644531 -2.6875 2.671875 -2.554688 2.671875 -2.421875 L 2.671875 -2.21875 L 2.265625 -2.21875 Z M 2.265625 -2.390625 "/></g></g></g><g fill="#ffffff" fill-opacity="1"><g transform="translate(178.657836, 61.498452)"><g><path d="M 0.40625 -3.375 L 2.546875 -3.375 L 2.546875 -3 L 1.671875 -3 L 1.671875 -0.375 L 2.546875 -0.375 L 2.546875 0 L 0.40625 0 L 0.40625 -0.375 L 1.265625 -0.375 L 1.265625 -3 L 0.40625 -3 Z M 0.40625 -3.375 "/></g></g></g><g fill="#ffffff" fill-opacity="1"><g transform="translate(181.090072, 61.498452)"><g><path d="M 0.28125 -3.375 L 2.65625 -3.375 L 2.65625 -3 L 1.671875 -3 L 1.671875 0 L 1.265625 0 L 1.265625 -3 L 0.28125 -3 Z M 0.28125 -3.375 "/></g></g></g><g fill="#ffffff" fill-opacity="1"><g transform="translate(183.522306, 61.498452)"><g><path d="M 1.265625 -1.1875 L 1.1875 -1.1875 L 0.125 -3.375 L 0.578125 -3.375 L 1.4375 -1.53125 L 1.5 -1.53125 L 2.359375 -3.375 L 2.8125 -3.375 L 1.765625 -1.1875 L 1.671875 -1.1875 L 1.671875 0 L 1.265625 0 Z M 1.265625 -1.1875 "/></g></g></g><g fill="#ffffff" fill-opacity="1"><g transform="translate(185.95454, 61.498452)"><g/></g></g><g fill="#ffffff" fill-opacity="1"><g transform="translate(188.386774, 61.498452)"><g><path d="M 1.15625 -1.609375 L 2.65625 -1.609375 L 2.65625 0 L 2.28125 0 L 2.28125 -0.40625 L 2.21875 -0.40625 C 2.164062 -0.257812 2.066406 -0.144531 1.921875 -0.0625 C 1.785156 0.0195312 1.628906 0.0625 1.453125 0.0625 C 1.085938 0.0625 0.800781 -0.0507812 0.59375 -0.28125 C 0.382812 -0.519531 0.28125 -0.863281 0.28125 -1.3125 L 0.28125 -2.0625 C 0.28125 -2.5 0.382812 -2.835938 0.59375 -3.078125 C 0.800781 -3.316406 1.09375 -3.4375 1.46875 -3.4375 C 1.65625 -3.4375 1.820312 -3.40625 1.96875 -3.34375 C 2.125 -3.28125 2.25 -3.191406 2.34375 -3.078125 C 2.445312 -2.972656 2.523438 -2.84375 2.578125 -2.6875 C 2.628906 -2.539062 2.65625 -2.382812 2.65625 -2.21875 L 2.65625 -2.15625 L 2.25 -2.15625 L 2.25 -2.21875 C 2.25 -2.320312 2.234375 -2.425781 2.203125 -2.53125 C 2.171875 -2.632812 2.125 -2.722656 2.0625 -2.796875 C 2 -2.878906 1.914062 -2.941406 1.8125 -2.984375 C 1.71875 -3.035156 1.601562 -3.0625 1.46875 -3.0625 C 1.207031 -3.0625 1.007812 -2.96875 0.875 -2.78125 C 0.75 -2.59375 0.6875 -2.34375 0.6875 -2.03125 L 0.6875 -1.34375 C 0.6875 -1.007812 0.75 -0.753906 0.875 -0.578125 C 1.007812 -0.398438 1.210938 -0.3125 1.484375 -0.3125 C 1.722656 -0.3125 1.910156 -0.382812 2.046875 -0.53125 C 2.179688 -0.6875 2.25 -0.90625 2.25 -1.1875 L 2.25 -1.234375 L 1.15625 -1.234375 Z M 1.15625 -1.609375 "/></g></g></g><g fill="#ffffff" fill-opacity="1"><g transform="translate(190.819007, 61.498452)"><g><path d="M 0.40625 -3.375 L 2.546875 -3.375 L 2.546875 -3 L 1.671875 -3 L 1.671875 -0.375 L 2.546875 -0.375 L 2.546875 0 L 0.40625 0 L 0.40625 -0.375 L 1.265625 -0.375 L 1.265625 -3 L 0.40625 -3 Z M 0.40625 -3.375 "/></g></g></g><g fill="#ffffff" fill-opacity="1"><g transform="translate(193.251241, 61.498452)"><g><path d="M 0.453125 -3.375 L 2.5 -3.375 L 2.5 -3 L 0.859375 -3 L 0.859375 -1.875 L 2.46875 -1.875 L 2.46875 -1.5 L 0.859375 -1.5 L 0.859375 -0.375 L 2.515625 -0.375 L 2.515625 0 L 0.453125 0 Z M 0.453125 -3.375 "/></g></g></g><g fill="#ffffff" fill-opacity="1"><g transform="translate(195.683475, 61.498452)"><g><path d="M 2.265625 -2.390625 C 2.265625 -2.503906 2.242188 -2.601562 2.203125 -2.6875 C 2.160156 -2.769531 2.101562 -2.835938 2.03125 -2.890625 C 1.957031 -2.941406 1.867188 -2.984375 1.765625 -3.015625 C 1.671875 -3.046875 1.570312 -3.0625 1.46875 -3.0625 C 1.375 -3.0625 1.285156 -3.046875 1.203125 -3.015625 C 1.117188 -2.992188 1.039062 -2.960938 0.96875 -2.921875 C 0.90625 -2.878906 0.851562 -2.820312 0.8125 -2.75 C 0.78125 -2.6875 0.765625 -2.613281 0.765625 -2.53125 L 0.765625 -2.5 C 0.765625 -2.40625 0.78125 -2.320312 0.8125 -2.25 C 0.851562 -2.1875 0.910156 -2.128906 0.984375 -2.078125 C 1.066406 -2.035156 1.160156 -2 1.265625 -1.96875 C 1.378906 -1.945312 1.515625 -1.921875 1.671875 -1.890625 C 2.023438 -1.835938 2.285156 -1.734375 2.453125 -1.578125 C 2.617188 -1.429688 2.703125 -1.226562 2.703125 -0.96875 L 2.703125 -0.921875 C 2.703125 -0.773438 2.675781 -0.640625 2.625 -0.515625 C 2.570312 -0.398438 2.492188 -0.296875 2.390625 -0.203125 C 2.296875 -0.117188 2.175781 -0.0507812 2.03125 0 C 1.894531 0.0390625 1.734375 0.0625 1.546875 0.0625 C 1.328125 0.0625 1.132812 0.03125 0.96875 -0.03125 C 0.800781 -0.09375 0.660156 -0.175781 0.546875 -0.28125 C 0.441406 -0.394531 0.359375 -0.523438 0.296875 -0.671875 C 0.242188 -0.828125 0.21875 -0.992188 0.21875 -1.171875 L 0.21875 -1.3125 L 0.625 -1.3125 L 0.625 -1.1875 C 0.625 -0.894531 0.703125 -0.675781 0.859375 -0.53125 C 1.023438 -0.382812 1.253906 -0.3125 1.546875 -0.3125 C 1.796875 -0.3125 1.984375 -0.363281 2.109375 -0.46875 C 2.234375 -0.582031 2.296875 -0.734375 2.296875 -0.921875 L 2.296875 -0.9375 C 2.296875 -1.113281 2.226562 -1.25 2.09375 -1.34375 C 1.96875 -1.4375 1.757812 -1.503906 1.46875 -1.546875 C 1.300781 -1.566406 1.144531 -1.597656 1 -1.640625 C 0.863281 -1.691406 0.75 -1.753906 0.65625 -1.828125 C 0.5625 -1.910156 0.488281 -2.003906 0.4375 -2.109375 C 0.382812 -2.210938 0.359375 -2.335938 0.359375 -2.484375 L 0.359375 -2.546875 C 0.359375 -2.671875 0.382812 -2.785156 0.4375 -2.890625 C 0.5 -3.003906 0.578125 -3.101562 0.671875 -3.1875 C 0.765625 -3.269531 0.878906 -3.332031 1.015625 -3.375 C 1.160156 -3.414062 1.3125 -3.4375 1.46875 -3.4375 C 1.65625 -3.4375 1.820312 -3.40625 1.96875 -3.34375 C 2.125 -3.289062 2.253906 -3.21875 2.359375 -3.125 C 2.460938 -3.039062 2.539062 -2.9375 2.59375 -2.8125 C 2.644531 -2.6875 2.671875 -2.554688 2.671875 -2.421875 L 2.671875 -2.21875 L 2.265625 -2.21875 Z M 2.265625 -2.390625 "/></g></g></g><g fill="#ffffff" fill-opacity="1"><g transform="translate(198.115709, 61.498452)"><g><path d="M 2.265625 -2.390625 C 2.265625 -2.503906 2.242188 -2.601562 2.203125 -2.6875 C 2.160156 -2.769531 2.101562 -2.835938 2.03125 -2.890625 C 1.957031 -2.941406 1.867188 -2.984375 1.765625 -3.015625 C 1.671875 -3.046875 1.570312 -3.0625 1.46875 -3.0625 C 1.375 -3.0625 1.285156 -3.046875 1.203125 -3.015625 C 1.117188 -2.992188 1.039062 -2.960938 0.96875 -2.921875 C 0.90625 -2.878906 0.851562 -2.820312 0.8125 -2.75 C 0.78125 -2.6875 0.765625 -2.613281 0.765625 -2.53125 L 0.765625 -2.5 C 0.765625 -2.40625 0.78125 -2.320312 0.8125 -2.25 C 0.851562 -2.1875 0.910156 -2.128906 0.984375 -2.078125 C 1.066406 -2.035156 1.160156 -2 1.265625 -1.96875 C 1.378906 -1.945312 1.515625 -1.921875 1.671875 -1.890625 C 2.023438 -1.835938 2.285156 -1.734375 2.453125 -1.578125 C 2.617188 -1.429688 2.703125 -1.226562 2.703125 -0.96875 L 2.703125 -0.921875 C 2.703125 -0.773438 2.675781 -0.640625 2.625 -0.515625 C 2.570312 -0.398438 2.492188 -0.296875 2.390625 -0.203125 C 2.296875 -0.117188 2.175781 -0.0507812 2.03125 0 C 1.894531 0.0390625 1.734375 0.0625 1.546875 0.0625 C 1.328125 0.0625 1.132812 0.03125 0.96875 -0.03125 C 0.800781 -0.09375 0.660156 -0.175781 0.546875 -0.28125 C 0.441406 -0.394531 0.359375 -0.523438 0.296875 -0.671875 C 0.242188 -0.828125 0.21875 -0.992188 0.21875 -1.171875 L 0.21875 -1.3125 L 0.625 -1.3125 L 0.625 -1.1875 C 0.625 -0.894531 0.703125 -0.675781 0.859375 -0.53125 C 1.023438 -0.382812 1.253906 -0.3125 1.546875 -0.3125 C 1.796875 -0.3125 1.984375 -0.363281 2.109375 -0.46875 C 2.234375 -0.582031 2.296875 -0.734375 2.296875 -0.921875 L 2.296875 -0.9375 C 2.296875 -1.113281 2.226562 -1.25 2.09375 -1.34375 C 1.96875 -1.4375 1.757812 -1.503906 1.46875 -1.546875 C 1.300781 -1.566406 1.144531 -1.597656 1 -1.640625 C 0.863281 -1.691406 0.75 -1.753906 0.65625 -1.828125 C 0.5625 -1.910156 0.488281 -2.003906 0.4375 -2.109375 C 0.382812 -2.210938 0.359375 -2.335938 0.359375 -2.484375 L 0.359375 -2.546875 C 0.359375 -2.671875 0.382812 -2.785156 0.4375 -2.890625 C 0.5 -3.003906 0.578125 -3.101562 0.671875 -3.1875 C 0.765625 -3.269531 0.878906 -3.332031 1.015625 -3.375 C 1.160156 -3.414062 1.3125 -3.4375 1.46875 -3.4375 C 1.65625 -3.4375 1.820312 -3.40625 1.96875 -3.34375 C 2.125 -3.289062 2.253906 -3.21875 2.359375 -3.125 C 2.460938 -3.039062 2.539062 -2.9375 2.59375 -2.8125 C 2.644531 -2.6875 2.671875 -2.554688 2.671875 -2.421875 L 2.671875 -2.21875 L 2.265625 -2.21875 Z M 2.265625 -2.390625 "/></g></g></g><g fill="#ffffff" fill-opacity="1"><g transform="translate(200.547943, 61.498452)"><g><path d="M 0.453125 -3.375 L 2.5 -3.375 L 2.5 -3 L 0.859375 -3 L 0.859375 -1.875 L 2.46875 -1.875 L 2.46875 -1.5 L 0.859375 -1.5 L 0.859375 -0.375 L 2.515625 -0.375 L 2.515625 0 L 0.453125 0 Z M 0.453125 -3.375 "/></g></g></g><g fill="#ffffff" fill-opacity="1"><g transform="translate(202.980176, 61.498452)"><g><path d="M 2.125 -0.171875 L 2.1875 -0.171875 L 2.1875 -3.375 L 2.59375 -3.375 L 2.59375 0 L 1.78125 0 L 0.8125 -3.203125 L 0.75 -3.203125 L 0.75 0 L 0.34375 0 L 0.34375 -3.375 L 1.15625 -3.375 Z M 2.125 -0.171875 "/></g></g></g><g fill="#ffffff" fill-opacity="1"><g transform="translate(205.41513, 61.498452)"><g/></g></g><g fill="#000000" fill-opacity="1"><g transform="translate(207.849798, 61.498452)"><g/></g></g><path stroke-linecap="butt" transform="matrix(0.505529, 0, 0, 0.505529, 13.216671, 17.450114)" fill="none" stroke-linejoin="miter" d="M 25.843371 19.300401 C 25.271569 18.303612 24.460229 17.538634 23.401623 17.005467 C 22.343017 16.464574 21.183959 16.201854 19.908996 16.201854 C 17.552245 16.201854 15.481396 17.105919 13.711901 18.921776 C 11.950133 20.74536 11.061523 22.89348 11.061523 25.389317 C 11.061523 27.251537 11.664233 28.766039 12.861925 29.925096 C 14.051891 31.076427 15.635937 31.655956 17.598608 31.655956 C 18.7963 31.655956 19.993993 31.393236 21.199413 30.852342 C 22.404833 30.319176 23.471166 29.592833 24.398412 28.665587 L 22.976635 37.443516 C 22.451195 37.613512 21.539403 37.876231 20.233532 38.216222 C 18.92766 38.571666 17.621789 38.749388 16.331371 38.749388 C 14.067345 38.749388 11.950133 38.254857 9.979736 37.273521 C 8.017065 36.284459 6.433019 34.909044 5.219872 33.131822 C 4.014452 31.354601 3.404015 29.276024 3.380834 26.911546 C 3.380834 23.728001 4.161266 20.783995 5.729858 18.087254 C 7.298449 15.382787 9.46975 13.211485 12.236034 11.573351 C 15.017773 9.927489 17.876781 9.108422 20.813061 9.108422 C 22.907091 9.108422 25.055211 9.579772 27.265148 10.522472 Z M 55.677513 21.201256 C 55.677513 23.913451 54.889354 26.726097 53.320763 29.639195 C 51.752172 32.552293 49.542235 34.831773 46.683226 36.469908 C 43.816491 38.108043 40.741124 38.92711 37.457128 38.92711 C 33.500878 38.92711 30.286425 37.768053 27.821496 35.44221 C 25.364294 33.108641 24.135692 30.048729 24.135692 26.24702 C 24.135692 23.109837 24.95476 20.212193 26.608349 17.569542 C 28.269665 14.911437 30.525963 12.809679 33.377245 11.248815 C 36.2208 9.695677 39.164806 8.915245 42.19381 8.915245 C 44.612377 8.915245 46.876403 9.440685 48.97816 10.483837 C 51.079918 11.526988 52.718053 12.979674 53.900292 14.841893 C 55.082531 16.696385 55.677513 18.813597 55.677513 21.201256 Z M 38.57755 31.841405 C 40.269774 31.841405 41.830639 31.377782 43.260143 30.442809 C 44.697374 29.507835 45.833251 28.302416 46.683226 26.826549 C 47.525475 25.342955 47.942736 23.882543 47.942736 22.429857 C 47.942736 20.644908 47.270482 19.122679 45.910521 17.878624 C 44.558287 16.634569 42.935607 16.008678 41.034752 16.008678 C 39.57434 16.008678 38.121654 16.410484 36.668969 17.214098 C 35.231737 18.009984 34.07268 19.076317 33.184069 20.420824 C 32.303185 21.765331 31.862743 23.256651 31.862743 24.894786 C 31.862743 26.911546 32.488634 28.572862 33.740416 29.878734 C 34.992199 31.184605 36.607152 31.841405 38.57755 31.841405 Z M 38.57755 31.841405 " stroke="#000000" stroke-width="3.779997" stroke-opacity="1" stroke-miterlimit="4"/><g fill="#ffffff" fill-opacity="1"><g transform="translate(13.414143, 36.660225)"><g><path d="M 12.875 -9.453125 C 12.582031 -9.960938 12.164062 -10.347656 11.625 -10.609375 C 11.09375 -10.878906 10.507812 -11.015625 9.875 -11.015625 C 8.675781 -11.015625 7.628906 -10.554688 6.734375 -9.640625 C 5.835938 -8.722656 5.390625 -7.632812 5.390625 -6.375 C 5.390625 -5.4375 5.691406 -4.671875 6.296875 -4.078125 C 6.898438 -3.492188 7.703125 -3.203125 8.703125 -3.203125 C 9.304688 -3.203125 9.910156 -3.335938 10.515625 -3.609375 C 11.128906 -3.878906 11.671875 -4.25 12.140625 -4.71875 L 11.421875 -0.28125 C 11.148438 -0.195312 10.6875 -0.0664062 10.03125 0.109375 C 9.375 0.285156 8.71875 0.375 8.0625 0.375 C 6.914062 0.375 5.84375 0.128906 4.84375 -0.359375 C 3.851562 -0.859375 3.050781 -1.554688 2.4375 -2.453125 C 1.832031 -3.359375 1.523438 -4.410156 1.515625 -5.609375 C 1.515625 -7.210938 1.910156 -8.695312 2.703125 -10.0625 C 3.492188 -11.4375 4.585938 -12.535156 5.984375 -13.359375 C 7.390625 -14.191406 8.835938 -14.609375 10.328125 -14.609375 C 11.378906 -14.609375 12.46875 -14.367188 13.59375 -13.890625 Z M 12.875 -9.453125 "/></g></g></g><g fill="#ffffff" fill-opacity="1"><g transform="translate(23.86814, 36.660225)"><g><path d="M 17.5 -8.5 C 17.5 -7.125 17.101562 -5.695312 16.3125 -4.21875 C 15.519531 -2.75 14.398438 -1.597656 12.953125 -0.765625 C 11.503906 0.0546875 9.945312 0.46875 8.28125 0.46875 C 6.28125 0.46875 4.65625 -0.117188 3.40625 -1.296875 C 2.164062 -2.472656 1.546875 -4.023438 1.546875 -5.953125 C 1.546875 -7.535156 1.960938 -8.992188 2.796875 -10.328125 C 3.640625 -11.671875 4.78125 -12.734375 6.21875 -13.515625 C 7.65625 -14.304688 9.144531 -14.703125 10.6875 -14.703125 C 11.90625 -14.703125 13.046875 -14.4375 14.109375 -13.90625 C 15.171875 -13.382812 16 -12.65625 16.59375 -11.71875 C 17.195312 -10.78125 17.5 -9.707031 17.5 -8.5 Z M 8.859375 -3.109375 C 9.710938 -3.109375 10.5 -3.34375 11.21875 -3.8125 C 11.945312 -4.289062 12.523438 -4.90625 12.953125 -5.65625 C 13.378906 -6.40625 13.59375 -7.144531 13.59375 -7.875 C 13.59375 -8.78125 13.25 -9.546875 12.5625 -10.171875 C 11.875 -10.804688 11.050781 -11.125 10.09375 -11.125 C 9.351562 -11.125 8.617188 -10.921875 7.890625 -10.515625 C 7.160156 -10.109375 6.570312 -9.566406 6.125 -8.890625 C 5.675781 -8.210938 5.453125 -7.457031 5.453125 -6.625 C 5.453125 -5.601562 5.769531 -4.757812 6.40625 -4.09375 C 7.039062 -3.4375 7.859375 -3.109375 8.859375 -3.109375 Z M 8.859375 -3.109375 "/></g></g></g><path stroke-linecap="butt" transform="matrix(0.505529, 0, 0, 0.505529, 37.127193, 17.450114)" fill="none" stroke-linejoin="miter" d="M 17.52834 9.857945 C 19.86191 9.857945 21.963667 10.375658 23.810432 11.403356 C 25.672652 12.43878 27.133064 13.860558 28.183943 15.684142 C 29.242549 17.499999 29.775716 19.439488 29.775716 21.502611 C 29.775716 24.338438 29.010738 27.035179 27.473054 29.585106 C 25.943098 32.135033 23.872249 34.174974 21.260506 35.70493 C 18.648763 37.234886 15.921114 37.999864 13.085286 37.999864 L 2.669222 37.999864 L 7.120003 9.857945 Z M 10.95262 31.802769 L 12.374397 31.802769 C 15.341585 31.802769 17.698335 30.929613 19.444649 29.175572 C 21.206416 27.421532 22.079573 25.149779 22.079573 22.360314 C 22.079573 20.467186 21.492317 18.93723 20.302351 17.785899 C 19.12784 16.634569 17.366072 16.05504 15.024776 16.05504 L 13.456185 16.05504 Z M 38.538191 9.857945 L 34.102864 37.999864 L 26.785347 37.999864 L 31.228401 9.857945 Z M 46.674776 9.857945 L 57.361287 27.066087 L 57.43083 27.066087 L 60.158479 9.857945 L 67.475996 9.857945 L 63.025215 37.999864 L 55.715425 37.999864 L 45.036641 20.753087 L 44.95937 20.753087 L 42.239448 37.999864 L 34.921931 37.999864 L 39.364986 9.857945 Z M 86.360908 19.709935 C 85.634565 16.719566 83.810981 15.228246 80.874702 15.228246 C 79.329292 15.228246 77.884333 15.730504 76.524372 16.735021 C 75.172139 17.747264 74.090351 19.076317 73.286738 20.737633 C 72.490852 22.391222 72.096772 24.075719 72.096772 25.798851 C 72.096772 27.931517 72.65312 29.654649 73.773542 30.960521 C 74.893965 32.27412 76.40074 32.923192 78.293867 32.923192 C 80.016999 32.923192 81.454231 32.490477 82.621015 31.61732 C 83.795527 30.744164 84.568232 29.546471 84.939131 28.031969 L 78.96612 28.031969 L 79.901094 22.29077 L 94.427949 22.29077 C 93.778877 26.216112 92.681635 29.322386 91.151679 31.601866 C 89.621723 33.873619 87.682234 35.666295 85.33321 36.972166 C 82.97646 38.278038 80.295173 38.92711 77.28935 38.92711 C 73.410371 38.92711 70.288642 37.837596 67.939619 35.650841 C 65.590596 33.464085 64.416084 30.535533 64.416084 26.872911 C 64.416084 23.666185 65.173335 20.683544 66.68011 17.924986 C 68.202339 15.158702 70.327278 12.96422 73.062654 11.349266 C 75.805757 9.726586 78.881123 8.915245 82.296479 8.915245 C 88.246308 8.915245 92.063471 11.542443 93.747968 16.78911 Z M 86.360908 19.709935 " stroke="#000000" stroke-width="3.779997" stroke-opacity="1" stroke-miterlimit="4"/><g fill="#ffffff" fill-opacity="1"><g transform="translate(37.269373, 36.660225)"><g><path d="M 8.71875 -14.234375 C 9.90625 -14.234375 10.96875 -13.972656 11.90625 -13.453125 C 12.84375 -12.929688 13.578125 -12.207031 14.109375 -11.28125 C 14.640625 -10.363281 14.90625 -9.382812 14.90625 -8.34375 C 14.90625 -6.90625 14.519531 -5.539062 13.75 -4.25 C 12.976562 -2.96875 11.929688 -1.9375 10.609375 -1.15625 C 9.285156 -0.382812 7.90625 0 6.46875 0 L 1.203125 0 L 3.453125 -14.234375 Z M 5.390625 -3.140625 L 6.109375 -3.140625 C 7.609375 -3.140625 8.800781 -3.582031 9.6875 -4.46875 C 10.570312 -5.351562 11.015625 -6.5 11.015625 -7.90625 C 11.015625 -8.863281 10.71875 -9.632812 10.125 -10.21875 C 9.53125 -10.800781 8.640625 -11.09375 7.453125 -11.09375 L 6.65625 -11.09375 Z M 5.390625 -3.140625 "/></g></g></g><g fill="#ffffff" fill-opacity="1"><g transform="translate(49.45946, 36.660225)"><g><path d="M 7.15625 -14.234375 L 4.90625 0 L 1.203125 0 L 3.453125 -14.234375 Z M 7.15625 -14.234375 "/></g></g></g><g fill="#ffffff" fill-opacity="1"><g transform="translate(53.572959, 36.660225)"><g><path d="M 7.15625 -14.234375 L 12.546875 -5.53125 L 12.59375 -5.53125 L 13.96875 -14.234375 L 17.671875 -14.234375 L 15.421875 0 L 11.71875 0 L 6.328125 -8.71875 L 6.28125 -8.71875 L 4.90625 0 L 1.203125 0 L 3.453125 -14.234375 Z M 7.15625 -14.234375 "/></g></g></g><g fill="#ffffff" fill-opacity="1"><g transform="translate(68.197339, 36.660225)"><g><path d="M 12.59375 -9.25 C 12.226562 -10.757812 11.300781 -11.515625 9.8125 -11.515625 C 9.03125 -11.515625 8.296875 -11.257812 7.609375 -10.75 C 6.929688 -10.238281 6.390625 -9.5625 5.984375 -8.71875 C 5.578125 -7.882812 5.375 -7.035156 5.375 -6.171875 C 5.375 -5.085938 5.65625 -4.210938 6.21875 -3.546875 C 6.789062 -2.890625 7.554688 -2.5625 8.515625 -2.5625 C 9.378906 -2.5625 10.109375 -2.78125 10.703125 -3.21875 C 11.296875 -3.664062 11.6875 -4.273438 11.875 -5.046875 L 8.859375 -5.046875 L 9.328125 -7.953125 L 16.671875 -7.953125 C 16.335938 -5.960938 15.785156 -4.390625 15.015625 -3.234375 C 14.242188 -2.085938 13.257812 -1.179688 12.0625 -0.515625 C 10.875 0.140625 9.519531 0.46875 8 0.46875 C 6.039062 0.46875 4.460938 -0.0820312 3.265625 -1.1875 C 2.078125 -2.289062 1.484375 -3.769531 1.484375 -5.625 C 1.484375 -7.25 1.867188 -8.757812 2.640625 -10.15625 C 3.410156 -11.550781 4.488281 -12.65625 5.875 -13.46875 C 7.257812 -14.289062 8.8125 -14.703125 10.53125 -14.703125 C 13.539062 -14.703125 15.472656 -13.375 16.328125 -10.71875 Z M 12.59375 -9.25 "/></g></g></g><path stroke-linecap="butt" transform="matrix(0.515009, 0, 0, 0.515009, 77.227058, 17.461136)" fill="none" stroke-linejoin="miter" d="M 36.193771 8.373249 C 38.856041 8.373249 40.94945 8.972449 42.489167 10.178435 C 44.028884 11.369251 44.802535 13.121343 44.802535 15.442296 C 44.802535 17.277821 44.40054 19.158855 43.588965 21.085398 C 42.784975 23.019525 41.480387 24.475809 39.675201 25.45425 C 37.870015 26.425107 35.837285 26.88778 33.59218 26.842271 L 29.30676 26.842271 L 27.842891 35.997142 L 20.652487 35.997142 L 25.02134 8.373249 Z M 31.286397 14.168047 L 30.216938 21.055058 L 31.9842 21.055058 C 34.009345 21.055058 35.382196 20.683402 36.095169 19.95526 C 36.815726 19.219533 37.179797 18.119735 37.179797 16.648281 C 37.179797 15.753273 36.876405 15.116149 36.284789 14.736908 C 35.685589 14.357667 34.729902 14.168047 33.410145 14.168047 Z M 52.523876 8.373249 L 50.840047 19.037498 L 61.208488 19.037498 L 62.899902 8.373249 L 70.067551 8.373249 L 65.713868 35.997142 L 58.531049 35.997142 L 60.32865 24.673015 L 49.960209 24.673015 L 48.162608 35.997142 L 40.979789 35.997142 L 45.348642 8.373249 Z M 76.438795 8.373249 L 80.435992 15.882215 L 86.769312 8.373249 L 95.378076 8.373249 L 82.923811 22.731302 L 80.837987 35.997142 L 73.655168 35.997142 L 75.740992 22.731302 L 67.830031 8.373249 Z M 102.621573 7.645107 C 105.579651 7.645107 108.348108 8.403588 110.934529 9.912966 L 107.202801 15.48022 C 105.905798 14.259065 104.419174 13.644695 102.735345 13.644695 C 101.855507 13.644695 101.051517 13.894994 100.330959 14.395591 C 99.610402 14.896189 99.253916 15.518144 99.253916 16.246286 C 99.253916 16.784808 99.511799 17.255066 100.027567 17.664646 C 100.535749 18.066642 101.476266 18.461052 102.841533 18.855462 C 104.699812 19.409154 106.042324 19.95526 106.869069 20.478612 C 107.703399 21.001965 108.348108 21.654259 108.810781 22.420325 C 109.273455 23.193976 109.508584 24.149662 109.508584 25.302554 C 109.508584 26.956044 109.083835 28.71572 108.226751 30.581585 C 107.377252 32.432279 105.974061 33.911318 104.032349 35.018701 C 102.090636 36.110914 99.784853 36.68736 97.130168 36.732869 C 93.709417 36.732869 90.629982 35.686165 87.891864 33.585171 L 91.881476 27.790373 C 93.79285 29.694162 95.757316 30.649848 97.790047 30.649848 C 98.912599 30.649848 99.853116 30.361625 100.626767 29.777594 C 101.392833 29.185979 101.779659 28.435082 101.779659 27.540074 C 101.779659 26.364428 100.604013 25.461835 98.260305 24.824711 C 95.431169 24.043475 93.595644 23.209145 92.761315 22.321722 C 91.93457 21.426714 91.517405 20.235898 91.517405 18.74169 C 91.517405 15.616747 92.586864 12.992401 94.718197 10.853483 C 96.864699 8.714566 99.49663 7.645107 102.621573 7.645107 Z M 102.621573 7.645107 " stroke="#000000" stroke-width="3.710418" stroke-opacity="1" stroke-miterlimit="4"/><g fill="#ffffff" fill-opacity="1"><g transform="translate(86.658166, 36.001472)"><g><path d="M 9.21875 -14.234375 C 10.582031 -14.234375 11.660156 -13.921875 12.453125 -13.296875 C 13.242188 -12.679688 13.640625 -11.78125 13.640625 -10.59375 C 13.640625 -9.644531 13.429688 -8.671875 13.015625 -7.671875 C 12.609375 -6.679688 11.9375 -5.9375 11 -5.4375 C 10.070312 -4.9375 9.03125 -4.695312 7.875 -4.71875 L 5.65625 -4.71875 L 4.90625 0 L 1.203125 0 L 3.453125 -14.234375 Z M 6.6875 -11.25 L 6.140625 -7.703125 L 7.046875 -7.703125 C 8.085938 -7.703125 8.789062 -7.890625 9.15625 -8.265625 C 9.53125 -8.640625 9.71875 -9.207031 9.71875 -9.96875 C 9.71875 -10.4375 9.5625 -10.765625 9.25 -10.953125 C 8.945312 -11.148438 8.457031 -11.25 7.78125 -11.25 Z M 6.6875 -11.25 "/></g></g></g><g fill="#ffffff" fill-opacity="1"><g transform="translate(97.125511, 36.001472)"><g><path d="M 7.15625 -14.234375 L 6.28125 -8.734375 L 11.625 -8.734375 L 12.5 -14.234375 L 16.1875 -14.234375 L 13.953125 0 L 10.25 0 L 11.171875 -5.828125 L 5.828125 -5.828125 L 4.90625 0 L 1.203125 0 L 3.453125 -14.234375 Z M 7.15625 -14.234375 "/></g></g></g><g fill="#ffffff" fill-opacity="1"><g transform="translate(110.271288, 36.001472)"><g><path d="M 6.328125 -14.234375 L 8.375 -10.359375 L 11.640625 -14.234375 L 16.078125 -14.234375 L 9.65625 -6.828125 L 8.59375 0 L 4.890625 0 L 5.96875 -6.828125 L 1.890625 -14.234375 Z M 6.328125 -14.234375 "/></g></g></g><g fill="#ffffff" fill-opacity="1"><g transform="translate(121.738336, 36.001472)"><g><path d="M 8.34375 -14.609375 C 9.863281 -14.609375 11.289062 -14.21875 12.625 -13.4375 L 10.703125 -10.5625 C 10.035156 -11.195312 9.269531 -11.515625 8.40625 -11.515625 C 7.945312 -11.515625 7.53125 -11.382812 7.15625 -11.125 C 6.789062 -10.863281 6.609375 -10.546875 6.609375 -10.171875 C 6.609375 -9.898438 6.738281 -9.660156 7 -9.453125 C 7.269531 -9.242188 7.753906 -9.035156 8.453125 -8.828125 C 9.410156 -8.546875 10.101562 -8.269531 10.53125 -8 C 10.957031 -7.726562 11.289062 -7.394531 11.53125 -7 C 11.769531 -6.601562 11.890625 -6.109375 11.890625 -5.515625 C 11.890625 -4.660156 11.664062 -3.753906 11.21875 -2.796875 C 10.78125 -1.835938 10.0625 -1.070312 9.0625 -0.5 C 8.0625 0.0625 6.878906 0.351562 5.515625 0.375 C 3.753906 0.375 2.164062 -0.164062 0.75 -1.25 L 2.8125 -4.234375 C 3.789062 -3.242188 4.800781 -2.75 5.84375 -2.75 C 6.425781 -2.75 6.914062 -2.898438 7.3125 -3.203125 C 7.707031 -3.503906 7.90625 -3.890625 7.90625 -4.359375 C 7.90625 -4.960938 7.300781 -5.425781 6.09375 -5.75 C 4.632812 -6.15625 3.691406 -6.585938 3.265625 -7.046875 C 2.835938 -7.503906 2.625 -8.117188 2.625 -8.890625 C 2.625 -10.503906 3.171875 -11.859375 4.265625 -12.953125 C 5.367188 -14.054688 6.726562 -14.609375 8.34375 -14.609375 Z M 8.34375 -14.609375 "/></g></g></g><path stroke-linecap="butt" transform="matrix(0.515009, 0, 0, 0.515009, 135.933819, 17.461136)" fill="none" stroke-linejoin="miter" d="M 34.153981 19.515341 C 34.153981 22.170026 33.38033 24.930898 31.848197 27.797958 C 30.30848 30.657433 28.131638 32.887368 25.325257 34.495349 C 22.511291 36.110914 19.50012 36.914905 16.268989 36.914905 C 12.385564 36.914905 9.237866 35.769598 6.818311 33.486569 C 4.398755 31.20354 3.192769 28.192368 3.192769 24.46064 C 3.192769 21.381205 4.004345 18.544485 5.627495 15.942894 C 7.250645 13.341302 9.465411 11.270648 12.264207 9.7461 C 15.063004 8.221553 17.945233 7.455487 20.926065 7.455487 C 23.292527 7.455487 25.514877 7.971254 27.577947 8.995204 C 29.641016 10.019154 31.248997 11.445099 32.409473 13.273039 C 33.56995 15.08581 34.153981 17.171633 34.153981 19.515341 Z M 17.368787 29.952045 C 19.037446 29.952045 20.569579 29.496956 21.972769 28.586779 C 23.37596 27.669016 24.498512 26.485785 25.325257 25.029501 C 26.152002 23.580801 26.569166 22.139687 26.569166 20.721326 C 26.569166 18.96165 25.901703 17.475026 24.57436 16.246286 C 23.239433 15.025131 21.646622 14.418346 19.788343 14.418346 C 18.347228 14.418346 16.921283 14.805171 15.502923 15.593992 C 14.092147 16.375228 12.94684 17.429517 12.074587 18.74169 C 11.209918 20.061448 10.777584 21.525317 10.777584 23.133297 C 10.777584 25.112934 11.391953 26.751254 12.620693 28.033087 C 13.857018 29.314921 15.442244 29.952045 17.368787 29.952045 Z M 17.368787 29.952045 " stroke="#000000" stroke-width="3.710418" stroke-opacity="1" stroke-miterlimit="4"/><g clip-path="url(#b64b850abe)"><path stroke-linecap="butt" transform="matrix(0.515009, 0, 0, 0.515009, 135.933819, 17.461136)" fill="none" stroke-linejoin="miter" d="M 42.679312 8.373249 L 39.27373 29.914121 L 47.882494 29.914121 L 46.934392 35.997142 L 31.142809 35.997142 L 35.504077 8.373249 Z M 77.00818 19.515341 C 77.00818 22.170026 76.234529 24.930898 74.702397 27.797958 C 73.162679 30.657433 70.985838 32.887368 68.179457 34.495349 C 65.365491 36.110914 62.354319 36.914905 59.123189 36.914905 C 55.239764 36.914905 52.092066 35.769598 49.67251 33.486569 C 47.252955 31.20354 46.046969 28.192368 46.046969 24.46064 C 46.046969 21.381205 46.858544 18.544485 48.481694 15.942894 C 50.104845 13.341302 52.31961 11.270648 55.118407 9.7461 C 57.917203 8.221553 60.799432 7.455487 63.780264 7.455487 C 66.146726 7.455487 68.369077 7.971254 70.432146 8.995204 C 72.495216 10.019154 74.103196 11.445099 75.263673 13.273039 C 76.424149 15.08581 77.00818 17.171633 77.00818 19.515341 Z M 60.222987 29.952045 C 61.891646 29.952045 63.423778 29.496956 64.826969 28.586779 C 66.230159 27.669016 67.352712 26.485785 68.179457 25.029501 C 69.006201 23.580801 69.423366 22.139687 69.423366 20.721326 C 69.423366 18.96165 68.755902 17.475026 67.42856 16.246286 C 66.093633 15.025131 64.500822 14.418346 62.642542 14.418346 C 61.201428 14.418346 59.775483 14.805171 58.357122 15.593992 C 56.946347 16.375228 55.80104 17.429517 54.928786 18.74169 C 54.064118 20.061448 53.631783 21.525317 53.631783 23.133297 C 53.631783 25.112934 54.246153 26.751254 55.474893 28.033087 C 56.711218 29.314921 58.296444 29.952045 60.222987 29.952045 Z M 96.083988 18.043887 C 95.371015 15.116149 93.580999 13.644695 90.69877 13.644695 C 89.181807 13.644695 87.763447 14.137708 86.428519 15.131318 C 85.101177 16.117344 84.039303 17.429517 83.258067 19.060252 C 82.476831 20.683402 82.082421 22.336892 82.082421 24.020721 C 82.082421 26.121714 82.628527 27.813128 83.728325 29.094961 C 84.828124 30.376795 86.307162 31.013919 88.165442 31.013919 C 89.856855 31.013919 91.267631 30.58917 92.412938 29.73967 C 93.565829 28.882586 94.324311 27.70694 94.688382 26.212732 L 88.825321 26.212732 L 89.743083 20.577215 L 103.994949 20.577215 C 103.357824 24.437885 102.288366 27.486981 100.786572 29.716916 C 99.284779 31.954436 97.380991 33.706528 95.067623 34.988362 C 92.761839 36.270195 90.129909 36.914905 87.179416 36.914905 C 83.371839 36.914905 80.315159 35.837861 78.001791 33.691359 C 75.696007 31.544856 74.543116 28.670212 74.543116 25.07501 C 74.543116 21.927312 75.286427 18.999574 76.765466 16.291795 C 78.259675 13.576432 80.345498 11.429929 83.030523 9.844703 C 85.723132 8.251892 88.741888 7.455487 92.094375 7.455487 C 97.927097 7.455487 101.68158 10.034323 103.33507 15.184412 Z M 110.86679 8.373249 L 114.871572 15.882215 L 121.204892 8.373249 L 129.813656 8.373249 L 117.351806 22.731302 L 115.273567 35.997142 L 108.090748 35.997142 L 110.168987 22.731302 L 102.265611 8.373249 Z M 110.86679 8.373249 " stroke="#000000" stroke-width="3.710418" stroke-opacity="1" stroke-miterlimit="4"/></g><g fill="#ff8811" fill-opacity="1"><g transform="translate(136.030383, 36.001472)"><g><path d="M 17.5 -8.5 C 17.5 -7.125 17.101562 -5.695312 16.3125 -4.21875 C 15.519531 -2.75 14.398438 -1.597656 12.953125 -0.765625 C 11.503906 0.0546875 9.945312 0.46875 8.28125 0.46875 C 6.28125 0.46875 4.65625 -0.117188 3.40625 -1.296875 C 2.164062 -2.472656 1.546875 -4.023438 1.546875 -5.953125 C 1.546875 -7.535156 1.960938 -8.992188 2.796875 -10.328125 C 3.640625 -11.671875 4.78125 -12.734375 6.21875 -13.515625 C 7.65625 -14.304688 9.144531 -14.703125 10.6875 -14.703125 C 11.90625 -14.703125 13.046875 -14.4375 14.109375 -13.90625 C 15.171875 -13.382812 16 -12.65625 16.59375 -11.71875 C 17.195312 -10.78125 17.5 -9.707031 17.5 -8.5 Z M 8.859375 -3.109375 C 9.710938 -3.109375 10.5 -3.34375 11.21875 -3.8125 C 11.945312 -4.289062 12.523438 -4.90625 12.953125 -5.65625 C 13.378906 -6.40625 13.59375 -7.144531 13.59375 -7.875 C 13.59375 -8.78125 13.25 -9.546875 12.5625 -10.171875 C 11.875 -10.804688 11.050781 -11.125 10.09375 -11.125 C 9.351562 -11.125 8.617188 -10.921875 7.890625 -10.515625 C 7.160156 -10.109375 6.570312 -9.566406 6.125 -8.890625 C 5.675781 -8.210938 5.453125 -7.457031 5.453125 -6.625 C 5.453125 -5.601562 5.769531 -4.757812 6.40625 -4.09375 C 7.039062 -3.4375 7.859375 -3.109375 8.859375 -3.109375 Z M 8.859375 -3.109375 "/></g></g></g><g fill="#ffffff" fill-opacity="1"><g transform="translate(150.764478, 36.001472)"><g><path d="M 7.15625 -14.234375 L 5.390625 -3.140625 L 9.828125 -3.140625 L 9.34375 0 L 1.203125 0 L 3.453125 -14.234375 Z M 7.15625 -14.234375 "/></g></g></g><g fill="#ffffff" fill-opacity="1"><g transform="translate(158.100707, 36.001472)"><g><path d="M 17.5 -8.5 C 17.5 -7.125 17.101562 -5.695312 16.3125 -4.21875 C 15.519531 -2.75 14.398438 -1.597656 12.953125 -0.765625 C 11.503906 0.0546875 9.945312 0.46875 8.28125 0.46875 C 6.28125 0.46875 4.65625 -0.117188 3.40625 -1.296875 C 2.164062 -2.472656 1.546875 -4.023438 1.546875 -5.953125 C 1.546875 -7.535156 1.960938 -8.992188 2.796875 -10.328125 C 3.640625 -11.671875 4.78125 -12.734375 6.21875 -13.515625 C 7.65625 -14.304688 9.144531 -14.703125 10.6875 -14.703125 C 11.90625 -14.703125 13.046875 -14.4375 14.109375 -13.90625 C 15.171875 -13.382812 16 -12.65625 16.59375 -11.71875 C 17.195312 -10.78125 17.5 -9.707031 17.5 -8.5 Z M 8.859375 -3.109375 C 9.710938 -3.109375 10.5 -3.34375 11.21875 -3.8125 C 11.945312 -4.289062 12.523438 -4.90625 12.953125 -5.65625 C 13.378906 -6.40625 13.59375 -7.144531 13.59375 -7.875 C 13.59375 -8.78125 13.25 -9.546875 12.5625 -10.171875 C 11.875 -10.804688 11.050781 -11.125 10.09375 -11.125 C 9.351562 -11.125 8.617188 -10.921875 7.890625 -10.515625 C 7.160156 -10.109375 6.570312 -9.566406 6.125 -8.890625 C 5.675781 -8.210938 5.453125 -7.457031 5.453125 -6.625 C 5.453125 -5.601562 5.769531 -4.757812 6.40625 -4.09375 C 7.039062 -3.4375 7.859375 -3.109375 8.859375 -3.109375 Z M 8.859375 -3.109375 "/></g></g></g><g fill="#ffffff" fill-opacity="1"><g transform="translate(172.830906, 36.001472)"><g><path d="M 12.59375 -9.25 C 12.226562 -10.757812 11.300781 -11.515625 9.8125 -11.515625 C 9.03125 -11.515625 8.296875 -11.257812 7.609375 -10.75 C 6.929688 -10.238281 6.390625 -9.5625 5.984375 -8.71875 C 5.578125 -7.882812 5.375 -7.035156 5.375 -6.171875 C 5.375 -5.085938 5.65625 -4.210938 6.21875 -3.546875 C 6.789062 -2.890625 7.554688 -2.5625 8.515625 -2.5625 C 9.378906 -2.5625 10.109375 -2.78125 10.703125 -3.21875 C 11.296875 -3.664062 11.6875 -4.273438 11.875 -5.046875 L 8.859375 -5.046875 L 9.328125 -7.953125 L 16.671875 -7.953125 C 16.335938 -5.960938 15.785156 -4.390625 15.015625 -3.234375 C 14.242188 -2.085938 13.257812 -1.179688 12.0625 -0.515625 C 10.875 0.140625 9.519531 0.46875 8 0.46875 C 6.039062 0.46875 4.460938 -0.0820312 3.265625 -1.1875 C 2.078125 -2.289062 1.484375 -3.769531 1.484375 -5.625 C 1.484375 -7.25 1.867188 -8.757812 2.640625 -10.15625 C 3.410156 -11.550781 4.488281 -12.65625 5.875 -13.46875 C 7.257812 -14.289062 8.8125 -14.703125 10.53125 -14.703125 C 13.539062 -14.703125 15.472656 -13.375 16.328125 -10.71875 Z M 12.59375 -9.25 "/></g></g></g><g fill="#ffffff" fill-opacity="1"><g transform="translate(186.712312, 36.001472)"><g><path d="M 6.328125 -14.234375 L 8.375 -10.359375 L 11.640625 -14.234375 L 16.078125 -14.234375 L 9.65625 -6.828125 L 8.59375 0 L 4.890625 0 L 5.96875 -6.828125 L 1.890625 -14.234375 Z M 6.328125 -14.234375 "/></g></g></g><path stroke-linecap="butt" transform="matrix(0.515009, 0, 0, 0.515009, 135.933819, 17.47216)" fill="none" stroke-linejoin="miter" d="M 33.96436 19.516691 C 33.96436 22.171376 33.198294 24.932248 31.658577 27.799308 C 30.118859 30.651198 27.942018 32.888718 25.135637 34.496699 C 22.329255 36.104679 19.310499 36.908669 16.086953 36.908669 C 12.203529 36.908669 9.048246 35.770947 6.62869 33.487918 C 4.216719 31.204889 3.003149 28.193718 3.003149 24.46199 C 3.003149 21.382555 3.814724 18.545835 5.437874 15.944243 C 7.068609 13.335067 9.27579 11.271998 12.074587 9.74745 C 14.873383 8.215318 17.763197 7.456836 20.736444 7.456836 C 23.110491 7.456836 25.325257 7.965019 27.388326 8.996554 C 29.451396 10.020503 31.066961 11.446449 32.219853 13.266804 C 33.38033 15.087159 33.96436 17.172983 33.96436 19.516691 Z M 17.186751 29.953395 C 18.847826 29.953395 20.379958 29.498306 21.783149 28.580544 C 23.186339 27.662781 24.308892 26.47955 25.135637 25.030851 C 25.962381 23.574566 26.379546 22.141036 26.379546 20.722676 C 26.379546 18.962999 25.712082 17.468791 24.38474 16.247636 C 23.057398 15.026481 21.457002 14.412111 19.598722 14.412111 C 18.165192 14.412111 16.731663 14.806521 15.313302 15.595342 C 13.902527 16.376578 12.75722 17.423282 11.884966 18.74304 C 11.020298 20.062797 10.587963 21.526666 10.587963 23.134647 C 10.587963 25.114284 11.202333 26.745019 12.431073 28.026852 C 13.667398 29.308686 15.252624 29.953395 17.186751 29.953395 Z M 17.186751 29.953395 " stroke="#000000" stroke-width="3.710418" stroke-opacity="1" stroke-miterlimit="4"/><g fill="#ff8811" fill-opacity="1"><g transform="translate(135.933819, 36.012496)"><g><path d="M 17.5 -8.5 C 17.5 -7.125 17.101562 -5.695312 16.3125 -4.21875 C 15.519531 -2.75 14.398438 -1.597656 12.953125 -0.765625 C 11.503906 0.0546875 9.945312 0.46875 8.28125 0.46875 C 6.28125 0.46875 4.65625 -0.117188 3.40625 -1.296875 C 2.164062 -2.472656 1.546875 -4.023438 1.546875 -5.953125 C 1.546875 -7.535156 1.960938 -8.992188 2.796875 -10.328125 C 3.640625 -11.671875 4.78125 -12.734375 6.21875 -13.515625 C 7.65625 -14.304688 9.144531 -14.703125 10.6875 -14.703125 C 11.90625 -14.703125 13.046875 -14.4375 14.109375 -13.90625 C 15.171875 -13.382812 16 -12.65625 16.59375 -11.71875 C 17.195312 -10.78125 17.5 -9.707031 17.5 -8.5 Z M 8.859375 -3.109375 C 9.710938 -3.109375 10.5 -3.34375 11.21875 -3.8125 C 11.945312 -4.289062 12.523438 -4.90625 12.953125 -5.65625 C 13.378906 -6.40625 13.59375 -7.144531 13.59375 -7.875 C 13.59375 -8.78125 13.25 -9.546875 12.5625 -10.171875 C 11.875 -10.804688 11.050781 -11.125 10.09375 -11.125 C 9.351562 -11.125 8.617188 -10.921875 7.890625 -10.515625 C 7.160156 -10.109375 6.570312 -9.566406 6.125 -8.890625 C 5.675781 -8.210938 5.453125 -7.457031 5.453125 -6.625 C 5.453125 -5.601562 5.769531 -4.757812 6.40625 -4.09375 C 7.039062 -3.4375 7.859375 -3.109375 8.859375 -3.109375 Z M 8.859375 -3.109375 "/></g></g></g><path stroke-linecap="butt" transform="matrix(0.515009, 0, 0, 0.515009, 124.113459, 17.47216)" fill="none" stroke-linejoin="miter" d="M 28.427538 8.374599 L 24.073855 35.998492 L 16.891036 35.998492 L 21.252304 8.374599 Z M 28.427538 8.374599 " stroke="#000000" stroke-width="3.710418" stroke-opacity="1" stroke-miterlimit="4"/><g fill="#ff8811" fill-opacity="1"><g transform="translate(131.605235, 36.012496)"><g><path d="M 7.15625 -14.234375 L 4.90625 0 L 1.203125 0 L 3.453125 -14.234375 Z M 7.15625 -14.234375 "/></g></g></g></svg>