<svg xmlns="http://www.w3.org/2000/svg" xmlns:xlink="http://www.w3.org/1999/xlink" width="285" zoomAndPan="magnify" viewBox="0 0 213.75 67.499998" height="90" preserveAspectRatio="xMidYMid meet" version="1.0"><defs><g/><clipPath id="e6e2d08bdd"><path d="M 7.652344 5.101562 L 205.847656 5.101562 L 205.847656 53.96875 L 7.652344 53.96875 Z M 7.652344 5.101562 " clip-rule="nonzero"/></clipPath><clipPath id="2f1a7340bf"><path d="M 7.664062 5.101562 L 205.835938 5.101562 L 205.835938 53.960938 L 7.664062 53.960938 Z M 7.664062 5.101562 " clip-rule="nonzero"/></clipPath></defs><g clip-path="url(#e6e2d08bdd)"><path fill="#000000" d="M 7.652344 5.101562 L 205.785156 5.101562 L 205.785156 53.96875 L 7.652344 53.96875 Z M 7.652344 5.101562 " fill-opacity="1" fill-rule="nonzero"/></g><g clip-path="url(#2f1a7340bf)"><path stroke-linecap="butt" transform="matrix(0.495488, 0, 0, 0.495488, 7.664458, 5.101971)" fill="none" stroke-linejoin="miter" d="M -0.000798626 -0.000824311 L 399.951938 -0.000824311 L 399.951938 98.607723 L -0.000798626 98.607723 Z M -0.000798626 -0.000824311 " stroke="#ffffff" stroke-width="12.020228" stroke-opacity="1" stroke-miterlimit="4"/></g><path stroke-linecap="butt" transform="matrix(0.486368, 0, 0, 0.486368, 16.724102, 18.058542)" fill="none" stroke-linejoin="miter" d="M 25.456812 19.299748 C 24.886577 18.303845 24.067366 17.532823 23.015243 17.002746 C 21.955087 16.464637 20.790523 16.199598 19.52155 16.199598 C 17.160295 16.199598 15.096205 17.107155 13.321249 18.922269 C 11.554323 20.745415 10.670861 22.897851 10.670861 25.387609 C 10.670861 27.250912 11.273222 28.76083 12.469912 29.925394 C 13.666602 31.081927 15.240772 31.660193 17.208484 31.660193 C 18.405174 31.660193 19.601864 31.387123 20.806586 30.857045 C 22.019339 30.318936 23.079494 29.588072 24.003114 28.664452 L 22.581543 37.442857 C 22.059497 37.611518 21.143908 37.868526 19.842809 38.221911 C 18.533678 38.567264 17.232578 38.743957 15.93951 38.743957 C 13.674634 38.743957 11.554323 38.254037 9.586611 37.274196 C 7.626931 36.286324 6.036698 34.90491 4.831976 33.129954 C 3.627255 31.354997 3.016862 29.274844 2.992768 26.905558 C 2.992768 23.725093 3.771821 20.785572 5.337959 18.086995 C 6.912129 15.380387 9.080628 13.211888 11.851488 11.573467 C 14.622348 9.927014 17.481554 9.107803 20.421075 9.107803 C 22.517291 9.107803 24.661696 9.58166 26.878383 10.521343 Z M 55.285721 21.203209 C 55.285721 23.909817 54.498636 26.728866 52.932498 29.644292 C 51.36636 32.551687 49.149672 34.824595 46.290466 36.471048 C 43.43126 38.10947 40.355204 38.928681 37.062298 38.928681 C 33.11081 38.928681 29.898219 37.764116 27.432555 35.443019 C 24.974923 33.113891 23.738076 30.045866 23.738076 26.246977 C 23.738076 23.106669 24.565318 20.215337 26.219802 17.564949 C 27.882318 14.914561 30.131132 12.810314 32.982307 11.252207 C 35.833481 9.694101 38.773002 8.915047 41.808901 8.915047 C 44.226376 8.915047 46.483221 9.437093 48.587469 10.489217 C 50.691716 11.533309 52.330137 12.978975 53.510765 14.842278 C 54.691392 16.69755 55.285721 18.81786 55.285721 21.203209 Z M 38.186704 31.836886 C 39.881346 31.836886 41.447485 31.37106 42.869056 30.44744 C 44.306691 29.507757 45.447161 28.303035 46.290466 26.825243 C 47.133771 25.347451 47.559439 23.877691 47.559439 22.432025 C 47.559439 20.641005 46.876764 19.123056 45.519444 17.878177 C 44.170156 16.633298 42.539766 16.006842 40.644337 16.006842 C 39.182608 16.006842 37.72891 16.408416 36.283244 17.211564 C 34.84561 18.00668 33.681045 19.074867 32.789551 20.416124 C 31.91412 21.765412 31.472389 23.251236 31.472389 24.897689 C 31.472389 26.91359 32.098844 28.576106 33.343723 29.877205 C 34.604665 31.186336 36.218992 31.836886 38.186704 31.836886 Z M 67.075931 9.85473 C 69.413091 9.85473 71.509307 10.376776 73.364578 11.404806 C 75.21985 12.440866 76.681579 13.862438 77.741734 15.677552 C 78.793857 17.500697 79.323935 19.436284 79.323935 21.500373 C 79.323935 24.343517 78.560944 27.034062 77.026932 29.588072 C 75.49292 32.13405 73.420799 34.174046 70.810568 35.700027 C 68.200338 37.234039 65.477667 37.997029 62.634524 37.997029 L 52.217697 37.997029 L 56.667135 9.85473 Z M 60.506182 31.80476 L 61.927753 31.80476 C 64.891369 31.80476 67.244592 30.929329 68.995454 29.178466 C 70.754348 27.419573 71.629779 25.146664 71.629779 22.359742 C 71.629779 20.464313 71.043481 18.938332 69.854822 17.781799 C 68.674195 16.633298 66.915301 16.055031 64.578141 16.055031 L 63.012003 16.055031 Z M 60.506182 31.80476 " stroke="#000000" stroke-width="3.779997" stroke-opacity="1" stroke-miterlimit="4"/><g fill="#ffffff" fill-opacity="1"><g transform="translate(16.724102, 36.540507)"><g><path d="M 12.375 -9.09375 C 12.101562 -9.582031 11.707031 -9.957031 11.1875 -10.21875 C 10.675781 -10.476562 10.113281 -10.609375 9.5 -10.609375 C 8.34375 -10.609375 7.332031 -10.164062 6.46875 -9.28125 C 5.613281 -8.394531 5.1875 -7.347656 5.1875 -6.140625 C 5.1875 -5.234375 5.476562 -4.5 6.0625 -3.9375 C 6.644531 -3.375 7.414062 -3.09375 8.375 -3.09375 C 8.945312 -3.09375 9.523438 -3.222656 10.109375 -3.484375 C 10.703125 -3.742188 11.222656 -4.097656 11.671875 -4.546875 L 10.984375 -0.265625 C 10.734375 -0.179688 10.289062 -0.0546875 9.65625 0.109375 C 9.019531 0.273438 8.382812 0.359375 7.75 0.359375 C 6.644531 0.359375 5.613281 0.117188 4.65625 -0.359375 C 3.707031 -0.835938 2.9375 -1.507812 2.34375 -2.375 C 1.757812 -3.238281 1.460938 -4.242188 1.453125 -5.390625 C 1.453125 -6.941406 1.832031 -8.375 2.59375 -9.6875 C 3.351562 -11 4.40625 -12.050781 5.75 -12.84375 C 7.101562 -13.644531 8.5 -14.046875 9.9375 -14.046875 C 10.945312 -14.046875 11.992188 -13.816406 13.078125 -13.359375 Z M 12.375 -9.09375 "/></g></g></g><g fill="#ffffff" fill-opacity="1"><g transform="translate(26.781848, 36.540507)"><g><path d="M 16.828125 -8.171875 C 16.828125 -6.847656 16.445312 -5.476562 15.6875 -4.0625 C 14.925781 -2.644531 13.847656 -1.535156 12.453125 -0.734375 C 11.066406 0.0546875 9.570312 0.453125 7.96875 0.453125 C 6.039062 0.453125 4.476562 -0.109375 3.28125 -1.234375 C 2.082031 -2.367188 1.484375 -3.863281 1.484375 -5.71875 C 1.484375 -7.238281 1.882812 -8.644531 2.6875 -9.9375 C 3.5 -11.226562 4.597656 -12.25 5.984375 -13 C 7.367188 -13.757812 8.800781 -14.140625 10.28125 -14.140625 C 11.445312 -14.140625 12.539062 -13.882812 13.5625 -13.375 C 14.59375 -12.875 15.394531 -12.171875 15.96875 -11.265625 C 16.539062 -10.359375 16.828125 -9.328125 16.828125 -8.171875 Z M 8.515625 -3 C 9.335938 -3 10.097656 -3.222656 10.796875 -3.671875 C 11.492188 -4.128906 12.046875 -4.71875 12.453125 -5.4375 C 12.867188 -6.15625 13.078125 -6.867188 13.078125 -7.578125 C 13.078125 -8.441406 12.742188 -9.175781 12.078125 -9.78125 C 11.421875 -10.382812 10.632812 -10.6875 9.71875 -10.6875 C 9 -10.6875 8.285156 -10.492188 7.578125 -10.109375 C 6.878906 -9.722656 6.316406 -9.203125 5.890625 -8.546875 C 5.460938 -7.898438 5.25 -7.175781 5.25 -6.375 C 5.25 -5.394531 5.550781 -4.585938 6.15625 -3.953125 C 6.769531 -3.316406 7.554688 -3 8.515625 -3 Z M 8.515625 -3 "/></g></g></g><g fill="#ffffff" fill-opacity="1"><g transform="translate(40.960834, 36.540507)"><g><path d="M 8.390625 -13.6875 C 9.523438 -13.6875 10.539062 -13.4375 11.4375 -12.9375 C 12.34375 -12.4375 13.050781 -11.742188 13.5625 -10.859375 C 14.082031 -9.972656 14.34375 -9.03125 14.34375 -8.03125 C 14.34375 -6.644531 13.96875 -5.332031 13.21875 -4.09375 C 12.476562 -2.851562 11.472656 -1.859375 10.203125 -1.109375 C 8.929688 -0.367188 7.609375 0 6.234375 0 L 1.15625 0 L 3.328125 -13.6875 Z M 5.1875 -3.015625 L 5.875 -3.015625 C 7.320312 -3.015625 8.472656 -3.441406 9.328125 -4.296875 C 10.179688 -5.148438 10.609375 -6.253906 10.609375 -7.609375 C 10.609375 -8.523438 10.316406 -9.265625 9.734375 -9.828125 C 9.160156 -10.390625 8.304688 -10.671875 7.171875 -10.671875 L 6.40625 -10.671875 Z M 5.1875 -3.015625 "/></g></g></g><path stroke-linecap="butt" transform="matrix(0.486368, 0, 0, 0.486368, 51.666426, 18.058542)" fill="none" stroke-linejoin="miter" d="M 15.222824 9.85473 L 10.781416 37.997029 L 3.46474 37.997029 L 7.914179 9.85473 Z M 23.358711 9.85473 L 34.040577 27.066188 L 34.11286 27.066188 L 36.835531 9.85473 L 44.160239 9.85473 L 39.7108 37.997029 L 32.402155 37.997029 L 21.72029 20.753446 L 21.648006 20.753446 L 18.917304 37.997029 L 11.600627 37.997029 L 16.050066 9.85473 Z M 63.042244 19.709354 C 62.319411 16.721644 60.488234 15.227789 57.556744 15.227789 C 56.014701 15.227789 54.561003 15.725741 53.211715 16.737707 C 51.854395 17.749673 50.778177 19.082899 49.975029 20.737383 C 49.179913 22.391867 48.778339 24.078478 48.778339 25.797214 C 48.778339 27.933587 49.340542 29.660355 50.456918 30.961455 C 51.581325 32.270585 53.091243 32.921135 54.97864 32.921135 C 56.697376 32.921135 58.143042 32.487435 59.307607 31.620036 C 60.480202 30.744605 61.251224 29.547914 61.620672 28.029965 L 55.653284 28.029965 L 56.584936 22.287458 L 71.105848 22.287458 C 70.455298 26.222883 69.371049 29.323033 67.837036 31.603973 C 66.303024 33.876881 64.367438 35.659869 62.014215 36.969 C 59.660992 38.278131 56.978478 38.928681 53.974705 38.928681 C 50.095501 38.928681 46.971256 37.8364 44.626065 35.651838 C 42.272842 33.459244 41.100246 30.535786 41.100246 26.873432 C 41.100246 23.660841 41.855205 20.681163 43.365123 17.926366 C 44.883072 15.155506 47.011414 12.970944 49.742116 11.348585 C 52.488882 9.726227 55.564938 8.915047 58.978316 8.915047 C 64.929641 8.915047 68.744593 11.541341 70.431204 16.793927 Z M 63.042244 19.709354 " stroke="#000000" stroke-width="3.779997" stroke-opacity="1" stroke-miterlimit="4"/><g fill="#ffffff" fill-opacity="1"><g transform="translate(52.19079, 36.540507)"><g><path d="M 6.875 -13.6875 L 4.71875 0 L 1.15625 0 L 3.328125 -13.6875 Z M 6.875 -13.6875 "/></g></g></g><g fill="#ffffff" fill-opacity="1"><g transform="translate(56.14837, 36.540507)"><g><path d="M 6.875 -13.6875 L 12.078125 -5.3125 L 12.109375 -5.3125 L 13.4375 -13.6875 L 17 -13.6875 L 14.828125 0 L 11.28125 0 L 6.078125 -8.390625 L 6.046875 -8.390625 L 4.71875 0 L 1.15625 0 L 3.328125 -13.6875 Z M 6.875 -13.6875 "/></g></g></g><g fill="#ffffff" fill-opacity="1"><g transform="translate(70.218424, 36.540507)"><g><path d="M 12.109375 -8.890625 C 11.753906 -10.347656 10.863281 -11.078125 9.4375 -11.078125 C 8.6875 -11.078125 7.984375 -10.832031 7.328125 -10.34375 C 6.671875 -9.851562 6.144531 -9.203125 5.75 -8.390625 C 5.363281 -7.585938 5.171875 -6.769531 5.171875 -5.9375 C 5.171875 -4.894531 5.441406 -4.054688 5.984375 -3.421875 C 6.535156 -2.785156 7.269531 -2.46875 8.1875 -2.46875 C 9.019531 -2.46875 9.71875 -2.675781 10.28125 -3.09375 C 10.851562 -3.519531 11.234375 -4.101562 11.421875 -4.84375 L 8.515625 -4.84375 L 8.96875 -7.640625 L 16.03125 -7.640625 C 15.71875 -5.734375 15.1875 -4.222656 14.4375 -3.109375 C 13.695312 -2.003906 12.753906 -1.132812 11.609375 -0.5 C 10.460938 0.132812 9.160156 0.453125 7.703125 0.453125 C 5.804688 0.453125 4.285156 -0.078125 3.140625 -1.140625 C 2.003906 -2.203125 1.4375 -3.625 1.4375 -5.40625 C 1.4375 -6.96875 1.804688 -8.421875 2.546875 -9.765625 C 3.285156 -11.109375 4.316406 -12.171875 5.640625 -12.953125 C 6.972656 -13.742188 8.46875 -14.140625 10.125 -14.140625 C 13.019531 -14.140625 14.878906 -12.863281 15.703125 -10.3125 Z M 12.109375 -8.890625 "/></g></g></g><path stroke-linecap="butt" transform="matrix(0.486368, 0, 0, 0.486368, 88.681843, 18.058542)" fill="none" stroke-linejoin="miter" d="M 18.218991 9.85473 C 20.925599 9.85473 23.070004 10.465123 24.636142 11.685907 C 26.20228 12.906692 26.989365 14.68968 26.989365 17.058966 C 26.989365 18.922269 26.57976 20.841792 25.752517 22.809504 C 24.933307 24.777216 23.608113 26.255008 21.760873 27.250912 C 19.921664 28.246815 17.857574 28.712641 15.568603 28.664452 L 11.199479 28.664452 L 9.705624 37.997029 L 2.388948 37.997029 L 6.838387 9.85473 Z M 13.21538 15.749835 L 12.131131 22.769347 L 13.92215 22.769347 C 15.994272 22.769347 17.391749 22.399899 18.114582 21.652972 C 18.853478 20.906044 19.222926 19.781637 19.222926 18.287782 C 19.222926 17.372194 18.91773 16.721644 18.307337 16.336133 C 17.704976 15.950622 16.725136 15.749835 15.383879 15.749835 Z M 34.860213 9.85473 L 33.149509 20.72132 L 43.710902 20.72132 L 45.429639 9.85473 L 52.746315 9.85473 L 48.304908 37.997029 L 40.988231 37.997029 L 42.819408 26.463827 L 32.258015 26.463827 L 30.418806 37.997029 L 23.10213 37.997029 L 27.551568 9.85473 Z M 59.235749 9.85473 L 63.31574 17.500697 L 69.765017 9.85473 L 78.543422 9.85473 L 65.845656 24.488083 L 63.725345 37.997029 L 56.400637 37.997029 L 58.528979 24.488083 L 50.473407 9.85473 Z M 85.924351 9.107803 C 88.936155 9.107803 91.763235 9.878825 94.39756 11.420869 L 90.590639 17.091092 C 89.273477 15.846213 87.755528 15.227789 86.044823 15.227789 C 85.145297 15.227789 84.326087 15.476765 83.595222 15.99078 C 82.864358 16.496763 82.49491 17.131249 82.49491 17.878177 C 82.49491 18.424317 82.759948 18.906206 83.281994 19.315811 C 83.80404 19.733448 84.759786 20.135022 86.149232 20.528565 C 88.044661 21.0988 89.410012 21.652972 90.253317 22.191081 C 91.104654 22.721158 91.763235 23.379739 92.229061 24.166824 C 92.702918 24.945878 92.943862 25.925718 92.943862 27.098314 C 92.943862 28.792955 92.510163 30.583975 91.642763 32.479404 C 90.767332 34.366801 89.34576 35.876719 87.361985 37.001126 C 85.386242 38.117501 83.04105 38.695768 80.32641 38.743957 C 76.84878 38.743957 73.708473 37.67577 70.92155 35.539397 L 74.985478 29.636261 C 76.929095 31.579878 78.936965 32.551687 81.001055 32.551687 C 82.149556 32.551687 83.105302 32.254522 83.892387 31.660193 C 84.679472 31.057832 85.064982 30.294842 85.064982 29.379253 C 85.064982 28.182563 83.876324 27.258943 81.482943 26.616425 C 78.599643 25.821309 76.728308 24.969972 75.885003 24.062415 C 75.033666 23.154858 74.61603 21.942105 74.61603 20.416124 C 74.61603 17.235659 75.700279 14.553145 77.87681 12.384646 C 80.061372 10.200084 82.743885 9.107803 85.924351 9.107803 Z M 102.573605 9.85473 L 98.132197 37.997029 L 90.815521 37.997029 L 95.26496 9.85473 Z M 131.173698 21.203209 C 131.173698 23.909817 130.386613 26.728866 128.820475 29.644292 C 127.254336 32.551687 125.037649 34.824595 122.178442 36.471048 C 119.311205 38.10947 116.235149 38.928681 112.950274 38.928681 C 108.998787 38.928681 105.786196 37.764116 103.320532 35.443019 C 100.854868 33.113891 99.626052 30.045866 99.626052 26.246977 C 99.626052 23.106669 100.453294 20.215337 102.107779 17.564949 C 103.762263 14.914561 106.019109 12.810314 108.870283 11.252207 C 111.721458 9.694101 114.660979 8.915047 117.688846 8.915047 C 120.106321 8.915047 122.371198 9.437093 124.475445 10.489217 C 126.571661 11.533309 128.218114 12.978975 129.39071 14.842278 C 130.579368 16.69755 131.173698 18.81786 131.173698 21.203209 Z M 114.074681 31.836886 C 115.769323 31.836886 117.32743 31.37106 118.757033 30.44744 C 120.194667 29.507757 121.327106 28.303035 122.178442 26.825243 C 123.021748 25.347451 123.439384 23.877691 123.439384 22.432025 C 123.439384 20.641005 122.76474 19.123056 121.40742 17.878177 C 120.058132 16.633298 118.427742 16.006842 116.532313 16.006842 C 115.070584 16.006842 113.616887 16.408416 112.171221 17.211564 C 110.725555 18.00668 109.56099 19.074867 108.677528 20.416124 C 107.794065 21.765412 107.352334 23.251236 107.352334 24.897689 C 107.352334 26.91359 107.978789 28.576106 109.2317 29.877205 C 110.492642 31.186336 112.106969 31.836886 114.074681 31.836886 Z M 114.074681 31.836886 " stroke="#000000" stroke-width="3.779997" stroke-opacity="1" stroke-miterlimit="4"/><g fill="#ffffff" fill-opacity="1"><g transform="translate(88.681843, 36.540507)"><g><path d="M 8.859375 -13.6875 C 10.179688 -13.6875 11.222656 -13.390625 11.984375 -12.796875 C 12.742188 -12.203125 13.125 -11.332031 13.125 -10.1875 C 13.125 -9.28125 12.921875 -8.347656 12.515625 -7.390625 C 12.117188 -6.429688 11.472656 -5.707031 10.578125 -5.21875 C 9.679688 -4.738281 8.679688 -4.515625 7.578125 -4.546875 L 5.453125 -4.546875 L 4.71875 0 L 1.15625 0 L 3.328125 -13.6875 Z M 6.421875 -10.828125 L 5.90625 -7.40625 L 6.765625 -7.40625 C 7.773438 -7.40625 8.457031 -7.585938 8.8125 -7.953125 C 9.164062 -8.316406 9.34375 -8.863281 9.34375 -9.59375 C 9.34375 -10.039062 9.191406 -10.359375 8.890625 -10.546875 C 8.597656 -10.734375 8.128906 -10.828125 7.484375 -10.828125 Z M 6.421875 -10.828125 "/></g></g></g><g fill="#ffffff" fill-opacity="1"><g transform="translate(98.757742, 36.540507)"><g><path d="M 6.875 -13.6875 L 6.046875 -8.40625 L 11.1875 -8.40625 L 12.015625 -13.6875 L 15.578125 -13.6875 L 13.421875 0 L 9.859375 0 L 10.75 -5.609375 L 5.609375 -5.609375 L 4.71875 0 L 1.15625 0 L 3.328125 -13.6875 Z M 6.875 -13.6875 "/></g></g></g><g fill="#ffffff" fill-opacity="1"><g transform="translate(111.411686, 36.540507)"><g><path d="M 6.078125 -13.6875 L 8.0625 -9.96875 L 11.203125 -13.6875 L 15.46875 -13.6875 L 9.296875 -6.578125 L 8.265625 0 L 4.703125 0 L 5.734375 -6.578125 L 1.8125 -13.6875 Z M 6.078125 -13.6875 "/></g></g></g><g fill="#ffffff" fill-opacity="1"><g transform="translate(122.449809, 36.540507)"><g><path d="M 8.03125 -14.046875 C 9.488281 -14.046875 10.859375 -13.671875 12.140625 -12.921875 L 10.296875 -10.171875 C 9.648438 -10.773438 8.910156 -11.078125 8.078125 -11.078125 C 7.640625 -11.078125 7.242188 -10.953125 6.890625 -10.703125 C 6.535156 -10.453125 6.359375 -10.144531 6.359375 -9.78125 C 6.359375 -9.519531 6.484375 -9.285156 6.734375 -9.078125 C 6.992188 -8.878906 7.460938 -8.6875 8.140625 -8.5 C 9.054688 -8.21875 9.71875 -7.945312 10.125 -7.6875 C 10.539062 -7.425781 10.863281 -7.101562 11.09375 -6.71875 C 11.320312 -6.34375 11.4375 -5.867188 11.4375 -5.296875 C 11.4375 -4.472656 11.222656 -3.601562 10.796875 -2.6875 C 10.378906 -1.769531 9.6875 -1.035156 8.71875 -0.484375 C 7.757812 0.0546875 6.617188 0.335938 5.296875 0.359375 C 3.609375 0.359375 2.082031 -0.160156 0.71875 -1.203125 L 2.703125 -4.0625 C 3.648438 -3.125 4.625 -2.65625 5.625 -2.65625 C 6.1875 -2.65625 6.65625 -2.796875 7.03125 -3.078125 C 7.414062 -3.367188 7.609375 -3.738281 7.609375 -4.1875 C 7.609375 -4.769531 7.023438 -5.21875 5.859375 -5.53125 C 4.460938 -5.925781 3.554688 -6.34375 3.140625 -6.78125 C 2.734375 -7.21875 2.53125 -7.804688 2.53125 -8.546875 C 2.53125 -10.097656 3.054688 -11.398438 4.109375 -12.453125 C 5.171875 -13.515625 6.476562 -14.046875 8.03125 -14.046875 Z M 8.03125 -14.046875 "/></g></g></g><g fill="#ffffff" fill-opacity="1"><g transform="translate(131.690566, 36.540507)"><g><path d="M 6.875 -13.6875 L 4.71875 0 L 1.15625 0 L 3.328125 -13.6875 Z M 6.875 -13.6875 "/></g></g></g><g fill="#ffffff" fill-opacity="1"><g transform="translate(135.648146, 36.540507)"><g><path d="M 16.828125 -8.171875 C 16.828125 -6.847656 16.445312 -5.476562 15.6875 -4.0625 C 14.925781 -2.644531 13.847656 -1.535156 12.453125 -0.734375 C 11.066406 0.0546875 9.570312 0.453125 7.96875 0.453125 C 6.039062 0.453125 4.476562 -0.109375 3.28125 -1.234375 C 2.082031 -2.367188 1.484375 -3.863281 1.484375 -5.71875 C 1.484375 -7.238281 1.882812 -8.644531 2.6875 -9.9375 C 3.5 -11.226562 4.597656 -12.25 5.984375 -13 C 7.367188 -13.757812 8.800781 -14.140625 10.28125 -14.140625 C 11.445312 -14.140625 12.539062 -13.882812 13.5625 -13.375 C 14.59375 -12.875 15.394531 -12.171875 15.96875 -11.265625 C 16.539062 -10.359375 16.828125 -9.328125 16.828125 -8.171875 Z M 8.515625 -3 C 9.335938 -3 10.097656 -3.222656 10.796875 -3.671875 C 11.492188 -4.128906 12.046875 -4.71875 12.453125 -5.4375 C 12.867188 -6.15625 13.078125 -6.867188 13.078125 -7.578125 C 13.078125 -8.441406 12.742188 -9.175781 12.078125 -9.78125 C 11.421875 -10.382812 10.632812 -10.6875 9.71875 -10.6875 C 9 -10.6875 8.285156 -10.492188 7.578125 -10.109375 C 6.878906 -9.722656 6.316406 -9.203125 5.890625 -8.546875 C 5.460938 -7.898438 5.25 -7.175781 5.25 -6.375 C 5.25 -5.394531 5.550781 -4.585938 6.15625 -3.953125 C 6.769531 -3.316406 7.554688 -3 8.515625 -3 Z M 8.515625 -3 "/></g></g></g><path stroke-linecap="butt" transform="matrix(0.486368, 0, 0, 0.486368, 148.135613, 18.058542)" fill="none" stroke-linejoin="miter" d="M 14.145707 9.85473 L 10.676108 31.80476 L 19.446482 31.80476 L 18.482705 37.997029 L 2.387623 37.997029 L 6.837062 9.85473 Z M 49.122793 21.203209 C 49.122793 23.909817 48.34374 26.728866 46.777602 29.644292 C 45.203432 32.551687 42.994776 34.824595 40.127538 36.471048 C 37.268332 38.10947 34.192276 38.928681 30.907401 38.928681 C 26.947883 38.928681 23.743323 37.764116 21.269628 35.443019 C 18.811995 33.113891 17.583179 30.045866 17.583179 26.246977 C 17.583179 23.106669 18.410421 20.215337 20.064906 17.564949 C 21.71939 14.914561 23.976236 12.810314 26.82741 11.252207 C 29.670554 9.694101 32.610075 8.915047 35.645973 8.915047 C 38.063448 8.915047 40.320293 9.437093 42.424541 10.489217 C 44.528788 11.533309 46.167209 12.978975 47.347837 14.842278 C 48.536496 16.69755 49.122793 18.81786 49.122793 21.203209 Z M 32.023777 31.836886 C 33.72645 31.836886 35.284557 31.37106 36.71416 30.44744 C 38.143763 29.507757 39.284233 28.303035 40.127538 26.825243 C 40.970843 25.347451 41.396512 23.877691 41.396512 22.432025 C 41.396512 20.641005 40.721867 19.123056 39.364548 17.878177 C 38.007228 16.633298 36.384869 16.006842 34.48944 16.006842 C 33.027711 16.006842 31.565982 16.408416 30.120316 17.211564 C 28.682682 18.00668 27.518118 19.074867 26.634655 20.416124 C 25.751192 21.765412 25.309461 23.251236 25.309461 24.897689 C 25.309461 26.91359 25.935916 28.576106 27.188827 29.877205 C 28.449769 31.186336 30.056065 31.836886 32.023777 31.836886 Z M 68.575033 19.709354 C 67.8522 16.721644 66.021023 15.227789 63.081502 15.227789 C 61.539458 15.227789 60.093792 15.725741 58.736473 16.737707 C 57.379153 17.749673 56.302935 19.082899 55.499787 20.737383 C 54.704671 22.391867 54.311128 24.078478 54.311128 25.797214 C 54.311128 27.933587 54.8653 29.660355 55.981676 30.961455 C 57.106083 32.270585 58.616 32.921135 60.503398 32.921135 C 62.222134 32.921135 63.6678 32.487435 64.832364 31.620036 C 66.00496 30.744605 66.775982 29.547914 67.153462 28.029965 L 61.178042 28.029965 L 62.109693 22.287458 L 76.638637 22.287458 C 75.988087 26.222883 74.895806 29.323033 73.361794 31.603973 C 71.835813 33.876881 69.892196 35.659869 67.538972 36.969 C 65.193781 38.278131 62.511267 38.928681 59.507494 38.928681 C 55.620259 38.928681 52.504046 37.8364 50.150823 35.651838 C 47.7976 33.459244 46.625004 30.535786 46.625004 26.873432 C 46.625004 23.660841 47.379963 20.681163 48.897912 17.926366 C 50.415861 15.155506 52.544203 12.970944 55.274906 11.348585 C 58.01364 9.726227 61.089696 8.915047 64.503074 8.915047 C 70.454399 8.915047 74.277383 11.541341 75.963993 16.793927 Z M 83.650117 9.85473 L 87.722077 17.500697 L 94.179385 9.85473 L 102.949759 9.85473 L 90.260024 24.488083 L 88.131682 37.997029 L 80.815006 37.997029 L 82.935316 24.488083 L 74.879743 9.85473 Z M 83.650117 9.85473 " stroke="#000000" stroke-width="3.779997" stroke-opacity="1" stroke-miterlimit="4"/><g fill="#ffffff" fill-opacity="1"><g transform="translate(148.135613, 36.540507)"><g><path d="M 6.875 -13.6875 L 5.1875 -3.015625 L 9.453125 -3.015625 L 8.984375 0 L 1.15625 0 L 3.328125 -13.6875 Z M 6.875 -13.6875 "/></g></g></g><g fill="#ffffff" fill-opacity="1"><g transform="translate(155.197741, 36.540507)"><g><path d="M 16.828125 -8.171875 C 16.828125 -6.847656 16.445312 -5.476562 15.6875 -4.0625 C 14.925781 -2.644531 13.847656 -1.535156 12.453125 -0.734375 C 11.066406 0.0546875 9.570312 0.453125 7.96875 0.453125 C 6.039062 0.453125 4.476562 -0.109375 3.28125 -1.234375 C 2.082031 -2.367188 1.484375 -3.863281 1.484375 -5.71875 C 1.484375 -7.238281 1.882812 -8.644531 2.6875 -9.9375 C 3.5 -11.226562 4.597656 -12.25 5.984375 -13 C 7.367188 -13.757812 8.800781 -14.140625 10.28125 -14.140625 C 11.445312 -14.140625 12.539062 -13.882812 13.5625 -13.375 C 14.59375 -12.875 15.394531 -12.171875 15.96875 -11.265625 C 16.539062 -10.359375 16.828125 -9.328125 16.828125 -8.171875 Z M 8.515625 -3 C 9.335938 -3 10.097656 -3.222656 10.796875 -3.671875 C 11.492188 -4.128906 12.046875 -4.71875 12.453125 -5.4375 C 12.867188 -6.15625 13.078125 -6.867188 13.078125 -7.578125 C 13.078125 -8.441406 12.742188 -9.175781 12.078125 -9.78125 C 11.421875 -10.382812 10.632812 -10.6875 9.71875 -10.6875 C 9 -10.6875 8.285156 -10.492188 7.578125 -10.109375 C 6.878906 -9.722656 6.316406 -9.203125 5.890625 -8.546875 C 5.460938 -7.898438 5.25 -7.175781 5.25 -6.375 C 5.25 -5.394531 5.550781 -4.585938 6.15625 -3.953125 C 6.769531 -3.316406 7.554688 -3 8.515625 -3 Z M 8.515625 -3 "/></g></g></g><g fill="#ffffff" fill-opacity="1"><g transform="translate(169.376726, 36.540507)"><g><path d="M 12.109375 -8.890625 C 11.753906 -10.347656 10.863281 -11.078125 9.4375 -11.078125 C 8.6875 -11.078125 7.984375 -10.832031 7.328125 -10.34375 C 6.671875 -9.851562 6.144531 -9.203125 5.75 -8.390625 C 5.363281 -7.585938 5.171875 -6.769531 5.171875 -5.9375 C 5.171875 -4.894531 5.441406 -4.054688 5.984375 -3.421875 C 6.535156 -2.785156 7.269531 -2.46875 8.1875 -2.46875 C 9.019531 -2.46875 9.71875 -2.675781 10.28125 -3.09375 C 10.851562 -3.519531 11.234375 -4.101562 11.421875 -4.84375 L 8.515625 -4.84375 L 8.96875 -7.640625 L 16.03125 -7.640625 C 15.71875 -5.734375 15.1875 -4.222656 14.4375 -3.109375 C 13.695312 -2.003906 12.753906 -1.132812 11.609375 -0.5 C 10.460938 0.132812 9.160156 0.453125 7.703125 0.453125 C 5.804688 0.453125 4.285156 -0.078125 3.140625 -1.140625 C 2.003906 -2.203125 1.4375 -3.625 1.4375 -5.40625 C 1.4375 -6.96875 1.804688 -8.421875 2.546875 -9.765625 C 3.285156 -11.109375 4.316406 -12.171875 5.640625 -12.953125 C 6.972656 -13.742188 8.46875 -14.140625 10.125 -14.140625 C 13.019531 -14.140625 14.878906 -12.863281 15.703125 -10.3125 Z M 12.109375 -8.890625 "/></g></g></g><g fill="#ffffff" fill-opacity="1"><g transform="translate(182.738722, 36.540507)"><g><path d="M 6.078125 -13.6875 L 8.0625 -9.96875 L 11.203125 -13.6875 L 15.46875 -13.6875 L 9.296875 -6.578125 L 8.265625 0 L 4.703125 0 L 5.734375 -6.578125 L 1.8125 -13.6875 Z M 6.078125 -13.6875 "/></g></g></g><g fill="#ffffff" fill-opacity="1"><g transform="translate(7.408163, 60.437256)"><g><path d="M 2.171875 -2.296875 C 2.171875 -2.398438 2.148438 -2.492188 2.109375 -2.578125 C 2.066406 -2.660156 2.007812 -2.726562 1.9375 -2.78125 C 1.875 -2.832031 1.796875 -2.867188 1.703125 -2.890625 C 1.609375 -2.921875 1.507812 -2.9375 1.40625 -2.9375 C 1.320312 -2.9375 1.238281 -2.925781 1.15625 -2.90625 C 1.070312 -2.882812 1 -2.851562 0.9375 -2.8125 C 0.875 -2.769531 0.820312 -2.710938 0.78125 -2.640625 C 0.75 -2.578125 0.734375 -2.503906 0.734375 -2.421875 L 0.734375 -2.40625 C 0.734375 -2.3125 0.75 -2.234375 0.78125 -2.171875 C 0.820312 -2.109375 0.878906 -2.050781 0.953125 -2 C 1.023438 -1.957031 1.113281 -1.921875 1.21875 -1.890625 C 1.332031 -1.867188 1.460938 -1.847656 1.609375 -1.828125 C 1.941406 -1.773438 2.1875 -1.671875 2.34375 -1.515625 C 2.507812 -1.367188 2.59375 -1.175781 2.59375 -0.9375 L 2.59375 -0.875 C 2.59375 -0.738281 2.566406 -0.613281 2.515625 -0.5 C 2.472656 -0.382812 2.40625 -0.285156 2.3125 -0.203125 C 2.21875 -0.117188 2.097656 -0.0507812 1.953125 0 C 1.816406 0.0390625 1.660156 0.0625 1.484375 0.0625 C 1.273438 0.0625 1.085938 0.0351562 0.921875 -0.015625 C 0.765625 -0.078125 0.632812 -0.160156 0.53125 -0.265625 C 0.425781 -0.378906 0.34375 -0.503906 0.28125 -0.640625 C 0.226562 -0.785156 0.203125 -0.945312 0.203125 -1.125 L 0.203125 -1.265625 L 0.59375 -1.265625 L 0.59375 -1.140625 C 0.59375 -0.859375 0.671875 -0.644531 0.828125 -0.5 C 0.984375 -0.363281 1.203125 -0.296875 1.484375 -0.296875 C 1.722656 -0.296875 1.898438 -0.347656 2.015625 -0.453125 C 2.140625 -0.554688 2.203125 -0.695312 2.203125 -0.875 L 2.203125 -0.90625 C 2.203125 -1.070312 2.140625 -1.195312 2.015625 -1.28125 C 1.890625 -1.375 1.6875 -1.441406 1.40625 -1.484375 C 1.25 -1.503906 1.101562 -1.535156 0.96875 -1.578125 C 0.832031 -1.628906 0.71875 -1.691406 0.625 -1.765625 C 0.539062 -1.835938 0.472656 -1.921875 0.421875 -2.015625 C 0.367188 -2.117188 0.34375 -2.242188 0.34375 -2.390625 L 0.34375 -2.4375 C 0.34375 -2.5625 0.367188 -2.675781 0.421875 -2.78125 C 0.472656 -2.894531 0.546875 -2.988281 0.640625 -3.0625 C 0.734375 -3.132812 0.84375 -3.191406 0.96875 -3.234375 C 1.101562 -3.273438 1.253906 -3.296875 1.421875 -3.296875 C 1.597656 -3.296875 1.757812 -3.269531 1.90625 -3.21875 C 2.050781 -3.164062 2.171875 -3.09375 2.265625 -3 C 2.367188 -2.914062 2.441406 -2.816406 2.484375 -2.703125 C 2.535156 -2.585938 2.5625 -2.460938 2.5625 -2.328125 L 2.5625 -2.140625 L 2.171875 -2.140625 Z M 2.171875 -2.296875 "/></g></g></g><g fill="#ffffff" fill-opacity="1"><g transform="translate(9.748206, 60.437256)"><g><path d="M 0.78125 -1.328125 L 0.78125 0 L 0.390625 0 L 0.390625 -3.234375 L 1.546875 -3.234375 C 1.710938 -3.234375 1.859375 -3.207031 1.984375 -3.15625 C 2.109375 -3.113281 2.210938 -3.050781 2.296875 -2.96875 C 2.378906 -2.894531 2.441406 -2.800781 2.484375 -2.6875 C 2.523438 -2.582031 2.546875 -2.472656 2.546875 -2.359375 L 2.546875 -2.21875 C 2.546875 -2.101562 2.523438 -1.988281 2.484375 -1.875 C 2.441406 -1.769531 2.378906 -1.675781 2.296875 -1.59375 C 2.210938 -1.507812 2.109375 -1.441406 1.984375 -1.390625 C 1.859375 -1.347656 1.710938 -1.328125 1.546875 -1.328125 Z M 0.78125 -1.6875 L 1.5 -1.6875 C 1.9375 -1.6875 2.15625 -1.875 2.15625 -2.25 L 2.15625 -2.328125 C 2.15625 -2.492188 2.097656 -2.625 1.984375 -2.71875 C 1.878906 -2.820312 1.71875 -2.875 1.5 -2.875 L 0.78125 -2.875 Z M 0.78125 -1.6875 "/></g></g></g><g fill="#ffffff" fill-opacity="1"><g transform="translate(12.088249, 60.437256)"><g><path d="M 0.28125 -1.984375 C 0.28125 -2.398438 0.378906 -2.722656 0.578125 -2.953125 C 0.773438 -3.179688 1.054688 -3.296875 1.421875 -3.296875 C 1.773438 -3.296875 2.050781 -3.179688 2.25 -2.953125 C 2.445312 -2.722656 2.546875 -2.398438 2.546875 -1.984375 L 2.546875 -1.265625 C 2.546875 -0.828125 2.445312 -0.492188 2.25 -0.265625 C 2.050781 -0.046875 1.773438 0.0625 1.421875 0.0625 C 1.054688 0.0625 0.773438 -0.046875 0.578125 -0.265625 C 0.378906 -0.492188 0.28125 -0.828125 0.28125 -1.265625 Z M 1.421875 -0.296875 C 1.671875 -0.296875 1.859375 -0.378906 1.984375 -0.546875 C 2.109375 -0.722656 2.171875 -0.96875 2.171875 -1.28125 L 2.171875 -1.953125 C 2.171875 -2.242188 2.109375 -2.476562 1.984375 -2.65625 C 1.859375 -2.84375 1.671875 -2.9375 1.421875 -2.9375 C 1.171875 -2.9375 0.984375 -2.84375 0.859375 -2.65625 C 0.734375 -2.476562 0.671875 -2.242188 0.671875 -1.953125 L 0.671875 -1.28125 C 0.671875 -0.96875 0.734375 -0.722656 0.859375 -0.546875 C 0.984375 -0.378906 1.171875 -0.296875 1.421875 -0.296875 Z M 1.421875 -0.296875 "/></g></g></g><g fill="#ffffff" fill-opacity="1"><g transform="translate(14.428292, 60.437256)"><g><path d="M 2.421875 0 L 2.046875 0 L 2.046875 -1.078125 C 2.046875 -1.160156 2.023438 -1.222656 1.984375 -1.265625 C 1.941406 -1.304688 1.878906 -1.328125 1.796875 -1.328125 L 0.78125 -1.328125 L 0.78125 0 L 0.390625 0 L 0.390625 -3.234375 L 1.546875 -3.234375 C 1.710938 -3.234375 1.859375 -3.207031 1.984375 -3.15625 C 2.109375 -3.113281 2.210938 -3.050781 2.296875 -2.96875 C 2.378906 -2.894531 2.441406 -2.800781 2.484375 -2.6875 C 2.523438 -2.582031 2.546875 -2.472656 2.546875 -2.359375 L 2.546875 -2.21875 C 2.546875 -2.101562 2.507812 -1.984375 2.4375 -1.859375 C 2.375 -1.734375 2.269531 -1.640625 2.125 -1.578125 L 2.125 -1.53125 C 2.21875 -1.507812 2.289062 -1.46875 2.34375 -1.40625 C 2.394531 -1.351562 2.421875 -1.273438 2.421875 -1.171875 Z M 0.78125 -1.6875 L 1.5 -1.6875 C 1.71875 -1.6875 1.878906 -1.734375 1.984375 -1.828125 C 2.097656 -1.921875 2.15625 -2.0625 2.15625 -2.25 L 2.15625 -2.328125 C 2.15625 -2.492188 2.097656 -2.625 1.984375 -2.71875 C 1.878906 -2.820312 1.71875 -2.875 1.5 -2.875 L 0.78125 -2.875 Z M 0.78125 -1.6875 "/></g></g></g><g fill="#ffffff" fill-opacity="1"><g transform="translate(16.768335, 60.437256)"><g><path d="M 0.28125 -3.234375 L 2.546875 -3.234375 L 2.546875 -2.875 L 1.609375 -2.875 L 1.609375 0 L 1.21875 0 L 1.21875 -2.875 L 0.28125 -2.875 Z M 0.28125 -3.234375 "/></g></g></g><g fill="#ffffff" fill-opacity="1"><g transform="translate(19.108378, 60.437256)"><g><path d="M 2.171875 -2.296875 C 2.171875 -2.398438 2.148438 -2.492188 2.109375 -2.578125 C 2.066406 -2.660156 2.007812 -2.726562 1.9375 -2.78125 C 1.875 -2.832031 1.796875 -2.867188 1.703125 -2.890625 C 1.609375 -2.921875 1.507812 -2.9375 1.40625 -2.9375 C 1.320312 -2.9375 1.238281 -2.925781 1.15625 -2.90625 C 1.070312 -2.882812 1 -2.851562 0.9375 -2.8125 C 0.875 -2.769531 0.820312 -2.710938 0.78125 -2.640625 C 0.75 -2.578125 0.734375 -2.503906 0.734375 -2.421875 L 0.734375 -2.40625 C 0.734375 -2.3125 0.75 -2.234375 0.78125 -2.171875 C 0.820312 -2.109375 0.878906 -2.050781 0.953125 -2 C 1.023438 -1.957031 1.113281 -1.921875 1.21875 -1.890625 C 1.332031 -1.867188 1.460938 -1.847656 1.609375 -1.828125 C 1.941406 -1.773438 2.1875 -1.671875 2.34375 -1.515625 C 2.507812 -1.367188 2.59375 -1.175781 2.59375 -0.9375 L 2.59375 -0.875 C 2.59375 -0.738281 2.566406 -0.613281 2.515625 -0.5 C 2.472656 -0.382812 2.40625 -0.285156 2.3125 -0.203125 C 2.21875 -0.117188 2.097656 -0.0507812 1.953125 0 C 1.816406 0.0390625 1.660156 0.0625 1.484375 0.0625 C 1.273438 0.0625 1.085938 0.0351562 0.921875 -0.015625 C 0.765625 -0.078125 0.632812 -0.160156 0.53125 -0.265625 C 0.425781 -0.378906 0.34375 -0.503906 0.28125 -0.640625 C 0.226562 -0.785156 0.203125 -0.945312 0.203125 -1.125 L 0.203125 -1.265625 L 0.59375 -1.265625 L 0.59375 -1.140625 C 0.59375 -0.859375 0.671875 -0.644531 0.828125 -0.5 C 0.984375 -0.363281 1.203125 -0.296875 1.484375 -0.296875 C 1.722656 -0.296875 1.898438 -0.347656 2.015625 -0.453125 C 2.140625 -0.554688 2.203125 -0.695312 2.203125 -0.875 L 2.203125 -0.90625 C 2.203125 -1.070312 2.140625 -1.195312 2.015625 -1.28125 C 1.890625 -1.375 1.6875 -1.441406 1.40625 -1.484375 C 1.25 -1.503906 1.101562 -1.535156 0.96875 -1.578125 C 0.832031 -1.628906 0.71875 -1.691406 0.625 -1.765625 C 0.539062 -1.835938 0.472656 -1.921875 0.421875 -2.015625 C 0.367188 -2.117188 0.34375 -2.242188 0.34375 -2.390625 L 0.34375 -2.4375 C 0.34375 -2.5625 0.367188 -2.675781 0.421875 -2.78125 C 0.472656 -2.894531 0.546875 -2.988281 0.640625 -3.0625 C 0.734375 -3.132812 0.84375 -3.191406 0.96875 -3.234375 C 1.101562 -3.273438 1.253906 -3.296875 1.421875 -3.296875 C 1.597656 -3.296875 1.757812 -3.269531 1.90625 -3.21875 C 2.050781 -3.164062 2.171875 -3.09375 2.265625 -3 C 2.367188 -2.914062 2.441406 -2.816406 2.484375 -2.703125 C 2.535156 -2.585938 2.5625 -2.460938 2.5625 -2.328125 L 2.5625 -2.140625 L 2.171875 -2.140625 Z M 2.171875 -2.296875 "/></g></g></g><g fill="#ffffff" fill-opacity="1"><g transform="translate(21.44842, 60.437256)"><g/></g></g><g fill="#ffffff" fill-opacity="1"><g transform="translate(23.788463, 60.437256)"><g><path d="M 0.34375 -3.234375 L 1.40625 -3.234375 C 1.800781 -3.234375 2.09375 -3.132812 2.28125 -2.9375 C 2.46875 -2.75 2.5625 -2.445312 2.5625 -2.03125 L 2.5625 -1.203125 C 2.5625 -0.785156 2.46875 -0.476562 2.28125 -0.28125 C 2.09375 -0.09375 1.800781 0 1.40625 0 L 0.34375 0 L 0.34375 -0.359375 L 0.609375 -0.359375 L 0.609375 -2.875 L 0.34375 -2.875 Z M 1.34375 -0.359375 C 1.488281 -0.359375 1.613281 -0.367188 1.71875 -0.390625 C 1.820312 -0.421875 1.90625 -0.46875 1.96875 -0.53125 C 2.039062 -0.601562 2.09375 -0.691406 2.125 -0.796875 C 2.15625 -0.910156 2.171875 -1.054688 2.171875 -1.234375 L 2.171875 -2 C 2.171875 -2.175781 2.15625 -2.316406 2.125 -2.421875 C 2.09375 -2.535156 2.039062 -2.625 1.96875 -2.6875 C 1.90625 -2.757812 1.820312 -2.804688 1.71875 -2.828125 C 1.613281 -2.859375 1.488281 -2.875 1.34375 -2.875 L 1 -2.875 L 1 -0.359375 Z M 1.34375 -0.359375 "/></g></g></g><g fill="#ffffff" fill-opacity="1"><g transform="translate(26.128507, 60.437256)"><g><path d="M 2.109375 -0.8125 L 0.71875 -0.8125 L 0.484375 0 L 0.0625 0 L 1.046875 -3.234375 L 1.78125 -3.234375 L 2.765625 0 L 2.34375 0 Z M 1.390625 -3.078125 L 0.828125 -1.171875 L 2 -1.171875 L 1.4375 -3.078125 Z M 1.390625 -3.078125 "/></g></g></g><g fill="#ffffff" fill-opacity="1"><g transform="translate(28.46855, 60.437256)"><g><path d="M 0.28125 -3.234375 L 2.546875 -3.234375 L 2.546875 -2.875 L 1.609375 -2.875 L 1.609375 0 L 1.21875 0 L 1.21875 -2.875 L 0.28125 -2.875 Z M 0.28125 -3.234375 "/></g></g></g><g fill="#ffffff" fill-opacity="1"><g transform="translate(30.808593, 60.437256)"><g><path d="M 2.109375 -0.8125 L 0.71875 -0.8125 L 0.484375 0 L 0.0625 0 L 1.046875 -3.234375 L 1.78125 -3.234375 L 2.765625 0 L 2.34375 0 Z M 1.390625 -3.078125 L 0.828125 -1.171875 L 2 -1.171875 L 1.4375 -3.078125 Z M 1.390625 -3.078125 "/></g></g></g><g fill="#ffffff" fill-opacity="1"><g transform="translate(33.148636, 60.437256)"><g/></g></g><g fill="#ffffff" fill-opacity="1"><g transform="translate(35.488678, 60.437256)"><g><path d="M 0.40625 -3.234375 L 0.796875 -3.234375 L 0.796875 -0.359375 L 2.484375 -0.359375 L 2.484375 0 L 0.40625 0 Z M 0.40625 -3.234375 "/></g></g></g><g fill="#ffffff" fill-opacity="1"><g transform="translate(37.828719, 60.437256)"><g><path d="M 2.109375 -0.8125 L 0.71875 -0.8125 L 0.484375 0 L 0.0625 0 L 1.046875 -3.234375 L 1.78125 -3.234375 L 2.765625 0 L 2.34375 0 Z M 1.390625 -3.078125 L 0.828125 -1.171875 L 2 -1.171875 L 1.4375 -3.078125 Z M 1.390625 -3.078125 "/></g></g></g><g fill="#ffffff" fill-opacity="1"><g transform="translate(40.168761, 60.437256)"><g><path d="M 0.265625 -0.359375 L 0.546875 -0.359375 L 0.546875 -2.875 L 0.265625 -2.875 L 0.265625 -3.234375 L 1.578125 -3.234375 C 1.722656 -3.234375 1.851562 -3.210938 1.96875 -3.171875 C 2.09375 -3.128906 2.195312 -3.070312 2.28125 -3 C 2.363281 -2.925781 2.425781 -2.835938 2.46875 -2.734375 C 2.507812 -2.628906 2.53125 -2.515625 2.53125 -2.390625 L 2.53125 -2.34375 C 2.53125 -2.25 2.515625 -2.164062 2.484375 -2.09375 C 2.460938 -2.019531 2.425781 -1.953125 2.375 -1.890625 C 2.320312 -1.835938 2.257812 -1.789062 2.1875 -1.75 C 2.125 -1.707031 2.054688 -1.675781 1.984375 -1.65625 L 1.984375 -1.59375 C 2.140625 -1.550781 2.269531 -1.46875 2.375 -1.34375 C 2.476562 -1.226562 2.53125 -1.082031 2.53125 -0.90625 L 2.53125 -0.84375 C 2.53125 -0.726562 2.507812 -0.617188 2.46875 -0.515625 C 2.425781 -0.410156 2.363281 -0.316406 2.28125 -0.234375 C 2.195312 -0.160156 2.09375 -0.101562 1.96875 -0.0625 C 1.851562 -0.0195312 1.722656 0 1.578125 0 L 0.265625 0 Z M 0.921875 -0.359375 L 1.546875 -0.359375 C 1.722656 -0.359375 1.867188 -0.40625 1.984375 -0.5 C 2.097656 -0.59375 2.15625 -0.71875 2.15625 -0.875 L 2.15625 -0.90625 C 2.15625 -1.070312 2.101562 -1.203125 2 -1.296875 C 1.894531 -1.390625 1.75 -1.4375 1.5625 -1.4375 L 0.921875 -1.4375 Z M 0.921875 -1.796875 L 1.5625 -1.796875 C 1.75 -1.796875 1.894531 -1.84375 2 -1.9375 C 2.101562 -2.039062 2.15625 -2.175781 2.15625 -2.34375 L 2.15625 -2.375 C 2.15625 -2.53125 2.097656 -2.648438 1.984375 -2.734375 C 1.867188 -2.828125 1.722656 -2.875 1.546875 -2.875 L 0.921875 -2.875 Z M 0.921875 -1.796875 "/></g></g></g><g fill="#ffffff" fill-opacity="1"><g transform="translate(42.513786, 60.437256)"><g/></g></g><g fill="#ffffff" fill-opacity="1"><g transform="translate(44.853829, 60.437256)"><g/></g></g><g fill="#ffffff" fill-opacity="1"><g transform="translate(47.198551, 60.437256)"><g><path d="M 0.875 -1.625 C 0.875 -1.695312 0.882812 -1.765625 0.90625 -1.828125 C 0.9375 -1.890625 0.976562 -1.945312 1.03125 -2 C 1.082031 -2.050781 1.140625 -2.09375 1.203125 -2.125 C 1.265625 -2.15625 1.335938 -2.171875 1.421875 -2.171875 C 1.492188 -2.171875 1.5625 -2.15625 1.625 -2.125 C 1.6875 -2.09375 1.742188 -2.050781 1.796875 -2 C 1.847656 -1.945312 1.890625 -1.890625 1.921875 -1.828125 C 1.953125 -1.765625 1.96875 -1.695312 1.96875 -1.625 C 1.96875 -1.539062 1.953125 -1.46875 1.921875 -1.40625 C 1.890625 -1.34375 1.847656 -1.285156 1.796875 -1.234375 C 1.742188 -1.179688 1.6875 -1.140625 1.625 -1.109375 C 1.5625 -1.085938 1.492188 -1.078125 1.421875 -1.078125 C 1.335938 -1.078125 1.265625 -1.085938 1.203125 -1.109375 C 1.140625 -1.140625 1.082031 -1.179688 1.03125 -1.234375 C 0.976562 -1.285156 0.9375 -1.34375 0.90625 -1.40625 C 0.882812 -1.46875 0.875 -1.539062 0.875 -1.625 Z M 0.875 -1.625 "/></g></g></g><g fill="#ffffff" fill-opacity="1"><g transform="translate(49.540933, 60.437256)"><g/></g></g><g fill="#ffffff" fill-opacity="1"><g transform="translate(51.880976, 60.437256)"><g/></g></g><g fill="#ffffff" fill-opacity="1"><g transform="translate(54.225697, 60.437256)"><g><path d="M 0.34375 -3.234375 L 1.40625 -3.234375 C 1.800781 -3.234375 2.09375 -3.132812 2.28125 -2.9375 C 2.46875 -2.75 2.5625 -2.445312 2.5625 -2.03125 L 2.5625 -1.203125 C 2.5625 -0.785156 2.46875 -0.476562 2.28125 -0.28125 C 2.09375 -0.09375 1.800781 0 1.40625 0 L 0.34375 0 L 0.34375 -0.359375 L 0.609375 -0.359375 L 0.609375 -2.875 L 0.34375 -2.875 Z M 1.34375 -0.359375 C 1.488281 -0.359375 1.613281 -0.367188 1.71875 -0.390625 C 1.820312 -0.421875 1.90625 -0.46875 1.96875 -0.53125 C 2.039062 -0.601562 2.09375 -0.691406 2.125 -0.796875 C 2.15625 -0.910156 2.171875 -1.054688 2.171875 -1.234375 L 2.171875 -2 C 2.171875 -2.175781 2.15625 -2.316406 2.125 -2.421875 C 2.09375 -2.535156 2.039062 -2.625 1.96875 -2.6875 C 1.90625 -2.757812 1.820312 -2.804688 1.71875 -2.828125 C 1.613281 -2.859375 1.488281 -2.875 1.34375 -2.875 L 1 -2.875 L 1 -0.359375 Z M 1.34375 -0.359375 "/></g></g></g><g fill="#ffffff" fill-opacity="1"><g transform="translate(56.56574, 60.437256)"><g><path d="M 0.4375 -3.234375 L 2.390625 -3.234375 L 2.390625 -2.875 L 0.828125 -2.875 L 0.828125 -1.796875 L 2.375 -1.796875 L 2.375 -1.4375 L 0.828125 -1.4375 L 0.828125 -0.359375 L 2.421875 -0.359375 L 2.421875 0 L 0.4375 0 Z M 0.4375 -3.234375 "/></g></g></g><g fill="#ffffff" fill-opacity="1"><g transform="translate(58.905783, 60.437256)"><g><path d="M 0.78125 -1.328125 L 0.78125 0 L 0.390625 0 L 0.390625 -3.234375 L 1.546875 -3.234375 C 1.710938 -3.234375 1.859375 -3.207031 1.984375 -3.15625 C 2.109375 -3.113281 2.210938 -3.050781 2.296875 -2.96875 C 2.378906 -2.894531 2.441406 -2.800781 2.484375 -2.6875 C 2.523438 -2.582031 2.546875 -2.472656 2.546875 -2.359375 L 2.546875 -2.21875 C 2.546875 -2.101562 2.523438 -1.988281 2.484375 -1.875 C 2.441406 -1.769531 2.378906 -1.675781 2.296875 -1.59375 C 2.210938 -1.507812 2.109375 -1.441406 1.984375 -1.390625 C 1.859375 -1.347656 1.710938 -1.328125 1.546875 -1.328125 Z M 0.78125 -1.6875 L 1.5 -1.6875 C 1.9375 -1.6875 2.15625 -1.875 2.15625 -2.25 L 2.15625 -2.328125 C 2.15625 -2.492188 2.097656 -2.625 1.984375 -2.71875 C 1.878906 -2.820312 1.71875 -2.875 1.5 -2.875 L 0.78125 -2.875 Z M 0.78125 -1.6875 "/></g></g></g><g fill="#ffffff" fill-opacity="1"><g transform="translate(61.245826, 60.437256)"><g><path d="M 0.28125 -3.234375 L 2.546875 -3.234375 L 2.546875 -2.875 L 1.609375 -2.875 L 1.609375 0 L 1.21875 0 L 1.21875 -2.875 L 0.28125 -2.875 Z M 0.28125 -3.234375 "/></g></g></g><g fill="#ffffff" fill-opacity="1"><g transform="translate(63.585869, 60.437256)"><g><path d="M 1.09375 -0.265625 C 1.09375 -0.347656 1.125 -0.421875 1.1875 -0.484375 C 1.25 -0.546875 1.328125 -0.578125 1.421875 -0.578125 C 1.503906 -0.578125 1.578125 -0.546875 1.640625 -0.484375 C 1.703125 -0.421875 1.734375 -0.347656 1.734375 -0.265625 C 1.734375 -0.171875 1.703125 -0.09375 1.640625 -0.03125 C 1.578125 0.03125 1.503906 0.0625 1.421875 0.0625 C 1.328125 0.0625 1.25 0.03125 1.1875 -0.03125 C 1.125 -0.09375 1.09375 -0.171875 1.09375 -0.265625 Z M 1.09375 -0.265625 "/></g></g></g><g fill="#ffffff" fill-opacity="1"><g transform="translate(65.931586, 60.437256)"><g/></g></g><g fill="#ffffff" fill-opacity="1"><g transform="translate(68.271629, 60.437256)"><g/></g></g><g fill="#ffffff" fill-opacity="1"><g transform="translate(70.61635, 60.437256)"><g><path d="M 0.4375 -3.234375 L 2.390625 -3.234375 L 2.390625 -2.875 L 0.828125 -2.875 L 0.828125 -1.796875 L 2.375 -1.796875 L 2.375 -1.4375 L 0.828125 -1.4375 L 0.828125 -0.359375 L 2.421875 -0.359375 L 2.421875 0 L 0.4375 0 Z M 0.4375 -3.234375 "/></g></g></g><g fill="#ffffff" fill-opacity="1"><g transform="translate(72.956393, 60.437256)"><g><path d="M 0.640625 -3.234375 L 1.375 -1.796875 L 1.453125 -1.796875 L 2.1875 -3.234375 L 2.609375 -3.234375 L 1.796875 -1.65625 L 1.796875 -1.59375 L 2.609375 0 L 2.1875 0 L 1.453125 -1.4375 L 1.375 -1.4375 L 0.640625 0 L 0.21875 0 L 1.03125 -1.59375 L 1.03125 -1.65625 L 0.21875 -3.234375 Z M 0.640625 -3.234375 "/></g></g></g><g fill="#ffffff" fill-opacity="1"><g transform="translate(75.296436, 60.437256)"><g><path d="M 0.4375 -3.234375 L 2.390625 -3.234375 L 2.390625 -2.875 L 0.828125 -2.875 L 0.828125 -1.796875 L 2.375 -1.796875 L 2.375 -1.4375 L 0.828125 -1.4375 L 0.828125 -0.359375 L 2.421875 -0.359375 L 2.421875 0 L 0.4375 0 Z M 0.4375 -3.234375 "/></g></g></g><g fill="#ffffff" fill-opacity="1"><g transform="translate(77.636479, 60.437256)"><g><path d="M 2.421875 0 L 2.046875 0 L 2.046875 -1.078125 C 2.046875 -1.160156 2.023438 -1.222656 1.984375 -1.265625 C 1.941406 -1.304688 1.878906 -1.328125 1.796875 -1.328125 L 0.78125 -1.328125 L 0.78125 0 L 0.390625 0 L 0.390625 -3.234375 L 1.546875 -3.234375 C 1.710938 -3.234375 1.859375 -3.207031 1.984375 -3.15625 C 2.109375 -3.113281 2.210938 -3.050781 2.296875 -2.96875 C 2.378906 -2.894531 2.441406 -2.800781 2.484375 -2.6875 C 2.523438 -2.582031 2.546875 -2.472656 2.546875 -2.359375 L 2.546875 -2.21875 C 2.546875 -2.101562 2.507812 -1.984375 2.4375 -1.859375 C 2.375 -1.734375 2.269531 -1.640625 2.125 -1.578125 L 2.125 -1.53125 C 2.21875 -1.507812 2.289062 -1.46875 2.34375 -1.40625 C 2.394531 -1.351562 2.421875 -1.273438 2.421875 -1.171875 Z M 0.78125 -1.6875 L 1.5 -1.6875 C 1.71875 -1.6875 1.878906 -1.734375 1.984375 -1.828125 C 2.097656 -1.921875 2.15625 -2.0625 2.15625 -2.25 L 2.15625 -2.328125 C 2.15625 -2.492188 2.097656 -2.625 1.984375 -2.71875 C 1.878906 -2.820312 1.71875 -2.875 1.5 -2.875 L 0.78125 -2.875 Z M 0.78125 -1.6875 "/></g></g></g><g fill="#ffffff" fill-opacity="1"><g transform="translate(79.976522, 60.437256)"><g><path d="M 1.4375 -0.296875 C 1.5625 -0.296875 1.671875 -0.316406 1.765625 -0.359375 C 1.867188 -0.410156 1.945312 -0.472656 2 -0.546875 C 2.0625 -0.617188 2.109375 -0.703125 2.140625 -0.796875 C 2.171875 -0.898438 2.1875 -1.003906 2.1875 -1.109375 L 2.1875 -1.171875 L 2.578125 -1.171875 L 2.578125 -1.109375 C 2.578125 -0.941406 2.550781 -0.785156 2.5 -0.640625 C 2.445312 -0.503906 2.375 -0.378906 2.28125 -0.265625 C 2.1875 -0.160156 2.066406 -0.078125 1.921875 -0.015625 C 1.785156 0.0351562 1.625 0.0625 1.4375 0.0625 C 1.070312 0.0625 0.789062 -0.046875 0.59375 -0.265625 C 0.394531 -0.492188 0.296875 -0.828125 0.296875 -1.265625 L 0.296875 -1.984375 C 0.296875 -2.398438 0.394531 -2.722656 0.59375 -2.953125 C 0.789062 -3.179688 1.070312 -3.296875 1.4375 -3.296875 C 1.625 -3.296875 1.785156 -3.265625 1.921875 -3.203125 C 2.066406 -3.148438 2.1875 -3.066406 2.28125 -2.953125 C 2.375 -2.847656 2.445312 -2.722656 2.5 -2.578125 C 2.550781 -2.441406 2.578125 -2.289062 2.578125 -2.125 L 2.578125 -2.078125 L 2.1875 -2.078125 L 2.1875 -2.125 C 2.175781 -2.226562 2.15625 -2.328125 2.125 -2.421875 C 2.101562 -2.523438 2.0625 -2.613281 2 -2.6875 C 1.9375 -2.769531 1.859375 -2.832031 1.765625 -2.875 C 1.671875 -2.914062 1.5625 -2.9375 1.4375 -2.9375 C 1.1875 -2.9375 1 -2.84375 0.875 -2.65625 C 0.75 -2.476562 0.6875 -2.242188 0.6875 -1.953125 L 0.6875 -1.28125 C 0.6875 -0.96875 0.75 -0.722656 0.875 -0.546875 C 1 -0.378906 1.1875 -0.296875 1.4375 -0.296875 Z M 1.4375 -0.296875 "/></g></g></g><g fill="#ffffff" fill-opacity="1"><g transform="translate(82.316565, 60.437256)"><g><path d="M 0.390625 -3.234375 L 2.4375 -3.234375 L 2.4375 -2.875 L 1.609375 -2.875 L 1.609375 -0.359375 L 2.4375 -0.359375 L 2.4375 0 L 0.390625 0 L 0.390625 -0.359375 L 1.21875 -0.359375 L 1.21875 -2.875 L 0.390625 -2.875 Z M 0.390625 -3.234375 "/></g></g></g><g fill="#ffffff" fill-opacity="1"><g transform="translate(84.656607, 60.437256)"><g><path d="M 2.171875 -2.296875 C 2.171875 -2.398438 2.148438 -2.492188 2.109375 -2.578125 C 2.066406 -2.660156 2.007812 -2.726562 1.9375 -2.78125 C 1.875 -2.832031 1.796875 -2.867188 1.703125 -2.890625 C 1.609375 -2.921875 1.507812 -2.9375 1.40625 -2.9375 C 1.320312 -2.9375 1.238281 -2.925781 1.15625 -2.90625 C 1.070312 -2.882812 1 -2.851562 0.9375 -2.8125 C 0.875 -2.769531 0.820312 -2.710938 0.78125 -2.640625 C 0.75 -2.578125 0.734375 -2.503906 0.734375 -2.421875 L 0.734375 -2.40625 C 0.734375 -2.3125 0.75 -2.234375 0.78125 -2.171875 C 0.820312 -2.109375 0.878906 -2.050781 0.953125 -2 C 1.023438 -1.957031 1.113281 -1.921875 1.21875 -1.890625 C 1.332031 -1.867188 1.460938 -1.847656 1.609375 -1.828125 C 1.941406 -1.773438 2.1875 -1.671875 2.34375 -1.515625 C 2.507812 -1.367188 2.59375 -1.175781 2.59375 -0.9375 L 2.59375 -0.875 C 2.59375 -0.738281 2.566406 -0.613281 2.515625 -0.5 C 2.472656 -0.382812 2.40625 -0.285156 2.3125 -0.203125 C 2.21875 -0.117188 2.097656 -0.0507812 1.953125 0 C 1.816406 0.0390625 1.660156 0.0625 1.484375 0.0625 C 1.273438 0.0625 1.085938 0.0351562 0.921875 -0.015625 C 0.765625 -0.078125 0.632812 -0.160156 0.53125 -0.265625 C 0.425781 -0.378906 0.34375 -0.503906 0.28125 -0.640625 C 0.226562 -0.785156 0.203125 -0.945312 0.203125 -1.125 L 0.203125 -1.265625 L 0.59375 -1.265625 L 0.59375 -1.140625 C 0.59375 -0.859375 0.671875 -0.644531 0.828125 -0.5 C 0.984375 -0.363281 1.203125 -0.296875 1.484375 -0.296875 C 1.722656 -0.296875 1.898438 -0.347656 2.015625 -0.453125 C 2.140625 -0.554688 2.203125 -0.695312 2.203125 -0.875 L 2.203125 -0.90625 C 2.203125 -1.070312 2.140625 -1.195312 2.015625 -1.28125 C 1.890625 -1.375 1.6875 -1.441406 1.40625 -1.484375 C 1.25 -1.503906 1.101562 -1.535156 0.96875 -1.578125 C 0.832031 -1.628906 0.71875 -1.691406 0.625 -1.765625 C 0.539062 -1.835938 0.472656 -1.921875 0.421875 -2.015625 C 0.367188 -2.117188 0.34375 -2.242188 0.34375 -2.390625 L 0.34375 -2.4375 C 0.34375 -2.5625 0.367188 -2.675781 0.421875 -2.78125 C 0.472656 -2.894531 0.546875 -2.988281 0.640625 -3.0625 C 0.734375 -3.132812 0.84375 -3.191406 0.96875 -3.234375 C 1.101562 -3.273438 1.253906 -3.296875 1.421875 -3.296875 C 1.597656 -3.296875 1.757812 -3.269531 1.90625 -3.21875 C 2.050781 -3.164062 2.171875 -3.09375 2.265625 -3 C 2.367188 -2.914062 2.441406 -2.816406 2.484375 -2.703125 C 2.535156 -2.585938 2.5625 -2.460938 2.5625 -2.328125 L 2.5625 -2.140625 L 2.171875 -2.140625 Z M 2.171875 -2.296875 "/></g></g></g><g fill="#ffffff" fill-opacity="1"><g transform="translate(86.996651, 60.437256)"><g><path d="M 0.4375 -3.234375 L 2.390625 -3.234375 L 2.390625 -2.875 L 0.828125 -2.875 L 0.828125 -1.796875 L 2.375 -1.796875 L 2.375 -1.4375 L 0.828125 -1.4375 L 0.828125 -0.359375 L 2.421875 -0.359375 L 2.421875 0 L 0.4375 0 Z M 0.4375 -3.234375 "/></g></g></g><g fill="#ffffff" fill-opacity="1"><g transform="translate(89.336694, 60.437256)"><g/></g></g><g fill="#ffffff" fill-opacity="1"><g transform="translate(91.676737, 60.437256)"><g><path d="M 0.78125 -1.328125 L 0.78125 0 L 0.390625 0 L 0.390625 -3.234375 L 1.546875 -3.234375 C 1.710938 -3.234375 1.859375 -3.207031 1.984375 -3.15625 C 2.109375 -3.113281 2.210938 -3.050781 2.296875 -2.96875 C 2.378906 -2.894531 2.441406 -2.800781 2.484375 -2.6875 C 2.523438 -2.582031 2.546875 -2.472656 2.546875 -2.359375 L 2.546875 -2.21875 C 2.546875 -2.101562 2.523438 -1.988281 2.484375 -1.875 C 2.441406 -1.769531 2.378906 -1.675781 2.296875 -1.59375 C 2.210938 -1.507812 2.109375 -1.441406 1.984375 -1.390625 C 1.859375 -1.347656 1.710938 -1.328125 1.546875 -1.328125 Z M 0.78125 -1.6875 L 1.5 -1.6875 C 1.9375 -1.6875 2.15625 -1.875 2.15625 -2.25 L 2.15625 -2.328125 C 2.15625 -2.492188 2.097656 -2.625 1.984375 -2.71875 C 1.878906 -2.820312 1.71875 -2.875 1.5 -2.875 L 0.78125 -2.875 Z M 0.78125 -1.6875 "/></g></g></g><g fill="#ffffff" fill-opacity="1"><g transform="translate(94.01678, 60.437256)"><g><path d="M 0.34375 -3.234375 L 0.71875 -3.234375 L 0.71875 -1.796875 L 2.109375 -1.796875 L 2.109375 -3.234375 L 2.5 -3.234375 L 2.5 0 L 2.109375 0 L 2.109375 -1.4375 L 0.71875 -1.4375 L 0.71875 0 L 0.34375 0 Z M 0.34375 -3.234375 "/></g></g></g><g fill="#ffffff" fill-opacity="1"><g transform="translate(96.356823, 60.437256)"><g><path d="M 1.21875 -1.140625 L 1.140625 -1.140625 L 0.125 -3.234375 L 0.5625 -3.234375 L 1.390625 -1.46875 L 1.4375 -1.46875 L 2.265625 -3.234375 L 2.703125 -3.234375 L 1.6875 -1.140625 L 1.609375 -1.140625 L 1.609375 0 L 1.21875 0 Z M 1.21875 -1.140625 "/></g></g></g><g fill="#ffffff" fill-opacity="1"><g transform="translate(98.696865, 60.437256)"><g><path d="M 2.171875 -2.296875 C 2.171875 -2.398438 2.148438 -2.492188 2.109375 -2.578125 C 2.066406 -2.660156 2.007812 -2.726562 1.9375 -2.78125 C 1.875 -2.832031 1.796875 -2.867188 1.703125 -2.890625 C 1.609375 -2.921875 1.507812 -2.9375 1.40625 -2.9375 C 1.320312 -2.9375 1.238281 -2.925781 1.15625 -2.90625 C 1.070312 -2.882812 1 -2.851562 0.9375 -2.8125 C 0.875 -2.769531 0.820312 -2.710938 0.78125 -2.640625 C 0.75 -2.578125 0.734375 -2.503906 0.734375 -2.421875 L 0.734375 -2.40625 C 0.734375 -2.3125 0.75 -2.234375 0.78125 -2.171875 C 0.820312 -2.109375 0.878906 -2.050781 0.953125 -2 C 1.023438 -1.957031 1.113281 -1.921875 1.21875 -1.890625 C 1.332031 -1.867188 1.460938 -1.847656 1.609375 -1.828125 C 1.941406 -1.773438 2.1875 -1.671875 2.34375 -1.515625 C 2.507812 -1.367188 2.59375 -1.175781 2.59375 -0.9375 L 2.59375 -0.875 C 2.59375 -0.738281 2.566406 -0.613281 2.515625 -0.5 C 2.472656 -0.382812 2.40625 -0.285156 2.3125 -0.203125 C 2.21875 -0.117188 2.097656 -0.0507812 1.953125 0 C 1.816406 0.0390625 1.660156 0.0625 1.484375 0.0625 C 1.273438 0.0625 1.085938 0.0351562 0.921875 -0.015625 C 0.765625 -0.078125 0.632812 -0.160156 0.53125 -0.265625 C 0.425781 -0.378906 0.34375 -0.503906 0.28125 -0.640625 C 0.226562 -0.785156 0.203125 -0.945312 0.203125 -1.125 L 0.203125 -1.265625 L 0.59375 -1.265625 L 0.59375 -1.140625 C 0.59375 -0.859375 0.671875 -0.644531 0.828125 -0.5 C 0.984375 -0.363281 1.203125 -0.296875 1.484375 -0.296875 C 1.722656 -0.296875 1.898438 -0.347656 2.015625 -0.453125 C 2.140625 -0.554688 2.203125 -0.695312 2.203125 -0.875 L 2.203125 -0.90625 C 2.203125 -1.070312 2.140625 -1.195312 2.015625 -1.28125 C 1.890625 -1.375 1.6875 -1.441406 1.40625 -1.484375 C 1.25 -1.503906 1.101562 -1.535156 0.96875 -1.578125 C 0.832031 -1.628906 0.71875 -1.691406 0.625 -1.765625 C 0.539062 -1.835938 0.472656 -1.921875 0.421875 -2.015625 C 0.367188 -2.117188 0.34375 -2.242188 0.34375 -2.390625 L 0.34375 -2.4375 C 0.34375 -2.5625 0.367188 -2.675781 0.421875 -2.78125 C 0.472656 -2.894531 0.546875 -2.988281 0.640625 -3.0625 C 0.734375 -3.132812 0.84375 -3.191406 0.96875 -3.234375 C 1.101562 -3.273438 1.253906 -3.296875 1.421875 -3.296875 C 1.597656 -3.296875 1.757812 -3.269531 1.90625 -3.21875 C 2.050781 -3.164062 2.171875 -3.09375 2.265625 -3 C 2.367188 -2.914062 2.441406 -2.816406 2.484375 -2.703125 C 2.535156 -2.585938 2.5625 -2.460938 2.5625 -2.328125 L 2.5625 -2.140625 L 2.171875 -2.140625 Z M 2.171875 -2.296875 "/></g></g></g><g fill="#ffffff" fill-opacity="1"><g transform="translate(101.036907, 60.437256)"><g><path d="M 0.390625 -3.234375 L 2.4375 -3.234375 L 2.4375 -2.875 L 1.609375 -2.875 L 1.609375 -0.359375 L 2.4375 -0.359375 L 2.4375 0 L 0.390625 0 L 0.390625 -0.359375 L 1.21875 -0.359375 L 1.21875 -2.875 L 0.390625 -2.875 Z M 0.390625 -3.234375 "/></g></g></g><g fill="#ffffff" fill-opacity="1"><g transform="translate(103.376948, 60.437256)"><g><path d="M 0.28125 -1.984375 C 0.28125 -2.398438 0.378906 -2.722656 0.578125 -2.953125 C 0.773438 -3.179688 1.054688 -3.296875 1.421875 -3.296875 C 1.773438 -3.296875 2.050781 -3.179688 2.25 -2.953125 C 2.445312 -2.722656 2.546875 -2.398438 2.546875 -1.984375 L 2.546875 -1.265625 C 2.546875 -0.828125 2.445312 -0.492188 2.25 -0.265625 C 2.050781 -0.046875 1.773438 0.0625 1.421875 0.0625 C 1.054688 0.0625 0.773438 -0.046875 0.578125 -0.265625 C 0.378906 -0.492188 0.28125 -0.828125 0.28125 -1.265625 Z M 1.421875 -0.296875 C 1.671875 -0.296875 1.859375 -0.378906 1.984375 -0.546875 C 2.109375 -0.722656 2.171875 -0.96875 2.171875 -1.28125 L 2.171875 -1.953125 C 2.171875 -2.242188 2.109375 -2.476562 1.984375 -2.65625 C 1.859375 -2.84375 1.671875 -2.9375 1.421875 -2.9375 C 1.171875 -2.9375 0.984375 -2.84375 0.859375 -2.65625 C 0.734375 -2.476562 0.671875 -2.242188 0.671875 -1.953125 L 0.671875 -1.28125 C 0.671875 -0.96875 0.734375 -0.722656 0.859375 -0.546875 C 0.984375 -0.378906 1.171875 -0.296875 1.421875 -0.296875 Z M 1.421875 -0.296875 "/></g></g></g><g fill="#ffffff" fill-opacity="1"><g transform="translate(105.71699, 60.437256)"><g><path d="M 0.40625 -3.234375 L 0.796875 -3.234375 L 0.796875 -0.359375 L 2.484375 -0.359375 L 2.484375 0 L 0.40625 0 Z M 0.40625 -3.234375 "/></g></g></g><g fill="#ffffff" fill-opacity="1"><g transform="translate(108.057032, 60.437256)"><g><path d="M 0.28125 -1.984375 C 0.28125 -2.398438 0.378906 -2.722656 0.578125 -2.953125 C 0.773438 -3.179688 1.054688 -3.296875 1.421875 -3.296875 C 1.773438 -3.296875 2.050781 -3.179688 2.25 -2.953125 C 2.445312 -2.722656 2.546875 -2.398438 2.546875 -1.984375 L 2.546875 -1.265625 C 2.546875 -0.828125 2.445312 -0.492188 2.25 -0.265625 C 2.050781 -0.046875 1.773438 0.0625 1.421875 0.0625 C 1.054688 0.0625 0.773438 -0.046875 0.578125 -0.265625 C 0.378906 -0.492188 0.28125 -0.828125 0.28125 -1.265625 Z M 1.421875 -0.296875 C 1.671875 -0.296875 1.859375 -0.378906 1.984375 -0.546875 C 2.109375 -0.722656 2.171875 -0.96875 2.171875 -1.28125 L 2.171875 -1.953125 C 2.171875 -2.242188 2.109375 -2.476562 1.984375 -2.65625 C 1.859375 -2.84375 1.671875 -2.9375 1.421875 -2.9375 C 1.171875 -2.9375 0.984375 -2.84375 0.859375 -2.65625 C 0.734375 -2.476562 0.671875 -2.242188 0.671875 -1.953125 L 0.671875 -1.28125 C 0.671875 -0.96875 0.734375 -0.722656 0.859375 -0.546875 C 0.984375 -0.378906 1.171875 -0.296875 1.421875 -0.296875 Z M 1.421875 -0.296875 "/></g></g></g><g fill="#ffffff" fill-opacity="1"><g transform="translate(110.397073, 60.437256)"><g><path d="M 1.109375 -1.546875 L 2.546875 -1.546875 L 2.546875 0 L 2.1875 0 L 2.1875 -0.390625 L 2.125 -0.390625 C 2.070312 -0.253906 1.976562 -0.144531 1.84375 -0.0625 C 1.71875 0.0195312 1.566406 0.0625 1.390625 0.0625 C 1.046875 0.0625 0.769531 -0.046875 0.5625 -0.265625 C 0.363281 -0.492188 0.265625 -0.828125 0.265625 -1.265625 L 0.265625 -1.984375 C 0.265625 -2.398438 0.363281 -2.722656 0.5625 -2.953125 C 0.769531 -3.179688 1.050781 -3.296875 1.40625 -3.296875 C 1.59375 -3.296875 1.753906 -3.265625 1.890625 -3.203125 C 2.035156 -3.148438 2.15625 -3.066406 2.25 -2.953125 C 2.351562 -2.847656 2.425781 -2.722656 2.46875 -2.578125 C 2.519531 -2.441406 2.546875 -2.289062 2.546875 -2.125 L 2.546875 -2.078125 L 2.15625 -2.078125 L 2.15625 -2.125 C 2.15625 -2.226562 2.140625 -2.328125 2.109375 -2.421875 C 2.085938 -2.523438 2.046875 -2.613281 1.984375 -2.6875 C 1.921875 -2.769531 1.84375 -2.832031 1.75 -2.875 C 1.65625 -2.914062 1.539062 -2.9375 1.40625 -2.9375 C 1.15625 -2.9375 0.96875 -2.84375 0.84375 -2.65625 C 0.71875 -2.476562 0.65625 -2.242188 0.65625 -1.953125 L 0.65625 -1.28125 C 0.65625 -0.96875 0.71875 -0.722656 0.84375 -0.546875 C 0.96875 -0.378906 1.160156 -0.296875 1.421875 -0.296875 C 1.648438 -0.296875 1.828125 -0.367188 1.953125 -0.515625 C 2.085938 -0.660156 2.15625 -0.867188 2.15625 -1.140625 L 2.15625 -1.1875 L 1.109375 -1.1875 Z M 1.109375 -1.546875 "/></g></g></g><g fill="#ffffff" fill-opacity="1"><g transform="translate(112.737115, 60.437256)"><g><path d="M 1.21875 -1.140625 L 1.140625 -1.140625 L 0.125 -3.234375 L 0.5625 -3.234375 L 1.390625 -1.46875 L 1.4375 -1.46875 L 2.265625 -3.234375 L 2.703125 -3.234375 L 1.6875 -1.140625 L 1.609375 -1.140625 L 1.609375 0 L 1.21875 0 Z M 1.21875 -1.140625 "/></g></g></g><g fill="#ffffff" fill-opacity="1"><g transform="translate(115.079461, 60.437256)"><g/></g></g><g fill="#ffffff" fill-opacity="1"><g transform="translate(117.419504, 60.437256)"><g/></g></g><g fill="#ffffff" fill-opacity="1"><g transform="translate(119.764225, 60.437256)"><g><path d="M 0.875 -1.625 C 0.875 -1.695312 0.882812 -1.765625 0.90625 -1.828125 C 0.9375 -1.890625 0.976562 -1.945312 1.03125 -2 C 1.082031 -2.050781 1.140625 -2.09375 1.203125 -2.125 C 1.265625 -2.15625 1.335938 -2.171875 1.421875 -2.171875 C 1.492188 -2.171875 1.5625 -2.15625 1.625 -2.125 C 1.6875 -2.09375 1.742188 -2.050781 1.796875 -2 C 1.847656 -1.945312 1.890625 -1.890625 1.921875 -1.828125 C 1.953125 -1.765625 1.96875 -1.695312 1.96875 -1.625 C 1.96875 -1.539062 1.953125 -1.46875 1.921875 -1.40625 C 1.890625 -1.34375 1.847656 -1.285156 1.796875 -1.234375 C 1.742188 -1.179688 1.6875 -1.140625 1.625 -1.109375 C 1.5625 -1.085938 1.492188 -1.078125 1.421875 -1.078125 C 1.335938 -1.078125 1.265625 -1.085938 1.203125 -1.109375 C 1.140625 -1.140625 1.082031 -1.179688 1.03125 -1.234375 C 0.976562 -1.285156 0.9375 -1.34375 0.90625 -1.40625 C 0.882812 -1.46875 0.875 -1.539062 0.875 -1.625 Z M 0.875 -1.625 "/></g></g></g><g fill="#ffffff" fill-opacity="1"><g transform="translate(122.106605, 60.437256)"><g/></g></g><g fill="#ffffff" fill-opacity="1"><g transform="translate(124.446648, 60.437256)"><g/></g></g><g fill="#ffffff" fill-opacity="1"><g transform="translate(126.791369, 60.437256)"><g><path d="M 2.328125 -0.96875 C 2.328125 -0.632812 2.242188 -0.378906 2.078125 -0.203125 C 1.921875 -0.0234375 1.679688 0.0625 1.359375 0.0625 C 1.046875 0.0625 0.796875 -0.0234375 0.609375 -0.203125 C 0.429688 -0.378906 0.34375 -0.632812 0.34375 -0.96875 L 0.34375 -1.21875 L 0.71875 -1.21875 L 0.71875 -0.96875 C 0.71875 -0.769531 0.769531 -0.609375 0.875 -0.484375 C 0.988281 -0.359375 1.148438 -0.296875 1.359375 -0.296875 C 1.578125 -0.296875 1.726562 -0.359375 1.8125 -0.484375 C 1.90625 -0.609375 1.953125 -0.769531 1.953125 -0.96875 L 1.953125 -2.875 L 1.609375 -2.875 L 1.609375 -3.234375 L 2.609375 -3.234375 L 2.609375 -2.875 L 2.328125 -2.875 Z M 2.328125 -0.96875 "/></g></g></g><g fill="#ffffff" fill-opacity="1"><g transform="translate(129.131412, 60.437256)"><g><path d="M 0.6875 -3.234375 L 0.6875 -1.09375 C 0.6875 -0.832031 0.75 -0.632812 0.875 -0.5 C 1 -0.363281 1.179688 -0.296875 1.421875 -0.296875 C 1.648438 -0.296875 1.828125 -0.363281 1.953125 -0.5 C 2.078125 -0.632812 2.140625 -0.832031 2.140625 -1.09375 L 2.140625 -3.234375 L 2.53125 -3.234375 L 2.53125 -1.09375 C 2.53125 -0.71875 2.429688 -0.429688 2.234375 -0.234375 C 2.035156 -0.0351562 1.765625 0.0625 1.421875 0.0625 C 1.066406 0.0625 0.789062 -0.0351562 0.59375 -0.234375 C 0.40625 -0.429688 0.3125 -0.71875 0.3125 -1.09375 L 0.3125 -3.234375 Z M 0.6875 -3.234375 "/></g></g></g><g fill="#ffffff" fill-opacity="1"><g transform="translate(131.471455, 60.437256)"><g><path d="M 2.171875 -2.296875 C 2.171875 -2.398438 2.148438 -2.492188 2.109375 -2.578125 C 2.066406 -2.660156 2.007812 -2.726562 1.9375 -2.78125 C 1.875 -2.832031 1.796875 -2.867188 1.703125 -2.890625 C 1.609375 -2.921875 1.507812 -2.9375 1.40625 -2.9375 C 1.320312 -2.9375 1.238281 -2.925781 1.15625 -2.90625 C 1.070312 -2.882812 1 -2.851562 0.9375 -2.8125 C 0.875 -2.769531 0.820312 -2.710938 0.78125 -2.640625 C 0.75 -2.578125 0.734375 -2.503906 0.734375 -2.421875 L 0.734375 -2.40625 C 0.734375 -2.3125 0.75 -2.234375 0.78125 -2.171875 C 0.820312 -2.109375 0.878906 -2.050781 0.953125 -2 C 1.023438 -1.957031 1.113281 -1.921875 1.21875 -1.890625 C 1.332031 -1.867188 1.460938 -1.847656 1.609375 -1.828125 C 1.941406 -1.773438 2.1875 -1.671875 2.34375 -1.515625 C 2.507812 -1.367188 2.59375 -1.175781 2.59375 -0.9375 L 2.59375 -0.875 C 2.59375 -0.738281 2.566406 -0.613281 2.515625 -0.5 C 2.472656 -0.382812 2.40625 -0.285156 2.3125 -0.203125 C 2.21875 -0.117188 2.097656 -0.0507812 1.953125 0 C 1.816406 0.0390625 1.660156 0.0625 1.484375 0.0625 C 1.273438 0.0625 1.085938 0.0351562 0.921875 -0.015625 C 0.765625 -0.078125 0.632812 -0.160156 0.53125 -0.265625 C 0.425781 -0.378906 0.34375 -0.503906 0.28125 -0.640625 C 0.226562 -0.785156 0.203125 -0.945312 0.203125 -1.125 L 0.203125 -1.265625 L 0.59375 -1.265625 L 0.59375 -1.140625 C 0.59375 -0.859375 0.671875 -0.644531 0.828125 -0.5 C 0.984375 -0.363281 1.203125 -0.296875 1.484375 -0.296875 C 1.722656 -0.296875 1.898438 -0.347656 2.015625 -0.453125 C 2.140625 -0.554688 2.203125 -0.695312 2.203125 -0.875 L 2.203125 -0.90625 C 2.203125 -1.070312 2.140625 -1.195312 2.015625 -1.28125 C 1.890625 -1.375 1.6875 -1.441406 1.40625 -1.484375 C 1.25 -1.503906 1.101562 -1.535156 0.96875 -1.578125 C 0.832031 -1.628906 0.71875 -1.691406 0.625 -1.765625 C 0.539062 -1.835938 0.472656 -1.921875 0.421875 -2.015625 C 0.367188 -2.117188 0.34375 -2.242188 0.34375 -2.390625 L 0.34375 -2.4375 C 0.34375 -2.5625 0.367188 -2.675781 0.421875 -2.78125 C 0.472656 -2.894531 0.546875 -2.988281 0.640625 -3.0625 C 0.734375 -3.132812 0.84375 -3.191406 0.96875 -3.234375 C 1.101562 -3.273438 1.253906 -3.296875 1.421875 -3.296875 C 1.597656 -3.296875 1.757812 -3.269531 1.90625 -3.21875 C 2.050781 -3.164062 2.171875 -3.09375 2.265625 -3 C 2.367188 -2.914062 2.441406 -2.816406 2.484375 -2.703125 C 2.535156 -2.585938 2.5625 -2.460938 2.5625 -2.328125 L 2.5625 -2.140625 L 2.171875 -2.140625 Z M 2.171875 -2.296875 "/></g></g></g><g fill="#ffffff" fill-opacity="1"><g transform="translate(133.811498, 60.437256)"><g><path d="M 0.28125 -3.234375 L 2.546875 -3.234375 L 2.546875 -2.875 L 1.609375 -2.875 L 1.609375 0 L 1.21875 0 L 1.21875 -2.875 L 0.28125 -2.875 Z M 0.28125 -3.234375 "/></g></g></g><g fill="#ffffff" fill-opacity="1"><g transform="translate(136.151541, 60.437256)"><g><path d="M 0.6875 -3.234375 L 0.6875 -1.09375 C 0.6875 -0.832031 0.75 -0.632812 0.875 -0.5 C 1 -0.363281 1.179688 -0.296875 1.421875 -0.296875 C 1.648438 -0.296875 1.828125 -0.363281 1.953125 -0.5 C 2.078125 -0.632812 2.140625 -0.832031 2.140625 -1.09375 L 2.140625 -3.234375 L 2.53125 -3.234375 L 2.53125 -1.09375 C 2.53125 -0.71875 2.429688 -0.429688 2.234375 -0.234375 C 2.035156 -0.0351562 1.765625 0.0625 1.421875 0.0625 C 1.066406 0.0625 0.789062 -0.0351562 0.59375 -0.234375 C 0.40625 -0.429688 0.3125 -0.71875 0.3125 -1.09375 L 0.3125 -3.234375 Z M 0.6875 -3.234375 "/></g></g></g><g fill="#ffffff" fill-opacity="1"><g transform="translate(138.491584, 60.437256)"><g><path d="M 2.171875 -2.296875 C 2.171875 -2.398438 2.148438 -2.492188 2.109375 -2.578125 C 2.066406 -2.660156 2.007812 -2.726562 1.9375 -2.78125 C 1.875 -2.832031 1.796875 -2.867188 1.703125 -2.890625 C 1.609375 -2.921875 1.507812 -2.9375 1.40625 -2.9375 C 1.320312 -2.9375 1.238281 -2.925781 1.15625 -2.90625 C 1.070312 -2.882812 1 -2.851562 0.9375 -2.8125 C 0.875 -2.769531 0.820312 -2.710938 0.78125 -2.640625 C 0.75 -2.578125 0.734375 -2.503906 0.734375 -2.421875 L 0.734375 -2.40625 C 0.734375 -2.3125 0.75 -2.234375 0.78125 -2.171875 C 0.820312 -2.109375 0.878906 -2.050781 0.953125 -2 C 1.023438 -1.957031 1.113281 -1.921875 1.21875 -1.890625 C 1.332031 -1.867188 1.460938 -1.847656 1.609375 -1.828125 C 1.941406 -1.773438 2.1875 -1.671875 2.34375 -1.515625 C 2.507812 -1.367188 2.59375 -1.175781 2.59375 -0.9375 L 2.59375 -0.875 C 2.59375 -0.738281 2.566406 -0.613281 2.515625 -0.5 C 2.472656 -0.382812 2.40625 -0.285156 2.3125 -0.203125 C 2.21875 -0.117188 2.097656 -0.0507812 1.953125 0 C 1.816406 0.0390625 1.660156 0.0625 1.484375 0.0625 C 1.273438 0.0625 1.085938 0.0351562 0.921875 -0.015625 C 0.765625 -0.078125 0.632812 -0.160156 0.53125 -0.265625 C 0.425781 -0.378906 0.34375 -0.503906 0.28125 -0.640625 C 0.226562 -0.785156 0.203125 -0.945312 0.203125 -1.125 L 0.203125 -1.265625 L 0.59375 -1.265625 L 0.59375 -1.140625 C 0.59375 -0.859375 0.671875 -0.644531 0.828125 -0.5 C 0.984375 -0.363281 1.203125 -0.296875 1.484375 -0.296875 C 1.722656 -0.296875 1.898438 -0.347656 2.015625 -0.453125 C 2.140625 -0.554688 2.203125 -0.695312 2.203125 -0.875 L 2.203125 -0.90625 C 2.203125 -1.070312 2.140625 -1.195312 2.015625 -1.28125 C 1.890625 -1.375 1.6875 -1.441406 1.40625 -1.484375 C 1.25 -1.503906 1.101562 -1.535156 0.96875 -1.578125 C 0.832031 -1.628906 0.71875 -1.691406 0.625 -1.765625 C 0.539062 -1.835938 0.472656 -1.921875 0.421875 -2.015625 C 0.367188 -2.117188 0.34375 -2.242188 0.34375 -2.390625 L 0.34375 -2.4375 C 0.34375 -2.5625 0.367188 -2.675781 0.421875 -2.78125 C 0.472656 -2.894531 0.546875 -2.988281 0.640625 -3.0625 C 0.734375 -3.132812 0.84375 -3.191406 0.96875 -3.234375 C 1.101562 -3.273438 1.253906 -3.296875 1.421875 -3.296875 C 1.597656 -3.296875 1.757812 -3.269531 1.90625 -3.21875 C 2.050781 -3.164062 2.171875 -3.09375 2.265625 -3 C 2.367188 -2.914062 2.441406 -2.816406 2.484375 -2.703125 C 2.535156 -2.585938 2.5625 -2.460938 2.5625 -2.328125 L 2.5625 -2.140625 L 2.171875 -2.140625 Z M 2.171875 -2.296875 "/></g></g></g><g fill="#ffffff" fill-opacity="1"><g transform="translate(140.831627, 60.437256)"><g/></g></g><g fill="#ffffff" fill-opacity="1"><g transform="translate(143.17167, 60.437256)"><g><path d="M 0.40625 -3.234375 L 0.796875 -3.234375 L 0.796875 -0.359375 L 2.484375 -0.359375 L 2.484375 0 L 0.40625 0 Z M 0.40625 -3.234375 "/></g></g></g><g fill="#ffffff" fill-opacity="1"><g transform="translate(145.511713, 60.437256)"><g><path d="M 0.390625 -3.234375 L 2.4375 -3.234375 L 2.4375 -2.875 L 1.609375 -2.875 L 1.609375 -0.359375 L 2.4375 -0.359375 L 2.4375 0 L 0.390625 0 L 0.390625 -0.359375 L 1.21875 -0.359375 L 1.21875 -2.875 L 0.390625 -2.875 Z M 0.390625 -3.234375 "/></g></g></g><g fill="#ffffff" fill-opacity="1"><g transform="translate(147.851756, 60.437256)"><g><path d="M 0.4375 -3.234375 L 2.390625 -3.234375 L 2.390625 -2.875 L 0.828125 -2.875 L 0.828125 -1.796875 L 2.375 -1.796875 L 2.375 -1.4375 L 0.828125 -1.4375 L 0.828125 -0.359375 L 2.421875 -0.359375 L 2.421875 0 L 0.4375 0 Z M 0.4375 -3.234375 "/></g></g></g><g fill="#ffffff" fill-opacity="1"><g transform="translate(150.191799, 60.437256)"><g><path d="M 0.265625 -0.359375 L 0.546875 -0.359375 L 0.546875 -2.875 L 0.265625 -2.875 L 0.265625 -3.234375 L 1.578125 -3.234375 C 1.722656 -3.234375 1.851562 -3.210938 1.96875 -3.171875 C 2.09375 -3.128906 2.195312 -3.070312 2.28125 -3 C 2.363281 -2.925781 2.425781 -2.835938 2.46875 -2.734375 C 2.507812 -2.628906 2.53125 -2.515625 2.53125 -2.390625 L 2.53125 -2.34375 C 2.53125 -2.25 2.515625 -2.164062 2.484375 -2.09375 C 2.460938 -2.019531 2.425781 -1.953125 2.375 -1.890625 C 2.320312 -1.835938 2.257812 -1.789062 2.1875 -1.75 C 2.125 -1.707031 2.054688 -1.675781 1.984375 -1.65625 L 1.984375 -1.59375 C 2.140625 -1.550781 2.269531 -1.46875 2.375 -1.34375 C 2.476562 -1.226562 2.53125 -1.082031 2.53125 -0.90625 L 2.53125 -0.84375 C 2.53125 -0.726562 2.507812 -0.617188 2.46875 -0.515625 C 2.425781 -0.410156 2.363281 -0.316406 2.28125 -0.234375 C 2.195312 -0.160156 2.09375 -0.101562 1.96875 -0.0625 C 1.851562 -0.0195312 1.722656 0 1.578125 0 L 0.265625 0 Z M 0.921875 -0.359375 L 1.546875 -0.359375 C 1.722656 -0.359375 1.867188 -0.40625 1.984375 -0.5 C 2.097656 -0.59375 2.15625 -0.71875 2.15625 -0.875 L 2.15625 -0.90625 C 2.15625 -1.070312 2.101562 -1.203125 2 -1.296875 C 1.894531 -1.390625 1.75 -1.4375 1.5625 -1.4375 L 0.921875 -1.4375 Z M 0.921875 -1.796875 L 1.5625 -1.796875 C 1.75 -1.796875 1.894531 -1.84375 2 -1.9375 C 2.101562 -2.039062 2.15625 -2.175781 2.15625 -2.34375 L 2.15625 -2.375 C 2.15625 -2.53125 2.097656 -2.648438 1.984375 -2.734375 C 1.867188 -2.828125 1.722656 -2.875 1.546875 -2.875 L 0.921875 -2.875 Z M 0.921875 -1.796875 "/></g></g></g><g fill="#ffffff" fill-opacity="1"><g transform="translate(152.531843, 60.437256)"><g><path d="M 0.390625 -3.234375 L 2.4375 -3.234375 L 2.4375 -2.875 L 1.609375 -2.875 L 1.609375 -0.359375 L 2.4375 -0.359375 L 2.4375 0 L 0.390625 0 L 0.390625 -0.359375 L 1.21875 -0.359375 L 1.21875 -2.875 L 0.390625 -2.875 Z M 0.390625 -3.234375 "/></g></g></g><g fill="#ffffff" fill-opacity="1"><g transform="translate(154.871884, 60.437256)"><g><path d="M 1.109375 -1.546875 L 2.546875 -1.546875 L 2.546875 0 L 2.1875 0 L 2.1875 -0.390625 L 2.125 -0.390625 C 2.070312 -0.253906 1.976562 -0.144531 1.84375 -0.0625 C 1.71875 0.0195312 1.566406 0.0625 1.390625 0.0625 C 1.046875 0.0625 0.769531 -0.046875 0.5625 -0.265625 C 0.363281 -0.492188 0.265625 -0.828125 0.265625 -1.265625 L 0.265625 -1.984375 C 0.265625 -2.398438 0.363281 -2.722656 0.5625 -2.953125 C 0.769531 -3.179688 1.050781 -3.296875 1.40625 -3.296875 C 1.59375 -3.296875 1.753906 -3.265625 1.890625 -3.203125 C 2.035156 -3.148438 2.15625 -3.066406 2.25 -2.953125 C 2.351562 -2.847656 2.425781 -2.722656 2.46875 -2.578125 C 2.519531 -2.441406 2.546875 -2.289062 2.546875 -2.125 L 2.546875 -2.078125 L 2.15625 -2.078125 L 2.15625 -2.125 C 2.15625 -2.226562 2.140625 -2.328125 2.109375 -2.421875 C 2.085938 -2.523438 2.046875 -2.613281 1.984375 -2.6875 C 1.921875 -2.769531 1.84375 -2.832031 1.75 -2.875 C 1.65625 -2.914062 1.539062 -2.9375 1.40625 -2.9375 C 1.15625 -2.9375 0.96875 -2.84375 0.84375 -2.65625 C 0.71875 -2.476562 0.65625 -2.242188 0.65625 -1.953125 L 0.65625 -1.28125 C 0.65625 -0.96875 0.71875 -0.722656 0.84375 -0.546875 C 0.96875 -0.378906 1.160156 -0.296875 1.421875 -0.296875 C 1.648438 -0.296875 1.828125 -0.367188 1.953125 -0.515625 C 2.085938 -0.660156 2.15625 -0.867188 2.15625 -1.140625 L 2.15625 -1.1875 L 1.109375 -1.1875 Z M 1.109375 -1.546875 "/></g></g></g><g fill="#ffffff" fill-opacity="1"><g transform="translate(157.211926, 60.437256)"><g/></g></g><g fill="#ffffff" fill-opacity="1"><g transform="translate(159.551968, 60.437256)"><g><path d="M 0.6875 -3.234375 L 0.6875 -1.09375 C 0.6875 -0.832031 0.75 -0.632812 0.875 -0.5 C 1 -0.363281 1.179688 -0.296875 1.421875 -0.296875 C 1.648438 -0.296875 1.828125 -0.363281 1.953125 -0.5 C 2.078125 -0.632812 2.140625 -0.832031 2.140625 -1.09375 L 2.140625 -3.234375 L 2.53125 -3.234375 L 2.53125 -1.09375 C 2.53125 -0.71875 2.429688 -0.429688 2.234375 -0.234375 C 2.035156 -0.0351562 1.765625 0.0625 1.421875 0.0625 C 1.066406 0.0625 0.789062 -0.0351562 0.59375 -0.234375 C 0.40625 -0.429688 0.3125 -0.71875 0.3125 -1.09375 L 0.3125 -3.234375 Z M 0.6875 -3.234375 "/></g></g></g><g fill="#ffffff" fill-opacity="1"><g transform="translate(161.892009, 60.437256)"><g><path d="M 2.046875 -0.171875 L 2.109375 -0.171875 L 2.109375 -3.234375 L 2.5 -3.234375 L 2.5 0 L 1.71875 0 L 0.78125 -3.078125 L 0.71875 -3.078125 L 0.71875 0 L 0.34375 0 L 0.34375 -3.234375 L 1.109375 -3.234375 Z M 2.046875 -0.171875 "/></g></g></g><g fill="#ffffff" fill-opacity="1"><g transform="translate(164.232051, 60.437256)"><g><path d="M 0.390625 -3.234375 L 2.4375 -3.234375 L 2.4375 -2.875 L 1.609375 -2.875 L 1.609375 -0.359375 L 2.4375 -0.359375 L 2.4375 0 L 0.390625 0 L 0.390625 -0.359375 L 1.21875 -0.359375 L 1.21875 -2.875 L 0.390625 -2.875 Z M 0.390625 -3.234375 "/></g></g></g><g fill="#ffffff" fill-opacity="1"><g transform="translate(166.572093, 60.437256)"><g><path d="M 0.125 -3.234375 L 0.546875 -3.234375 L 1.390625 -0.171875 L 1.4375 -0.171875 L 2.296875 -3.234375 L 2.703125 -3.234375 L 1.796875 0 L 1.046875 0 Z M 0.125 -3.234375 "/></g></g></g><g fill="#ffffff" fill-opacity="1"><g transform="translate(168.912134, 60.437256)"><g><path d="M 0.4375 -3.234375 L 2.390625 -3.234375 L 2.390625 -2.875 L 0.828125 -2.875 L 0.828125 -1.796875 L 2.375 -1.796875 L 2.375 -1.4375 L 0.828125 -1.4375 L 0.828125 -0.359375 L 2.421875 -0.359375 L 2.421875 0 L 0.4375 0 Z M 0.4375 -3.234375 "/></g></g></g><g fill="#ffffff" fill-opacity="1"><g transform="translate(171.252176, 60.437256)"><g><path d="M 2.421875 0 L 2.046875 0 L 2.046875 -1.078125 C 2.046875 -1.160156 2.023438 -1.222656 1.984375 -1.265625 C 1.941406 -1.304688 1.878906 -1.328125 1.796875 -1.328125 L 0.78125 -1.328125 L 0.78125 0 L 0.390625 0 L 0.390625 -3.234375 L 1.546875 -3.234375 C 1.710938 -3.234375 1.859375 -3.207031 1.984375 -3.15625 C 2.109375 -3.113281 2.210938 -3.050781 2.296875 -2.96875 C 2.378906 -2.894531 2.441406 -2.800781 2.484375 -2.6875 C 2.523438 -2.582031 2.546875 -2.472656 2.546875 -2.359375 L 2.546875 -2.21875 C 2.546875 -2.101562 2.507812 -1.984375 2.4375 -1.859375 C 2.375 -1.734375 2.269531 -1.640625 2.125 -1.578125 L 2.125 -1.53125 C 2.21875 -1.507812 2.289062 -1.46875 2.34375 -1.40625 C 2.394531 -1.351562 2.421875 -1.273438 2.421875 -1.171875 Z M 0.78125 -1.6875 L 1.5 -1.6875 C 1.71875 -1.6875 1.878906 -1.734375 1.984375 -1.828125 C 2.097656 -1.921875 2.15625 -2.0625 2.15625 -2.25 L 2.15625 -2.328125 C 2.15625 -2.492188 2.097656 -2.625 1.984375 -2.71875 C 1.878906 -2.820312 1.71875 -2.875 1.5 -2.875 L 0.78125 -2.875 Z M 0.78125 -1.6875 "/></g></g></g><g fill="#ffffff" fill-opacity="1"><g transform="translate(173.592218, 60.437256)"><g><path d="M 2.171875 -2.296875 C 2.171875 -2.398438 2.148438 -2.492188 2.109375 -2.578125 C 2.066406 -2.660156 2.007812 -2.726562 1.9375 -2.78125 C 1.875 -2.832031 1.796875 -2.867188 1.703125 -2.890625 C 1.609375 -2.921875 1.507812 -2.9375 1.40625 -2.9375 C 1.320312 -2.9375 1.238281 -2.925781 1.15625 -2.90625 C 1.070312 -2.882812 1 -2.851562 0.9375 -2.8125 C 0.875 -2.769531 0.820312 -2.710938 0.78125 -2.640625 C 0.75 -2.578125 0.734375 -2.503906 0.734375 -2.421875 L 0.734375 -2.40625 C 0.734375 -2.3125 0.75 -2.234375 0.78125 -2.171875 C 0.820312 -2.109375 0.878906 -2.050781 0.953125 -2 C 1.023438 -1.957031 1.113281 -1.921875 1.21875 -1.890625 C 1.332031 -1.867188 1.460938 -1.847656 1.609375 -1.828125 C 1.941406 -1.773438 2.1875 -1.671875 2.34375 -1.515625 C 2.507812 -1.367188 2.59375 -1.175781 2.59375 -0.9375 L 2.59375 -0.875 C 2.59375 -0.738281 2.566406 -0.613281 2.515625 -0.5 C 2.472656 -0.382812 2.40625 -0.285156 2.3125 -0.203125 C 2.21875 -0.117188 2.097656 -0.0507812 1.953125 0 C 1.816406 0.0390625 1.660156 0.0625 1.484375 0.0625 C 1.273438 0.0625 1.085938 0.0351562 0.921875 -0.015625 C 0.765625 -0.078125 0.632812 -0.160156 0.53125 -0.265625 C 0.425781 -0.378906 0.34375 -0.503906 0.28125 -0.640625 C 0.226562 -0.785156 0.203125 -0.945312 0.203125 -1.125 L 0.203125 -1.265625 L 0.59375 -1.265625 L 0.59375 -1.140625 C 0.59375 -0.859375 0.671875 -0.644531 0.828125 -0.5 C 0.984375 -0.363281 1.203125 -0.296875 1.484375 -0.296875 C 1.722656 -0.296875 1.898438 -0.347656 2.015625 -0.453125 C 2.140625 -0.554688 2.203125 -0.695312 2.203125 -0.875 L 2.203125 -0.90625 C 2.203125 -1.070312 2.140625 -1.195312 2.015625 -1.28125 C 1.890625 -1.375 1.6875 -1.441406 1.40625 -1.484375 C 1.25 -1.503906 1.101562 -1.535156 0.96875 -1.578125 C 0.832031 -1.628906 0.71875 -1.691406 0.625 -1.765625 C 0.539062 -1.835938 0.472656 -1.921875 0.421875 -2.015625 C 0.367188 -2.117188 0.34375 -2.242188 0.34375 -2.390625 L 0.34375 -2.4375 C 0.34375 -2.5625 0.367188 -2.675781 0.421875 -2.78125 C 0.472656 -2.894531 0.546875 -2.988281 0.640625 -3.0625 C 0.734375 -3.132812 0.84375 -3.191406 0.96875 -3.234375 C 1.101562 -3.273438 1.253906 -3.296875 1.421875 -3.296875 C 1.597656 -3.296875 1.757812 -3.269531 1.90625 -3.21875 C 2.050781 -3.164062 2.171875 -3.09375 2.265625 -3 C 2.367188 -2.914062 2.441406 -2.816406 2.484375 -2.703125 C 2.535156 -2.585938 2.5625 -2.460938 2.5625 -2.328125 L 2.5625 -2.140625 L 2.171875 -2.140625 Z M 2.171875 -2.296875 "/></g></g></g><g fill="#ffffff" fill-opacity="1"><g transform="translate(175.932259, 60.437256)"><g><path d="M 0.390625 -3.234375 L 2.4375 -3.234375 L 2.4375 -2.875 L 1.609375 -2.875 L 1.609375 -0.359375 L 2.4375 -0.359375 L 2.4375 0 L 0.390625 0 L 0.390625 -0.359375 L 1.21875 -0.359375 L 1.21875 -2.875 L 0.390625 -2.875 Z M 0.390625 -3.234375 "/></g></g></g><g fill="#ffffff" fill-opacity="1"><g transform="translate(178.272304, 60.437256)"><g><path d="M 0.28125 -3.234375 L 2.546875 -3.234375 L 2.546875 -2.875 L 1.609375 -2.875 L 1.609375 0 L 1.21875 0 L 1.21875 -2.875 L 0.28125 -2.875 Z M 0.28125 -3.234375 "/></g></g></g><g fill="#ffffff" fill-opacity="1"><g transform="translate(180.612346, 60.437256)"><g><path d="M 1.21875 -1.140625 L 1.140625 -1.140625 L 0.125 -3.234375 L 0.5625 -3.234375 L 1.390625 -1.46875 L 1.4375 -1.46875 L 2.265625 -3.234375 L 2.703125 -3.234375 L 1.6875 -1.140625 L 1.609375 -1.140625 L 1.609375 0 L 1.21875 0 Z M 1.21875 -1.140625 "/></g></g></g><g fill="#ffffff" fill-opacity="1"><g transform="translate(182.952387, 60.437256)"><g/></g></g><g fill="#ffffff" fill-opacity="1"><g transform="translate(185.292429, 60.437256)"><g><path d="M 1.109375 -1.546875 L 2.546875 -1.546875 L 2.546875 0 L 2.1875 0 L 2.1875 -0.390625 L 2.125 -0.390625 C 2.070312 -0.253906 1.976562 -0.144531 1.84375 -0.0625 C 1.71875 0.0195312 1.566406 0.0625 1.390625 0.0625 C 1.046875 0.0625 0.769531 -0.046875 0.5625 -0.265625 C 0.363281 -0.492188 0.265625 -0.828125 0.265625 -1.265625 L 0.265625 -1.984375 C 0.265625 -2.398438 0.363281 -2.722656 0.5625 -2.953125 C 0.769531 -3.179688 1.050781 -3.296875 1.40625 -3.296875 C 1.59375 -3.296875 1.753906 -3.265625 1.890625 -3.203125 C 2.035156 -3.148438 2.15625 -3.066406 2.25 -2.953125 C 2.351562 -2.847656 2.425781 -2.722656 2.46875 -2.578125 C 2.519531 -2.441406 2.546875 -2.289062 2.546875 -2.125 L 2.546875 -2.078125 L 2.15625 -2.078125 L 2.15625 -2.125 C 2.15625 -2.226562 2.140625 -2.328125 2.109375 -2.421875 C 2.085938 -2.523438 2.046875 -2.613281 1.984375 -2.6875 C 1.921875 -2.769531 1.84375 -2.832031 1.75 -2.875 C 1.65625 -2.914062 1.539062 -2.9375 1.40625 -2.9375 C 1.15625 -2.9375 0.96875 -2.84375 0.84375 -2.65625 C 0.71875 -2.476562 0.65625 -2.242188 0.65625 -1.953125 L 0.65625 -1.28125 C 0.65625 -0.96875 0.71875 -0.722656 0.84375 -0.546875 C 0.96875 -0.378906 1.160156 -0.296875 1.421875 -0.296875 C 1.648438 -0.296875 1.828125 -0.367188 1.953125 -0.515625 C 2.085938 -0.660156 2.15625 -0.867188 2.15625 -1.140625 L 2.15625 -1.1875 L 1.109375 -1.1875 Z M 1.109375 -1.546875 "/></g></g></g><g fill="#ffffff" fill-opacity="1"><g transform="translate(187.632471, 60.437256)"><g><path d="M 0.390625 -3.234375 L 2.4375 -3.234375 L 2.4375 -2.875 L 1.609375 -2.875 L 1.609375 -0.359375 L 2.4375 -0.359375 L 2.4375 0 L 0.390625 0 L 0.390625 -0.359375 L 1.21875 -0.359375 L 1.21875 -2.875 L 0.390625 -2.875 Z M 0.390625 -3.234375 "/></g></g></g><g fill="#ffffff" fill-opacity="1"><g transform="translate(189.972513, 60.437256)"><g><path d="M 0.4375 -3.234375 L 2.390625 -3.234375 L 2.390625 -2.875 L 0.828125 -2.875 L 0.828125 -1.796875 L 2.375 -1.796875 L 2.375 -1.4375 L 0.828125 -1.4375 L 0.828125 -0.359375 L 2.421875 -0.359375 L 2.421875 0 L 0.4375 0 Z M 0.4375 -3.234375 "/></g></g></g><g fill="#ffffff" fill-opacity="1"><g transform="translate(192.312554, 60.437256)"><g><path d="M 2.171875 -2.296875 C 2.171875 -2.398438 2.148438 -2.492188 2.109375 -2.578125 C 2.066406 -2.660156 2.007812 -2.726562 1.9375 -2.78125 C 1.875 -2.832031 1.796875 -2.867188 1.703125 -2.890625 C 1.609375 -2.921875 1.507812 -2.9375 1.40625 -2.9375 C 1.320312 -2.9375 1.238281 -2.925781 1.15625 -2.90625 C 1.070312 -2.882812 1 -2.851562 0.9375 -2.8125 C 0.875 -2.769531 0.820312 -2.710938 0.78125 -2.640625 C 0.75 -2.578125 0.734375 -2.503906 0.734375 -2.421875 L 0.734375 -2.40625 C 0.734375 -2.3125 0.75 -2.234375 0.78125 -2.171875 C 0.820312 -2.109375 0.878906 -2.050781 0.953125 -2 C 1.023438 -1.957031 1.113281 -1.921875 1.21875 -1.890625 C 1.332031 -1.867188 1.460938 -1.847656 1.609375 -1.828125 C 1.941406 -1.773438 2.1875 -1.671875 2.34375 -1.515625 C 2.507812 -1.367188 2.59375 -1.175781 2.59375 -0.9375 L 2.59375 -0.875 C 2.59375 -0.738281 2.566406 -0.613281 2.515625 -0.5 C 2.472656 -0.382812 2.40625 -0.285156 2.3125 -0.203125 C 2.21875 -0.117188 2.097656 -0.0507812 1.953125 0 C 1.816406 0.0390625 1.660156 0.0625 1.484375 0.0625 C 1.273438 0.0625 1.085938 0.0351562 0.921875 -0.015625 C 0.765625 -0.078125 0.632812 -0.160156 0.53125 -0.265625 C 0.425781 -0.378906 0.34375 -0.503906 0.28125 -0.640625 C 0.226562 -0.785156 0.203125 -0.945312 0.203125 -1.125 L 0.203125 -1.265625 L 0.59375 -1.265625 L 0.59375 -1.140625 C 0.59375 -0.859375 0.671875 -0.644531 0.828125 -0.5 C 0.984375 -0.363281 1.203125 -0.296875 1.484375 -0.296875 C 1.722656 -0.296875 1.898438 -0.347656 2.015625 -0.453125 C 2.140625 -0.554688 2.203125 -0.695312 2.203125 -0.875 L 2.203125 -0.90625 C 2.203125 -1.070312 2.140625 -1.195312 2.015625 -1.28125 C 1.890625 -1.375 1.6875 -1.441406 1.40625 -1.484375 C 1.25 -1.503906 1.101562 -1.535156 0.96875 -1.578125 C 0.832031 -1.628906 0.71875 -1.691406 0.625 -1.765625 C 0.539062 -1.835938 0.472656 -1.921875 0.421875 -2.015625 C 0.367188 -2.117188 0.34375 -2.242188 0.34375 -2.390625 L 0.34375 -2.4375 C 0.34375 -2.5625 0.367188 -2.675781 0.421875 -2.78125 C 0.472656 -2.894531 0.546875 -2.988281 0.640625 -3.0625 C 0.734375 -3.132812 0.84375 -3.191406 0.96875 -3.234375 C 1.101562 -3.273438 1.253906 -3.296875 1.421875 -3.296875 C 1.597656 -3.296875 1.757812 -3.269531 1.90625 -3.21875 C 2.050781 -3.164062 2.171875 -3.09375 2.265625 -3 C 2.367188 -2.914062 2.441406 -2.816406 2.484375 -2.703125 C 2.535156 -2.585938 2.5625 -2.460938 2.5625 -2.328125 L 2.5625 -2.140625 L 2.171875 -2.140625 Z M 2.171875 -2.296875 "/></g></g></g><g fill="#ffffff" fill-opacity="1"><g transform="translate(194.652596, 60.437256)"><g><path d="M 2.171875 -2.296875 C 2.171875 -2.398438 2.148438 -2.492188 2.109375 -2.578125 C 2.066406 -2.660156 2.007812 -2.726562 1.9375 -2.78125 C 1.875 -2.832031 1.796875 -2.867188 1.703125 -2.890625 C 1.609375 -2.921875 1.507812 -2.9375 1.40625 -2.9375 C 1.320312 -2.9375 1.238281 -2.925781 1.15625 -2.90625 C 1.070312 -2.882812 1 -2.851562 0.9375 -2.8125 C 0.875 -2.769531 0.820312 -2.710938 0.78125 -2.640625 C 0.75 -2.578125 0.734375 -2.503906 0.734375 -2.421875 L 0.734375 -2.40625 C 0.734375 -2.3125 0.75 -2.234375 0.78125 -2.171875 C 0.820312 -2.109375 0.878906 -2.050781 0.953125 -2 C 1.023438 -1.957031 1.113281 -1.921875 1.21875 -1.890625 C 1.332031 -1.867188 1.460938 -1.847656 1.609375 -1.828125 C 1.941406 -1.773438 2.1875 -1.671875 2.34375 -1.515625 C 2.507812 -1.367188 2.59375 -1.175781 2.59375 -0.9375 L 2.59375 -0.875 C 2.59375 -0.738281 2.566406 -0.613281 2.515625 -0.5 C 2.472656 -0.382812 2.40625 -0.285156 2.3125 -0.203125 C 2.21875 -0.117188 2.097656 -0.0507812 1.953125 0 C 1.816406 0.0390625 1.660156 0.0625 1.484375 0.0625 C 1.273438 0.0625 1.085938 0.0351562 0.921875 -0.015625 C 0.765625 -0.078125 0.632812 -0.160156 0.53125 -0.265625 C 0.425781 -0.378906 0.34375 -0.503906 0.28125 -0.640625 C 0.226562 -0.785156 0.203125 -0.945312 0.203125 -1.125 L 0.203125 -1.265625 L 0.59375 -1.265625 L 0.59375 -1.140625 C 0.59375 -0.859375 0.671875 -0.644531 0.828125 -0.5 C 0.984375 -0.363281 1.203125 -0.296875 1.484375 -0.296875 C 1.722656 -0.296875 1.898438 -0.347656 2.015625 -0.453125 C 2.140625 -0.554688 2.203125 -0.695312 2.203125 -0.875 L 2.203125 -0.90625 C 2.203125 -1.070312 2.140625 -1.195312 2.015625 -1.28125 C 1.890625 -1.375 1.6875 -1.441406 1.40625 -1.484375 C 1.25 -1.503906 1.101562 -1.535156 0.96875 -1.578125 C 0.832031 -1.628906 0.71875 -1.691406 0.625 -1.765625 C 0.539062 -1.835938 0.472656 -1.921875 0.421875 -2.015625 C 0.367188 -2.117188 0.34375 -2.242188 0.34375 -2.390625 L 0.34375 -2.4375 C 0.34375 -2.5625 0.367188 -2.675781 0.421875 -2.78125 C 0.472656 -2.894531 0.546875 -2.988281 0.640625 -3.0625 C 0.734375 -3.132812 0.84375 -3.191406 0.96875 -3.234375 C 1.101562 -3.273438 1.253906 -3.296875 1.421875 -3.296875 C 1.597656 -3.296875 1.757812 -3.269531 1.90625 -3.21875 C 2.050781 -3.164062 2.171875 -3.09375 2.265625 -3 C 2.367188 -2.914062 2.441406 -2.816406 2.484375 -2.703125 C 2.535156 -2.585938 2.5625 -2.460938 2.5625 -2.328125 L 2.5625 -2.140625 L 2.171875 -2.140625 Z M 2.171875 -2.296875 "/></g></g></g><g fill="#ffffff" fill-opacity="1"><g transform="translate(196.992638, 60.437256)"><g><path d="M 0.4375 -3.234375 L 2.390625 -3.234375 L 2.390625 -2.875 L 0.828125 -2.875 L 0.828125 -1.796875 L 2.375 -1.796875 L 2.375 -1.4375 L 0.828125 -1.4375 L 0.828125 -0.359375 L 2.421875 -0.359375 L 2.421875 0 L 0.4375 0 Z M 0.4375 -3.234375 "/></g></g></g><g fill="#ffffff" fill-opacity="1"><g transform="translate(199.332679, 60.437256)"><g><path d="M 2.046875 -0.171875 L 2.109375 -0.171875 L 2.109375 -3.234375 L 2.5 -3.234375 L 2.5 0 L 1.71875 0 L 0.78125 -3.078125 L 0.71875 -3.078125 L 0.71875 0 L 0.34375 0 L 0.34375 -3.234375 L 1.109375 -3.234375 Z M 2.046875 -0.171875 "/></g></g></g><g fill="#ffffff" fill-opacity="1"><g transform="translate(201.675338, 60.437256)"><g/></g></g><g fill="#000000" fill-opacity="1"><g transform="translate(204.017722, 60.437256)"><g/></g></g><path stroke-linecap="butt" transform="matrix(0.495488, 0, 0, 0.495488, 51.666426, 18.069146)" fill="none" stroke-linejoin="miter" d="M 13.886202 8.374779 L 9.52655 35.999047 L 2.344555 35.999047 L 6.712091 8.374779 Z M 13.886202 8.374779 " stroke="#000000" stroke-width="3.710418" stroke-opacity="1" stroke-miterlimit="4"/><g fill="#ff8811" fill-opacity="1"><g transform="translate(51.666426, 35.906722)"><g><path d="M 6.875 -13.6875 L 4.71875 0 L 1.15625 0 L 3.328125 -13.6875 Z M 6.875 -13.6875 "/></g></g></g></svg>